<?xml version="1.0" encoding="utf-8"?>
<!-- Generator: Adobe Illustrator 26.0.1, SVG Export Plug-In . SVG Version: 6.00 Build 0)  -->
<svg version="1.1" id="Calque_1" xmlns="http://www.w3.org/2000/svg" xmlns:xlink="http://www.w3.org/1999/xlink" x="0px" y="0px"
	 viewBox="0 0 128 128" style="enable-background:new 0 0 128 128;" xml:space="preserve">
<style type="text/css">
	.st0{fill:#0084B4;}
	.st1{fill:#3FBEE0;}
	.st2{fill:#E51D2D;}
	.st3{fill:#CB1522;}
	.st4{fill:#848484;}
	.st5{fill:#FCC247;}
	.st6{fill:#DE9B2A;}
	.st7{fill:#ADA2AB;}
	.st8{fill:#FEFDFB;}
	.st9{fill:#FEDCA3;}
	.st10{fill:#C37B18;}
	.st11{fill:#988167;}
	.st12{fill:#DDC896;}
	.st13{fill:#DFAE62;}
	.st14{fill:#9F9F80;}
	.st15{fill:#DBCFCB;}
	.st16{fill:#CF1323;}
	.st17{fill:#AF191F;}
	.st18{fill:#746E6E;}
	.st19{fill:#DDA33A;}
	.st20{fill:#C18122;}
	.st21{fill:#A96715;}
	.st22{fill:#20B6DF;}
	.st23{fill:#056877;}
	.st24{fill:#68C6E0;}
	.st25{fill:#E2C593;}
	.st26{fill:#A3B6B2;}
	.st27{fill:#1DA8BB;}
</style>
<g>
	<rect class="st0" width="128" height="128"/>
	<g>
		<path class="st1" d="M24.43,54.64l15.7,52.76l35.08-12.24c4.79-1.95,7.41-3.41,6.19-7.75c-3.05-10.83-11.93-41.54-12.75-43.63
			c-1-2.57-1.35-4.72-8.25-2.23L24.43,54.64"/>
		<path class="st2" d="M24.43,54.64l15.7,52.76l35.08-12.24c4.79-1.95,7.41-3.41,6.19-7.75c-3.05-10.83-11.93-41.54-12.75-43.63
			c-1-2.57-1.35-4.72-8.25-2.23L24.43,54.64"/>
		<path class="st3" d="M40.96,105.75L32.91,78.7c3.11,3.28,6.98,6.08,10.32,8.3c0.39,0.26,0.77,0.5,1.16,0.74l3.2,14.6l11.88-3.04
			L40.96,105.75"/>
		<polyline class="st4" points="41.39,54.82 42.14,57.43 54.88,52.83 54.12,50.14 41.39,54.82 		"/>
		<path class="st4" d="M36.6,64.82l26.46-9.36c-0.08-0.29-0.16-0.57-0.23-0.86l-26.47,9.46C36.43,64.32,36.51,64.57,36.6,64.82"/>
		<path class="st4" d="M37.82,68.76l26.52-9.29c-0.1-0.28-0.19-0.56-0.29-0.83l-26.47,9.37C37.67,68.26,37.75,68.51,37.82,68.76"/>
		<path class="st4" d="M39.05,72.67l26.57-9.22c-0.08-0.28-0.16-0.56-0.24-0.84l-26.56,9.31C38.9,72.17,38.97,72.42,39.05,72.67"/>
		<path class="st4" d="M40.12,76.6l26.61-9.15c-0.09-0.27-0.17-0.55-0.25-0.83l-26.55,9.22C40,76.1,40.06,76.35,40.12,76.6"/>
		<path class="st1" d="M52.09,41.19l2.47,55.38l36.8-1.86c5.1-0.52,7.97-1.19,7.84-5.72c-0.33-11.32-1.52-43.48-1.81-45.73
			c-0.35-2.76-0.17-4.94-7.43-4.49L52.09,41.19"/>
		<path class="st5" d="M52.09,41.19l2.47,55.38l36.8-1.86c5.1-0.52,7.97-1.19,7.84-5.72c-0.33-11.32-1.52-43.48-1.81-45.73
			c-0.35-2.76-0.17-4.94-7.43-4.49L52.09,41.19"/>
		<path class="st6" d="M77.64,94.1c0.42-0.2,0.81-0.4,1.17-0.61l8.73-2.24c2.72,0.59,5.42,0.95,8.06,0.95c0.16,0,0.32,0,0.47,0
			c-1.27,0.73-3.13,1.01-5.51,1.25L77.64,94.1"/>
		<polyline class="st7" points="68.41,46.17 68.5,48.91 81.91,48.09 81.82,45.26 68.41,46.17 		"/>
		<path class="st7" d="M61.37,54.47l27.79-1.53c-0.01-0.3-0.01-0.6-0.02-0.9l-27.83,1.62C61.34,53.94,61.36,54.2,61.37,54.47"/>
		<path class="st7" d="M61.61,58.62l27.84-1.44c-0.03-0.3-0.05-0.59-0.08-0.89l-27.8,1.53C61.58,58.09,61.6,58.36,61.61,58.62"/>
		<path class="st7" d="M61.85,62.74l27.86-1.36c-0.01-0.29-0.02-0.59-0.03-0.88l-27.88,1.45C61.83,62.22,61.84,62.48,61.85,62.74"/>
		<path class="st7" d="M61.94,66.84l27.89-1.28c-0.02-0.29-0.03-0.58-0.04-0.87l-27.84,1.37C61.95,66.32,61.94,66.58,61.94,66.84"/>
		<polyline class="st8" points="84.61,39.11 84.61,39.11 88.6,38.86 85.73,39.04 84.61,39.11 		"/>
		<path class="st9" d="M97.9,53.53l-8.53-9c-0.62-2.83-1.08-4.87-1.29-5.65l-1.78,0.11l-0.58,0.04l2.87-0.18l9.1,10.01
			C97.76,50.25,97.83,51.82,97.9,53.53"/>
		<path class="st8" d="M98.46,67.67c-0.02-0.45-0.03-0.91-0.05-1.36C98.42,66.77,98.44,67.22,98.46,67.67 M98.41,66.28
			c0-0.02,0-0.04,0-0.06C98.4,66.24,98.41,66.26,98.41,66.28"/>
		<path class="st9" d="M98.47,67.94l-5.2-5.22c0-0.01,0-0.02-0.01-0.03v0l-0.05-0.23c-0.3-1.41-0.6-2.81-0.89-4.2l-0.01-0.03
			c-0.08-0.4-0.17-0.8-0.25-1.19l6.23,6.33c0.04,0.94,0.07,1.89,0.11,2.84c0,0.02,0,0.04,0,0.06c0,0.01,0,0.02,0,0.03
			c0.02,0.45,0.03,0.91,0.05,1.36C98.46,67.76,98.47,67.85,98.47,67.94"/>
		<path class="st6" d="M87.55,91.26c-1.84-0.4-3.7-0.91-5.55-1.5l4.83-1.24c4.92-1.53,7.64-2.76,6.74-7.19
			c-0.9-4.44-2.51-12.15-4.15-19.93l0.3-0.01c-0.01-0.29-0.02-0.59-0.03-0.88l-0.46,0.02c-0.03-0.16-0.07-0.33-0.1-0.49
			c-0.13-0.62-0.27-1.25-0.4-1.87l4.54,4.56c1.69,7.98,3.35,15.96,4.27,20.51c0.9,4.43-1.82,5.66-6.74,7.19L87.55,91.26"/>
		<path class="st10" d="M78.81,93.49c1.67-0.96,2.69-2.05,2.86-3.66L82,89.75c1.85,0.59,3.71,1.1,5.55,1.5L78.81,93.49"/>
		<path class="st11" d="M89.42,61.4c-0.04-0.2-0.08-0.41-0.13-0.61v0c-0.02-0.09-0.04-0.18-0.06-0.26l0.46-0.02
			c0.01,0.29,0.02,0.59,0.03,0.88L89.42,61.4"/>
		<path class="st6" d="M92.07,57.04L88.09,53l1.07-0.06c-0.01-0.3-0.01-0.6-0.02-0.9l-1.7,0.1c-1.1-5.14-2.08-9.68-2.72-12.5
			l4.64,4.89C90.1,47.87,91.06,52.3,92.07,57.04"/>
		<path class="st11" d="M88.09,53l-0.59-0.6c-0.02-0.09-0.04-0.17-0.06-0.26l1.7-0.1c0,0.3,0.01,0.6,0.02,0.9L88.09,53"/>
		<polyline class="st12" points="84.61,39.11 84.61,39.11 85.73,39.04 84.61,39.11 		"/>
		<path class="st13" d="M89.37,44.54l-4.64-4.89c-0.04-0.18-0.08-0.36-0.12-0.53l1.12-0.07l0.58-0.04l1.78-0.11
			C88.29,39.67,88.75,41.71,89.37,44.54"/>
		<path class="st13" d="M93.27,62.72l-4.54-4.56c-0.07-0.31-0.13-0.62-0.2-0.94l0.92-0.05c-0.03-0.3-0.05-0.59-0.08-0.89l-1.03,0.06
			c-0.24-1.12-0.47-2.23-0.71-3.32L88.09,53l3.97,4.04c0.08,0.4,0.17,0.79,0.25,1.19l0.01,0.03c0.29,1.39,0.59,2.79,0.89,4.2
			l0.05,0.23v0C93.27,62.7,93.27,62.71,93.27,62.72"/>
		<path class="st14" d="M87.64,53.03c-0.04-0.21-0.09-0.41-0.13-0.62l0.59,0.6L87.64,53.03"/>
		<path class="st14" d="M88.53,57.22c-0.06-0.29-0.12-0.59-0.19-0.88l1.03-0.06c0.02,0.29,0.05,0.59,0.08,0.89L88.53,57.22"/>
		<polyline class="st15" points="36.2,50.36 36.2,50.36 40.28,48.88 40.28,48.88 36.2,50.36 		"/>
		<path class="st16" d="M59.46,99.29l9.96-3.48l4.49-0.23L59.46,99.29 M49.34,90.25c-1.67-0.68-3.32-1.51-4.96-2.52l-2.57-11.72
			l4.1-1.41L49.34,90.25 M41.65,75.25l-0.71-3.23l4.1-1.42l0.71,3.23L41.65,75.25 M40.77,71.24l-0.71-3.26l4.1-1.44l0.71,3.26
			L40.77,71.24 M39.88,67.2l-0.72-3.28l4.1-1.45l0.72,3.28L39.88,67.2 M38.99,63.12L36.2,50.36l4.09-1.49l1.29,5.87l-0.18,0.07
			l0.75,2.61l0.02-0.01l0.93,4.24L38.99,63.12"/>
		<path class="st17" d="M47.58,102.34l-3.2-14.6c1.64,1.01,3.29,1.84,4.96,2.52l1.63,7.45l4.63-1.19l13.82-0.7l-9.96,3.48
			L47.58,102.34"/>
		<polyline class="st18" points="42.14,57.43 41.39,54.82 41.57,54.75 42.15,57.42 42.14,57.43 		"/>
		<polyline class="st18" points="39.16,63.91 38.99,63.12 43.08,61.66 43.26,62.47 39.16,63.91 		"/>
		<polyline class="st18" points="40.05,67.98 39.88,67.2 43.98,65.75 44.15,66.55 40.05,67.98 		"/>
		<polyline class="st18" points="40.94,72.02 40.77,71.24 44.86,69.8 45.04,70.59 40.94,72.02 		"/>
		<polyline class="st18" points="41.81,76.02 41.65,75.25 45.75,73.82 45.92,74.61 41.81,76.02 		"/>
		<path class="st19" d="M55.61,96.51L55.61,96.51l14.21-0.72l6.31-1.62l1.52-0.08c-0.73,0.35-1.54,0.69-2.43,1.05l-1.07,0.37
			l-0.23,0.06l-4.49,0.23L55.61,96.51"/>
		<path class="st20" d="M76.13,94.18l2.68-0.69c-0.36,0.21-0.75,0.41-1.17,0.61L76.13,94.18"/>
		<polyline class="st20" points="55.61,96.51 61.91,94.9 76.13,94.18 69.82,95.8 55.61,96.51 		"/>
		<path class="st21" d="M61.91,94.9l19.76-5.06c-0.17,1.61-1.19,2.69-2.86,3.66l-2.68,0.69L61.91,94.9"/>
		<path class="st1" d="M39.16,43.76L50.98,97.7l35.86-9.18c4.92-1.53,7.64-2.76,6.74-7.19c-2.25-11.06-8.87-42.43-9.53-44.58
			c-0.81-2.65-1-4.82-8.06-2.93L39.16,43.76"/>
		<path class="st22" d="M51.91,96.13l-6.06-27.65c2.86,3.54,6.51,6.66,9.68,9.16c5.71,4.5,11.61,6.58,18.58,7.55
			c3.06,0.43,6.11,0.7,9.08,0.7c2.7,0,5.34-0.23,7.86-0.78c-1.12,0.97-2.91,1.62-5.2,2.33L51.91,96.13"/>
		<polyline class="st23" points="56.05,45.4 56.6,48.07 69.65,44.58 69.08,41.82 56.05,45.4 		"/>
		<path class="st23" d="M50.54,54.96L77.6,47.9c-0.06-0.29-0.11-0.58-0.17-0.88l-27.08,7.16C50.42,54.44,50.48,54.7,50.54,54.96"/>
		<path class="st23" d="M51.48,58.99l27.12-6.99c-0.08-0.29-0.15-0.57-0.23-0.86L51.3,58.22C51.36,58.48,51.42,58.73,51.48,58.99"/>
		<path class="st23" d="M52.42,62.99l27.16-6.91c-0.05-0.29-0.12-0.57-0.17-0.86l-27.16,7C52.3,62.48,52.36,62.74,52.42,62.99
			L52.42,62.99z"/>
		<path class="st23" d="M53.2,67l27.19-6.83c-0.07-0.28-0.13-0.57-0.19-0.85l-27.13,6.91C53.11,66.49,53.16,66.75,53.2,67L53.2,67z"
			/>
		<polyline class="st8" points="70.43,35.31 70.43,35.31 74.17,34.3 70.43,35.31 		"/>
		<path class="st24" d="M86.29,46.74L70.43,35.31l3.74-1.01l0.48-0.13l10.65,8.02C85.59,43.53,85.93,45.06,86.29,46.74"/>
		<path class="st25" d="M89.23,60.52c-0.03-0.16-0.07-0.33-0.1-0.49C89.16,60.2,89.2,60.36,89.23,60.52L89.23,60.52"/>
		<path class="st26" d="M89.29,60.79L89.29,60.79c-0.02-0.09-0.04-0.18-0.06-0.26l0,0C89.25,60.61,89.27,60.7,89.29,60.79"/>
		<path class="st24" d="M89.29,60.79l-12.26-8.37l1.57-0.41c-0.08-0.29-0.15-0.57-0.23-0.86l-2.31,0.6l-3.66-2.5l4.15-1.08
			l11.79,8.16c0.26,1.22,0.52,2.46,0.79,3.7c0.03,0.16,0.07,0.33,0.1,0.49C89.25,60.61,89.27,60.7,89.29,60.79 M71.45,48.61
			l-4.74-3.24l2.94-0.79l-0.28-1.38l6.23,4.31L71.45,48.61"/>
		<polyline class="st8" points="57.21,38.88 57.21,38.88 61.47,37.74 57.21,38.88 		"/>
		<polyline class="st24" points="63.68,43.3 57.21,38.88 61.47,37.74 67.86,42.16 63.68,43.3 		"/>
		<polyline class="st27" points="66.7,45.36 63.68,43.3 67.86,42.16 69.36,43.2 69.65,44.58 66.7,45.36 		"/>
		<polyline class="st27" points="72.4,49.26 71.45,48.61 75.59,47.51 76.55,48.17 72.4,49.26 		"/>
		<path class="st27" d="M77.02,52.41l-0.96-0.66l2.31-0.6c0.08,0.28,0.15,0.57,0.23,0.86L77.02,52.41"/>
	</g>
</g>
</svg>
