<?xml version="1.0" encoding="utf-8"?>
<!-- Generator: Adobe Illustrator 26.0.1, SVG Export Plug-In . SVG Version: 6.00 Build 0)  -->
<svg version="1.1" id="Calque_1" xmlns="http://www.w3.org/2000/svg" xmlns:xlink="http://www.w3.org/1999/xlink" x="0px" y="0px"
	 viewBox="0 0 128 128" style="enable-background:new 0 0 128 128;" xml:space="preserve">
<style type="text/css">
	.st0{fill:#3A3938;}
	.st1{fill:url(#SVGID_1_);}
	.st2{fill:#9F9E9F;}
	.st3{fill:#727172;}
	.st4{fill:#241916;}
	.st5{fill:#878889;}
	.st6{fill:#B4B5B5;}
	.st7{fill:#FFFFFF;}
	.st8{fill:url(#SVGID_00000069396722313691662150000017544329509510341506_);}
	.st9{fill:url(#SVGID_00000004535492668516843300000003845822612878093742_);}
	.st10{fill:url(#SVGID_00000008846085102750919400000014332721407433741455_);}
	.st11{fill:#F1EFF2;}
</style>
<g>
	<rect class="st0" width="128" height="128"/>
	<g>
		
			<radialGradient id="SVGID_1_" cx="76.6083" cy="40.5536" r="54.52" fx="77.4005" fy="30.6619" gradientTransform="matrix(1 0 0 1.0332 0 12.6748)" gradientUnits="userSpaceOnUse">
			<stop  offset="0.0824" style="stop-color:#FFFFFF"/>
			<stop  offset="0.4664" style="stop-color:#E5E4E4"/>
			<stop  offset="1" style="stop-color:#BDBBBB"/>
		</radialGradient>
		<path class="st1" d="M99.68,65.99c0,20.77-16.3,37.61-36.4,37.61c-20.1,0-36.4-16.84-36.4-37.61s16.3-37.61,36.4-37.61
			C83.39,28.38,99.68,45.22,99.68,65.99z"/>
		<g>
			<polygon class="st2" points="56.06,68.88 73.29,62.83 73.39,63.15 56.17,69.19 56.06,68.88 			"/>
			<path class="st3" d="M52.09,82.74L52.09,82.74l0.25-0.21c0,0,1.58,2.01,4.01,4.48l0,0c2.43,2.47,5.71,4.98,9.1,6.81v0.42
				L65.3,94.2C58.23,90.75,52.1,82.75,52.09,82.74L52.09,82.74z"/>
			<path class="st2" d="M78.23,89.94c2.43-4.68,3.68-9.24,4.33-12.63l0,0c0.65-3.39,0.69-5.59,0.69-5.59l0,0l0.32,0.01
				c0,0.02-0.16,8.94-5.06,18.38l0,0L78.23,89.94L78.23,89.94z"/>
			<path class="st4" d="M45.16,58.31c0-7.82,3.98-15.87,3.98-15.88l0,0h0l0.29,0.15c0,0.01-0.98,2-1.97,4.97l0,0
				c-0.99,2.97-1.97,6.91-1.97,10.76l0,0c0,0.55,0.02,1.1,0.06,1.64l0,0l-0.32,0.03C45.18,59.43,45.16,58.87,45.16,58.31
				L45.16,58.31z"/>
			<path class="st5" d="M68.29,41.3c-2.78-2.08-5.07-3.33-5.1-3.35l0,0l0.15-0.3c0.01,0.01,9.28,5.04,13.23,11.82l0,0l-0.28,0.17
				C74.36,46.32,71.08,43.39,68.29,41.3L68.29,41.3z"/>
			<path class="st4" d="M37.54,90.43c0-5.2,2.59-9.39,2.6-9.4l0,0l0,0l0.27,0.18c0,0-0.64,1.03-1.27,2.7l0,0
				c-0.64,1.67-1.27,3.98-1.27,6.52l0,0c0,0.41,0.02,0.83,0.05,1.25l0,0l-0.32,0.03C37.55,91.28,37.54,90.85,37.54,90.43
				L37.54,90.43z"/>
			<path class="st6" d="M93.92,65.86c-1.33-1-2.28-1.36-2.28-1.36l0,0l0,0l0.11-0.32c0.02,0.01,3.96,1.54,6.91,6.62l0,0l-0.28,0.17
				C96.94,68.47,95.25,66.85,93.92,65.86L93.92,65.86z"/>
			<path class="st2" d="M88.05,50.88c0-0.01,1.18-3.52,1.18-8.38l0,0c0-0.54-0.01-1.09-0.05-1.66l0,0l0.16-0.01
				c0.03,0.57,0.05,1.13,0.05,1.67l0,0c0,4.88-1.19,8.43-1.19,8.43l0,0L88.05,50.88L88.05,50.88z"/>
			<path class="st4" d="M28.35,60.73l0.28-0.17c0.53,0.96,2.31,2.55,3.93,3.87l0,0c1.63,1.33,3.11,2.4,3.11,2.4l0,0l-0.18,0.28
				C35.48,67.09,29.54,62.81,28.35,60.73L28.35,60.73z"/>
			<path class="st4" d="M30.21,50.36c5.7-10.1,13.36-12.71,13.37-12.71l0,0l0,0l0.05,0.16c0,0.01-1.9,0.65-4.51,2.55l0,0
				c-2.61,1.9-5.93,5.06-8.77,10.09l0,0L30.21,50.36L30.21,50.36z"/>
			<path class="st7" d="M65.05,31.15c0,0,8.83-0.67,16.9,2.69c0,0-9.15-4.2-16.9-3.13V31.15z"/>
			<path class="st2" d="M83.79,93.66c0,0,3.03-0.2,6.39-3.08c0,0-2.02,2.38-6.53,3.75L83.79,93.66z"/>
			<path class="st2" d="M63.64,100.01c0,0-3.47,1.43-9.72,1.76c0,0,6.01,0.25,9.91-1.18L63.64,100.01z"/>
		</g>
		<g>
			
				<radialGradient id="SVGID_00000103225137249770601150000017270096506095099796_" cx="43.9273" cy="4.9894" r="30.1123" gradientTransform="matrix(1 0 0 1.0332 0 12.6748)" gradientUnits="userSpaceOnUse">
				<stop  offset="0" style="stop-color:#73716F"/>
				<stop  offset="1.316547e-03" style="stop-color:#73716E"/>
				<stop  offset="0.1656" style="stop-color:#5B5452"/>
				<stop  offset="0.3312" style="stop-color:#483E3C"/>
				<stop  offset="0.4978" style="stop-color:#382E2B"/>
				<stop  offset="0.6646" style="stop-color:#2D2220"/>
				<stop  offset="0.8317" style="stop-color:#261B19"/>
				<stop  offset="1" style="stop-color:#241916"/>
			</radialGradient>
			<path style="fill:url(#SVGID_00000103225137249770601150000017270096506095099796_);" d="M42.3,38.09
				c3.87-5.29,11.55-8.43,11.55-8.43c7-0.93,11.95,0.93,11.95,0.93l-1.95,7.72c-6.28,0.67-15.06,4.92-15.06,4.92L42.3,38.09z"/>
			<path class="st4" d="M45.23,58.12c0,0,8.88,8.96,11.59,10.52c0,0-3.36,11.08-3.79,14.66c0,0-7.91,1.34-13.54-1.12
				c0,0-4.12-6.49-4.66-15.78C34.83,66.41,40.9,59.91,45.23,58.12z"/>
			
				<radialGradient id="SVGID_00000047023091982762403840000017947204269020613539_" cx="66.0272" cy="56.3366" r="43.45" gradientTransform="matrix(1 0 0 1.0332 0 12.6748)" gradientUnits="userSpaceOnUse">
				<stop  offset="0" style="stop-color:#241916"/>
				<stop  offset="0.3857" style="stop-color:#251A17"/>
				<stop  offset="0.5405" style="stop-color:#291E1C"/>
				<stop  offset="0.6539" style="stop-color:#302523"/>
				<stop  offset="0.7471" style="stop-color:#3A2F2D"/>
				<stop  offset="0.8278" style="stop-color:#473D3B"/>
				<stop  offset="0.8999" style="stop-color:#554E4B"/>
				<stop  offset="0.9642" style="stop-color:#686360"/>
				<stop  offset="1" style="stop-color:#73716F"/>
			</radialGradient>
			<path style="fill:url(#SVGID_00000047023091982762403840000017947204269020613539_);" d="M64.4,93.38c0,0,9.53-0.9,14.84-5.26
				c0,0,2.6,3.58,5.42,5.6c0,0-5.57,6.83-10.05,8.02c0,0-5.76,1.38-12.59-0.97C62.02,100.77,63.64,97.86,64.4,93.38z"/>
			<path class="st4" d="M75.56,48.5c0,0-2.17,10.52-3.47,14.77c0,0,7.69,6.6,11.16,10.19c0,0,8.23-5.15,9.32-8.62
				c0,0,0.32-8.17-4.12-15.22C88.45,49.62,83.03,46.37,75.56,48.5z"/>
			
				<radialGradient id="SVGID_00000180353548176558785690000008069163520798675358_" cx="76.9649" cy="40.0938" r="15.4369" gradientTransform="matrix(1 0 0 1.0332 0 12.6748)" gradientUnits="userSpaceOnUse">
				<stop  offset="0" style="stop-color:#73716F"/>
				<stop  offset="0.1229" style="stop-color:#635D5B"/>
				<stop  offset="0.313" style="stop-color:#4D4441"/>
				<stop  offset="0.4998" style="stop-color:#3B312F"/>
				<stop  offset="0.6797" style="stop-color:#2F2421"/>
				<stop  offset="0.8499" style="stop-color:#271C19"/>
				<stop  offset="1" style="stop-color:#241916"/>
			</radialGradient>
			<path style="fill:url(#SVGID_00000180353548176558785690000008069163520798675358_);" d="M76.14,49.1c0,0-2.06,9.99-3.29,14.04
				c0,0,7.31,6.27,10.6,9.68c0,0,7.82-4.89,8.85-8.19c0,0,0.31-7.76-3.91-14.46C88.39,50.17,83.24,47.08,76.14,49.1z"/>
			<path class="st4" d="M30.94,48.74c-2.59,5.17-4.05,11.03-4.05,17.25c0,0.06,0,0.12,0,0.19c0.49-1.66,1.28-3.96,2.2-5.04
				C29.09,61.14,29.09,53.68,30.94,48.74z"/>
			<path class="st4" d="M37.86,90.13c0,0-2.23-0.9-4.42-2.61c4.28,6.32,10.4,11.22,17.55,13.88C47.28,99.54,40.85,95.69,37.86,90.13
				z"/>
			<path class="st4" d="M97.01,80.16c1.63-4.15,2.57-8.68,2.66-13.41c-0.34,1.37-0.84,2.7-1.58,3.58
				C98.09,70.32,98.01,74.99,97.01,80.16z"/>
			<path class="st4" d="M89.32,41.67c2.48,0.98,4.91,4.62,6.51,7.46c-3.31-6.81-8.57-12.44-15.02-16.11
				C85.23,36.28,89.32,41.67,89.32,41.67z"/>
		</g>
		<g>
			<path class="st7" d="M58.68,68.67l11.98-4.19c0.85-0.3,2.09-0.04,2.77,0.56l8.16,7.31c0.68,0.61,0.65,0.65-0.07,0.09l-8.13-6.37
				c-0.72-0.56-2-0.82-2.86-0.58l-11.81,3.27C57.85,69.01,57.83,68.96,58.68,68.67z"/>
			<path class="st7" d="M44.82,57.87c0,0,0.73-9.9,3.82-14.61l-6.17-4.7l5.36,4.79C47.83,43.35,44.9,49.39,44.82,57.87z"/>
			<path class="st11" d="M42.22,37.92c0,0,2.73-4.39,9.56-7.47C51.78,30.45,45.61,32.27,42.22,37.92z"/>
			<path class="st11" d="M52.54,83.7c0,0,5.52,7.13,11.54,10.16c0,0-0.22,2.55-2.06,6.46c0,0,1.38-3.89,1.54-6.24
				C63.56,94.08,57.58,91.25,52.54,83.7z"/>
			<path class="st11" d="M79.03,88.01c0,0,2.93-6.25,3.82-14.35c0,0-1.95,9.19-3.74,13.05c-0.23,0.5-0.88,1.26-1.34,1.55
				c-1.75,1.1-6.33,3.59-13.12,4.78C64.64,93.04,72.16,92.88,79.03,88.01z"/>
			<path class="st7" d="M83.66,73.4c0,0,7.31-4.36,8.94-8.14C92.59,65.26,91.21,69.96,83.66,73.4z"/>
		</g>
	</g>
</g>
</svg>
