<?xml version="1.0" encoding="utf-8"?>
<!-- Generator: Adobe Illustrator 26.0.1, SVG Export Plug-In . SVG Version: 6.00 Build 0)  -->
<svg version="1.1" id="Calque_1" xmlns="http://www.w3.org/2000/svg" xmlns:xlink="http://www.w3.org/1999/xlink" x="0px" y="0px"
	 viewBox="0 0 128 128" style="enable-background:new 0 0 128 128;" xml:space="preserve">
<style type="text/css">
	.st0{fill:#4AB16A;}
	.st1{clip-path:url(#SVGID_00000091703762592346922680000008288312720272961926_);}
	.st2{fill:#37AC59;}
	.st3{fill:#008E39;}
	.st4{fill:#00686F;}
	.st5{fill:#015E59;}
	.st6{fill:#B9DCC0;}
	.st7{fill:#18A144;}
	.st8{fill:#E5985C;}
	.st9{fill:#FAC39A;}
	.st10{fill:#F5D8B2;}
	.st11{fill:#F6AB70;}
	.st12{fill:#F09450;}
	.st13{fill:#BB163B;}
	.st14{fill:#FFFFFF;}
	.st15{fill:#EA5572;}
	.st16{fill:#9F4E38;}
	.st17{fill:#D48763;}
	.st18{fill:#CD7548;}
	.st19{fill:#833524;}
	.st20{fill:#4F4E4E;}
	.st21{fill:#DF9257;}
	.st22{fill:#4E9AD1;}
	.st23{fill:#E69E6F;}
	.st24{fill:#B86654;}
	.st25{fill:#D1AB9F;}
	.st26{fill:#3FBEE0;}
	.st27{fill:#1EADCE;}
	.st28{fill:#73C5C6;}
	.st29{fill:#149DBB;}
	.st30{fill:#00535B;}
	.st31{fill:#128AA7;}
	.st32{fill:#F1ECE2;}
	.st33{fill:#EEE7D9;}
	.st34{fill:#E4DAC8;}
	.st35{fill:#E51D2D;}
	.st36{fill:#C11724;}
	.st37{fill:#C5171C;}
	.st38{fill:#9E1919;}
	.st39{fill:#A71920;}
	.st40{fill:#FCC247;}
	.st41{fill:#C51718;}
	.st42{fill:#9E1915;}
	.st43{fill:#F7A82F;}
	.st44{fill:#BB181D;}
	.st45{fill:#991915;}
	.st46{fill:#F39322;}
	.st47{fill:#30ABA8;}
	.st48{fill:#1F9695;}
	.st49{fill:#077634;}
	.st50{fill:#004C53;}
	.st51{fill:#0F8FAC;}
</style>
<g>
	<rect x="0.05" y="-0.06" class="st0" width="128" height="128"/>
	<g>
		<defs>
			<rect id="SVGID_1_" x="-4" y="2.17" width="136.64" height="125.83"/>
		</defs>
		<clipPath id="SVGID_00000117637382578111049940000003573586411568699306_">
			<use xlink:href="#SVGID_1_"  style="overflow:visible;"/>
		</clipPath>
		<g style="clip-path:url(#SVGID_00000117637382578111049940000003573586411568699306_);">
			<path class="st2" d="M57.02,87.35c0.83-0.89,2.65,3.53,3.28,5.17c1.17-1.46,2.06-2.6,2.06-2.6s-4.24-8.21-6.62-8.01
				c-2.39,0.21-4.03-0.31-3.47,4c0.56,4.31,2.54,12.62,2.43,13.24c-0.06,0.35,2.33-2.56,4.45-5.2
				C58.14,92.03,56.26,88.16,57.02,87.35"/>
			<path class="st3" d="M42.11,100.02c0,0-5.83-0.31-6.35,0.93c-0.52,1.25-4.37,12.05-4.16,14.23c0.21,2.18,2.81,4.57,3.54,4.57
				C35.87,119.75,42.11,100.02,42.11,100.02"/>
			<path class="st3" d="M56.96,94.42c-0.68-1.13-1.39-2.34-1.68-3.64c-0.56-2.44-1.02-5.48-0.26-7.92c0.11-0.34,0.24-0.64,0.39-0.92
				c-2.2,0.14-3.67-0.13-3.13,3.98c0.56,4.31,2.54,12.62,2.43,13.24c-0.04,0.27,1.35-1.38,2.95-3.35
				C57.44,95.33,57.23,94.87,56.96,94.42"/>
			<path class="st4" d="M57.38,95.03c0,0-9.47-5.43-14.31-2.23c-4.84,3.19-4.83,10.84-7.83,19.79c-2.53,7.54-4.16,13.92-2.81,15.89
				c1.35,1.97,9.67,5.3,11.96,4.99c2.29-0.31,16.02-2.29,17.27-4.88C62.91,125.98,62.09,97.13,57.38,95.03"/>
			<path class="st2" d="M43.54,132.09c0.41-5.25,0.43-10.52,0.82-15.76c0.65-8.93,3.52-16.25,9.46-22.96
				c-3.19-1.27-7.82-2.5-10.75-0.56c-4.84,3.19-4.83,10.84-7.83,19.79c-2.53,7.54-4.16,13.92-2.81,15.89
				c1.2,1.75,7.87,4.56,10.97,4.95C43.45,132.99,43.5,132.54,43.54,132.09"/>
			<path class="st5" d="M43.56,131.78c0-0.02,0-0.04,0-0.06C43.56,131.74,43.56,131.76,43.56,131.78 M43.57,131.7
				c0.02-0.22,0.03-0.44,0.05-0.66l0,0C43.6,131.26,43.58,131.48,43.57,131.7 M43.82,127.3c0.16-3.51,0.25-7.03,0.5-10.53
				c0,0,0,0,0.01,0C44.08,120.27,43.99,123.79,43.82,127.3L43.82,127.3"/>
			<path class="st6" d="M32.43,128.48L32.43,128.48c0,0-0.01-0.01-0.01-0.01C32.43,128.47,32.43,128.47,32.43,128.48L32.43,128.48
				 M32.42,128.46C32.42,128.46,32.42,128.46,32.42,128.46C32.42,128.46,32.42,128.46,32.42,128.46 M32.41,128.45
				C32.41,128.45,32.41,128.44,32.41,128.45C32.41,128.44,32.41,128.45,32.41,128.45 M32.41,128.44
				C32.4,128.43,32.4,128.43,32.41,128.44C32.4,128.43,32.4,128.43,32.41,128.44 M32.4,128.42C32.4,128.42,32.4,128.42,32.4,128.42
				C32.4,128.42,32.4,128.42,32.4,128.42 M32.39,128.41C32.39,128.41,32.39,128.41,32.39,128.41
				C32.39,128.41,32.39,128.41,32.39,128.41 M32.38,128.4C32.38,128.4,32.38,128.4,32.38,128.4C32.38,128.4,32.38,128.4,32.38,128.4
				 M32.38,128.39C32.37,128.39,32.37,128.39,32.38,128.39C32.37,128.39,32.37,128.39,32.38,128.39 M32.37,128.38
				C32.37,128.37,32.37,128.37,32.37,128.38C32.37,128.37,32.37,128.37,32.37,128.38 M32.36,128.36
				C32.36,128.36,32.36,128.36,32.36,128.36C32.36,128.36,32.36,128.36,32.36,128.36 M32.35,128.35
				C32.35,128.35,32.35,128.35,32.35,128.35C32.35,128.35,32.35,128.35,32.35,128.35 M32.35,128.34
				C32.35,128.34,32.35,128.34,32.35,128.34C32.35,128.34,32.35,128.34,32.35,128.34 M32.34,128.33
				C32.34,128.32,32.34,128.32,32.34,128.33C32.34,128.32,32.34,128.32,32.34,128.33 M32.33,128.31L32.33,128.31L32.33,128.31"/>
			<path class="st7" d="M43.4,133.43c-0.05-0.01-0.11-0.01-0.17-0.02c-3.16-0.47-9.62-3.21-10.8-4.93l0,0c0,0-0.01-0.01-0.01-0.01
				c0,0,0,0,0,0c0,0,0,0-0.01-0.01c0,0,0,0,0-0.01c0,0,0,0,0-0.01c0,0,0,0,0-0.01c0,0,0,0,0-0.01c0,0,0-0.01,0-0.01c0,0,0,0,0,0
				c0,0,0-0.01,0-0.01c0,0,0,0,0,0c0,0,0-0.01-0.01-0.01c0,0,0,0,0,0c0,0,0-0.01,0-0.01c0,0,0,0,0,0c0,0,0-0.01,0-0.01c0,0,0,0,0,0
				c0,0,0-0.01-0.01-0.01c0,0,0,0,0,0c0,0,0-0.01-0.01-0.01c0,0,0,0,0,0c0,0,0-0.01-0.01-0.01c0,0,0,0,0,0c0,0,0-0.01-0.01-0.01
				c0,0,0,0,0,0c0,0,0-0.01-0.01-0.01l0,0c-1.12-2.06,0.33-7.91,2.63-14.88c2.05,2.11,4.55,3.52,7.5,3.52c0.6,0,1.22-0.06,1.86-0.18
				c-0.24,3.51-0.33,7.02-0.5,10.53c-0.04,0.01-0.07,0.01-0.11,0.02l-0.25,3.74l0,0c0,0,0.05-0.01,0.15-0.02
				c-0.02,0.22-0.03,0.44-0.05,0.66c0,0.01,0,0.01,0,0.02c0,0.02,0,0.04,0,0.06c-0.01,0.1-0.02,0.21-0.02,0.31
				C43.5,132.54,43.45,132.99,43.4,133.43L43.4,133.43"/>
			<path class="st8" d="M57.89,77.83c0,0,4.67,7.12,1.06,13.97c0,0,10.04,6.61,14.36-0.08c0,0-4.91-3.22-4.72-9.38
				C68.59,82.34,63.65,77.88,57.89,77.83"/>
			<path class="st9" d="M55.79,73.35c0,0-5.2-5.56-7.51-1.77c-2.31,3.79,4.16,9.51,6.47,8.15c2.31-1.36,2.54-2.03,2.54-2.03
				L55.79,73.35"/>
			<path class="st9" d="M78.42,53.34c0,0,1.12,6.75,4.02,11.84c0.71,1.24,2.21,6.01,0.87,10.74c-1.47,5.17-6.01,10.19-10.89,10.19
				c-16.95,0-19.26-11.68-18.33-20.79C55.01,56.2,72.8,44.35,78.42,53.34"/>
			<path class="st10" d="M78.73,54.79c-0.02-0.05-0.04-0.11-0.06-0.16c0-0.02-0.01-0.04-0.01-0.07
				C78.68,54.63,78.71,54.71,78.73,54.79"/>
			<path class="st11" d="M78.67,54.63c-0.03-0.09-0.06-0.17-0.09-0.26c-0.01-0.06-0.02-0.11-0.03-0.16
				c0.04,0.11,0.07,0.23,0.11,0.35C78.67,54.58,78.67,54.6,78.67,54.63"/>
			<path class="st11" d="M71.17,85.6c-10.25,0-13.86-4.85-15.46-10.9c0.54,1.22,3.87,5.7,8.71,8.4c2.05,1.15,6.91,2.16,8.71,2.43
				c-0.2,0.01-0.39,0.03-0.59,0.04C72.06,85.6,71.6,85.6,71.17,85.6"/>
			<polyline class="st10" points="78.82,55.3 78.82,55.3 78.82,55.3 78.82,55.3 			"/>
			<path class="st11" d="M54.99,73.32C55,73.3,55,73.29,55.01,73.28c0,0,0.01-0.01,0.01-0.01c0.01-0.01,0.01-0.02,0.02-0.03
				c0,0,0-0.01,0.01-0.01c0.02-0.03,0.03-0.06,0.05-0.08c0,0,0-0.01,0.01-0.01c0.01-0.01,0.01-0.02,0.02-0.03c0,0,0,0,0-0.01
				c0.02-0.03,0.03-0.06,0.05-0.09c0,0,0,0,0-0.01c0.01-0.01,0.01-0.03,0.02-0.04c0,0,0,0,0,0c0.02-0.03,0.03-0.06,0.05-0.09
				c0,0,0,0,0,0c2.16-4,2.66-7.72,2.64-10.38c0,0,0,0,0,0c0-0.01,0-0.02,0-0.03c-0.02-1.8-0.27-3.11-0.4-3.68
				c0.16,0,0.32-0.01,0.48-0.02c0,0,0.57,0.03,1.54,0.03c3.75,0,13.46-0.44,18.97-4.7c0.03,0.1,0.07,0.2,0.11,0.3
				c0.06,0.27,0.14,0.59,0.24,0.93l0,0c-0.2,0.31-0.87,0.68-1.94,1.27c-4.71,2.61-9.98,4.03-15.36,4.29
				c-0.55,0.03-1.1,0.05-1.65,0.06C59.87,60.93,58.03,72.02,54.99,73.32 M78.55,54.21c-0.02-0.05-0.03-0.1-0.05-0.15
				c0.01-0.01,0.01-0.01,0.02-0.01C78.53,54.09,78.54,54.15,78.55,54.21"/>
			<path class="st12" d="M78.58,54.37c-0.04-0.1-0.07-0.2-0.11-0.3c0.01-0.01,0.02-0.01,0.03-0.02c0.02,0.05,0.03,0.1,0.05,0.15
				C78.56,54.26,78.57,54.32,78.58,54.37"/>
			<path class="st11" d="M54.99,73.32c-0.05-0.07-0.11-0.15-0.16-0.25C54.92,73.21,54.98,73.3,54.99,73.32
				C54.99,73.32,54.99,73.32,54.99,73.32"/>
			<path class="st13" d="M78.37,73.08c0,0-4.14,3.23-11.59,2.31c0,0,2.35,5.66,7.9,4.08C79.47,78.11,78.37,73.08,78.37,73.08
				L78.37,73.08z"/>
			<path class="st14" d="M74.39,77.17c-3.5,0.93-6.07-0.18-6.87-1.7c5.23,0.47,8.71-1.11,10.13-1.93
				C77.56,74.54,76.17,76.69,74.39,77.17L74.39,77.17z"/>
			<path class="st15" d="M74.14,77.56c0.99,0.01,1.94,0.27,2.86,0.63c-0.55,0.54-1.3,1-2.33,1.29c-1.57,0.45-2.88,0.31-3.96-0.11
				C71.47,78.27,72.95,77.55,74.14,77.56L74.14,77.56z"/>
			<path class="st16" d="M57.4,58.44c0,0,2.1,6.97-2.41,14.88c0,0-2.1-3.7-5.93-2.36c0,0-10.64-12.35,1.1-18.64
				C50.16,52.33,54.78,58.47,57.4,58.44"/>
			<path class="st17" d="M49.06,70.96L49.06,70.96L49.06,70.96c0.59-0.21,1.13-0.29,1.63-0.29C50.19,70.67,49.65,70.76,49.06,70.96
				 M50.71,70.67C50.7,70.67,50.7,70.67,50.71,70.67L50.71,70.67C50.7,70.67,50.7,70.67,50.71,70.67"/>
			<path class="st18" d="M54.99,73.32C55,73.3,55,73.29,55.01,73.28C55,73.29,55,73.3,54.99,73.32L54.99,73.32 M55.02,73.26
				c0.01-0.01,0.01-0.02,0.02-0.03C55.03,73.24,55.02,73.25,55.02,73.26 M55.04,73.22c0.02-0.03,0.03-0.05,0.05-0.08
				C55.07,73.17,55.06,73.19,55.04,73.22 M55.1,73.13c0.01-0.01,0.01-0.02,0.02-0.03C55.11,73.1,55.1,73.12,55.1,73.13 M55.12,73.08
				c0.02-0.03,0.03-0.06,0.05-0.09C55.15,73.03,55.14,73.06,55.12,73.08 M55.17,72.99c0.01-0.01,0.01-0.03,0.02-0.04
				C55.19,72.96,55.18,72.98,55.17,72.99 M55.2,72.95c0.02-0.03,0.03-0.06,0.05-0.09C55.23,72.89,55.21,72.92,55.2,72.95
				 M55.25,72.85c2.16-4,2.66-7.72,2.64-10.38C57.91,65.14,57.41,68.86,55.25,72.85 M57.89,62.47c0-0.01,0-0.02,0-0.03
				C57.89,62.45,57.89,62.46,57.89,62.47"/>
			<path class="st19" d="M54.99,73.32C54.99,73.32,54.99,73.32,54.99,73.32c-0.05-0.09-1.55-2.65-4.28-2.65c0,0,0,0-0.01,0l0,0l0,0
				c0,0,0,0,0,0c-0.5,0-1.05,0.09-1.63,0.29l0,0c0,0-2.83-3.3-3.96-7.35c0.58,0.5,1.23,0.92,1.9,1.16c0.45,0.16,0.83,0.25,1.21,0.25
				c0.34,0,0.67-0.07,1.07-0.22c0.82-0.32,1.4-1.4,2.32-1.4c0.15,0,0.32,0.03,0.49,0.1c0.73,0.28,1.37,0.51,1.98,0.51
				c0.6,0,1.17-0.21,1.77-0.8c0.64-0.62,0.9-1.72,1.27-2.5c0.16-0.34,0.34-0.67,0.54-1.01c0.11,0.68,0.21,1.61,0.22,2.74
				c0,0.01,0,0.02,0,0.03c0,0,0,0,0,0c0.02,2.66-0.48,6.38-2.64,10.38c0,0,0,0,0,0c-0.02,0.03-0.03,0.06-0.05,0.09c0,0,0,0,0,0
				c-0.01,0.01-0.01,0.03-0.02,0.04c0,0,0,0,0,0.01c-0.02,0.03-0.03,0.06-0.05,0.09c0,0,0,0.01,0,0.01
				c-0.01,0.01-0.01,0.02-0.02,0.03c0,0,0,0.01-0.01,0.01c-0.02,0.03-0.03,0.06-0.05,0.08c0,0,0,0.01-0.01,0.01
				c-0.01,0.01-0.01,0.02-0.02,0.03c0,0,0,0.01-0.01,0.01C55,73.29,55,73.3,54.99,73.32L54.99,73.32"/>
			<path class="st20" d="M60.11,64.21c0.33-1.36,3.03-3.47,5.23-2.58c2.73,1.1,0.47,2.04-0.94,2.03c-0.71,0-2.08,0.64-2.9,1.37
				C60.11,66.28,59.88,65.13,60.11,64.21L60.11,64.21z"/>
			<path class="st20" d="M77.22,58.67c-0.95-0.92-4.17-1.27-5.49,0.55c-1.64,2.25,0.65,1.88,1.78,1.16
				c0.57-0.36,1.99-0.53,3.02-0.35C78.25,60.33,77.86,59.29,77.22,58.67L77.22,58.67z"/>
			<path class="st21" d="M49.64,73.11c0,0,2.27-1.23,3.92,0.58c0.64,0.77,1.02,1.54,1.11,2.18c0.13,0.96-0.65,2.02-1.63,1.75
				c-1.96-0.55-0.38-2.08-0.82-2.76C52,74.51,51.39,73.37,49.64,73.11L49.64,73.11z"/>
			<path class="st14" d="M62.92,69.13c0.47,1.62,2.28,2.52,4.05,2.01c1.76-0.51,2.81-2.24,2.34-3.86c-0.47-1.62-2.28-2.52-4.04-2.01
				C63.5,65.79,62.45,67.51,62.92,69.13L62.92,69.13z"/>
			<path class="st22" d="M63.85,68.82c0.37,1.27,1.62,2.03,2.79,1.69c1.17-0.34,1.82-1.65,1.45-2.92c-0.37-1.27-1.62-2.03-2.79-1.69
				C64.12,66.24,63.47,67.55,63.85,68.82L63.85,68.82z"/>
			<path class="st20" d="M64.88,68.21c0,0.66,0.49,1.2,1.09,1.2c0.6,0,1.09-0.54,1.09-1.2c0-0.67-0.49-1.2-1.09-1.2
				C65.36,67.01,64.88,67.54,64.88,68.21L64.88,68.21z"/>
			<path class="st20" d="M65.26,65.27c1.76-0.51,3.57,0.39,4.04,2.01c0.04,0.14,0.06,0.27,0.08,0.41c-0.66-1.31-2.27-1.99-3.85-1.53
				c-1.61,0.47-2.62,1.96-2.42,3.45c-0.08-0.15-0.14-0.31-0.19-0.48C62.45,67.51,63.5,65.79,65.26,65.27L65.26,65.27z"/>
			<path class="st14" d="M64.34,67.84c0,0.24,0.19,0.44,0.42,0.44c0.23,0,0.42-0.2,0.42-0.44c0-0.24-0.19-0.44-0.42-0.44
				C64.53,67.4,64.34,67.59,64.34,67.84L64.34,67.84z"/>
			<path class="st14" d="M73.22,65.76c0.47,1.62,2.28,2.52,4.04,2.01c1.76-0.51,2.81-2.24,2.34-3.86c-0.47-1.62-2.28-2.52-4.05-2.01
				C73.79,62.41,72.74,64.14,73.22,65.76L73.22,65.76z"/>
			<path class="st22" d="M74.1,65.79c0.37,1.27,1.62,2.03,2.79,1.69c1.17-0.34,1.82-1.65,1.45-2.92c-0.37-1.27-1.62-2.03-2.79-1.69
				C74.38,63.21,73.73,64.52,74.1,65.79L74.1,65.79z"/>
			<path class="st20" d="M75.13,65.18c0,0.66,0.49,1.2,1.09,1.2c0.6,0,1.09-0.54,1.09-1.2c0-0.66-0.49-1.2-1.09-1.2
				C75.61,63.97,75.13,64.51,75.13,65.18L75.13,65.18z"/>
			<path class="st20" d="M75.55,61.9c1.76-0.51,3.57,0.39,4.05,2.01c0.04,0.14,0.06,0.27,0.08,0.41c-0.66-1.31-2.27-1.99-3.85-1.53
				c-1.61,0.47-2.62,1.96-2.42,3.45c-0.08-0.15-0.14-0.31-0.19-0.48C72.74,64.14,73.79,62.41,75.55,61.9L75.55,61.9z"/>
			<path class="st14" d="M74.65,64.84c0,0.24,0.19,0.44,0.42,0.44c0.23,0,0.42-0.2,0.42-0.44c0-0.24-0.19-0.44-0.42-0.44
				C74.84,64.4,74.65,64.59,74.65,64.84L74.65,64.84z"/>
			<path class="st23" d="M72.89,73.18c-0.26,0-0.49-0.2-0.51-0.47c-0.02-0.28,0.18-0.53,0.47-0.56c0.64-0.06,1.23-0.66,1.29-1.12
				c0.01-0.11,0.05-0.4-0.5-0.59c-2.04-0.72-2.17-2.48-2.17-2.55c-0.02-0.28,0.2-0.53,0.48-0.55c0.28-0.02,0.53,0.2,0.55,0.48
				c0,0.06,0.12,1.16,1.49,1.65c0.84,0.3,1.28,0.93,1.18,1.69c-0.13,1-1.14,1.93-2.22,2.02L72.89,73.18L72.89,73.18z"/>
			<path class="st16" d="M82.43,45.54c0,0-3.55,2.08-6.66,1.86c0,0,2.44-2.81,0.68-10.1c0,0-6.19,3.64-11.62,5.09
				c1.33-1.35,0.77-3.33,0.77-3.33c-0.01,0.77-0.8,1.42-1.81,2.04c-1.73,1.07-3.64,1.81-5.63,2.22
				c-5.84,1.21-13.25,5.38-10.79,10.96c0,0,2.63,4.83,10.59,4.47C57.96,58.75,83.16,60.03,82.43,45.54"/>
			<path class="st24" d="M60.37,53.55c0.73-0.15,1.46-0.18,2.16-0.45c0.94-0.36,2.67-0.98,3.58-1.4c-0.73-0.2-1.29-0.55-1.31-1.01
				c-0.03-0.53,0.96-1.88-0.55-1.83c-0.69,0.02-1.37,0.08-2.06,0.11c-0.76,0.03-1.2-0.74-0.89-1.36c0.11-0.22,1.35-2.28,0.96-2.32
				c-0.65-0.07-1.26,0.04-1.9,0.01c-0.66-0.03-1.51-0.1-2.02-0.57c-0.16-0.15-0.31-0.32-0.43-0.5c-2.05,0.43-4.27,1.23-6.12,2.32
				c0.42,0.07,0.83,0.14,1.23,0.25c0.98,0.27,2.72,0.25,3.34,1.19c0.58,0.87-0.13,1.98-0.55,2.73c-0.55,0.99,2.6,0.8,3.29,1.16
				C59.8,52.24,60.37,52.76,60.37,53.55L60.37,53.55z"/>
			<path class="st18" d="M59.5,58.78c-0.97,0-1.54-0.03-1.54-0.03c-0.16,0.01-0.32,0.01-0.48,0.02l0,0c0.16,0,0.32-0.01,0.48-0.02
				C57.96,58.75,58.53,58.78,59.5,58.78c3.75,0,13.46-0.44,18.97-4.7l0,0C72.96,58.34,63.25,58.78,59.5,58.78"/>
			<path class="st19" d="M57.12,58.77c-2.22,0-4-0.42-5.39-1C53.13,58.35,54.9,58.77,57.12,58.77c0.12,0,0.24,0,0.36,0l0,0
				C57.36,58.77,57.24,58.77,57.12,58.77 M51.73,57.77c-0.02-0.01-0.03-0.01-0.05-0.02C51.7,57.76,51.72,57.77,51.73,57.77
				 M51.68,57.75C51.67,57.75,51.67,57.75,51.68,57.75C51.67,57.75,51.67,57.75,51.68,57.75"/>
			<path class="st25" d="M76.24,47.41c-0.08,0-0.16,0-0.25,0c0,0,0,0,0-0.01C76.08,47.4,76.16,47.41,76.24,47.41
				c2.98-0.01,6.17-1.87,6.18-1.87C82.42,45.55,79.22,47.41,76.24,47.41"/>
			<path class="st19" d="M59.5,58.78c-0.97,0-1.54-0.03-1.54-0.03c-0.16,0.01-0.32,0.01-0.48,0.02c-0.12,0-0.24,0-0.36,0
				c-2.22,0-4-0.42-5.39-1c0,0,0,0,0,0c-0.02-0.01-0.03-0.01-0.05-0.02c0,0-0.01,0-0.01,0c0,0-0.01,0-0.01,0
				c-1.58-0.67-2.66-1.55-3.34-2.26c1.41,0.34,2.9,0.49,4.41,0.49c3.88,0,7.94-0.96,11.26-2.03c0.85,0.14,1.88,0.24,3.04,0.24
				c1.23,0,2.61-0.12,4.12-0.42c0,0-2.28-0.32-4.21-0.81c1.61-0.56,3.3-1.22,4.83-2.03c0.47,0.1,1.06,0.18,1.76,0.18
				c0.93,0,2.05-0.15,3.28-0.59c0,0-0.47,0.04-1.14,0.04c-0.8,0-1.88-0.06-2.73-0.32c0.68-0.43,1.31-0.9,1.85-1.42
				c0.44-0.43,0.84-0.91,1.2-1.42c0.08,0,0.16,0,0.25,0c2.98,0,6.17-1.87,6.18-1.87l0,0c0.01,0.2,0.02,0.41,0.02,0.6
				c0,3.53-1.58,6.07-3.94,7.91c-0.01,0.01-0.02,0.01-0.03,0.02C72.96,58.34,63.25,58.78,59.5,58.78"/>
			<path class="st26" d="M74.37,91.12c0,0,7.81,4.37,10.25,12.86c2.44,8.49,4.2,11.35,4.2,11.35s1.87,5.55-5.82,7.52
				C75.3,124.83,76.45,97.2,74.37,91.12"/>
			<path class="st26" d="M59.02,91.12c0,0-4.67,4.26-6.48,5.71c0,0,0.27,32.35,1.27,37.03c0,0,16.12,3.84,29.15-1.92
				c0,0-0.29-10.28-1.27-18.31c-0.99-8.02-4.62-19.81-7.33-22.51c0,0-2.35-1.12-3.42-1.7c0,0,0.26,3.62-4.12,4.19
				C62.45,94.18,59.02,91.12,59.02,91.12"/>
			<path class="st27" d="M61.92,127.45c-0.46-0.45-0.9-0.94-1.31-1.47c1.32-0.67,2.62-1.42,3.86-2.27c1.34-0.76,2.39-1.47,3.08-1.98
				C66.33,123.96,64.03,125.63,61.92,127.45 M64.38,116.93c-0.01-0.24-0.04-0.48-0.08-0.73c-0.58-3.86-2.28-7.76-3.87-11.3
				c-0.98-2.19-2.21-4.27-3.19-6.46c-0.47-1.04-0.89-2.03-1.36-2.99c1.72,2.52,6.48,9.58,9.52,15.07c-0.28,0.29-0.39,0.81-0.15,1.52
				c0.85,2.48,1.02,3.39,0.72,4.14c0,0,0,0,0,0c-0.04,0.1-0.09,0.19-0.14,0.29l-0.05-0.08C65.79,116.39,65.24,116.61,64.38,116.93"
				/>
			<path class="st28" d="M82.83,128.33L82.83,128.33c-0.06-1.37-0.15-3.04-0.26-4.86l0,0C82.68,125.29,82.77,126.96,82.83,128.33
				 M74.37,91.12L74.37,91.12L74.37,91.12 M74.37,91.12C74.37,91.12,74.37,91.12,74.37,91.12C74.37,91.12,74.37,91.12,74.37,91.12
				 M74.37,91.12L74.37,91.12L74.37,91.12 M74.36,91.12L74.36,91.12L74.36,91.12 M74.36,91.12C74.36,91.12,74.36,91.12,74.36,91.12
				S74.36,91.12,74.36,91.12 M74.35,91.11L74.35,91.11L74.35,91.11"/>
			<path class="st29" d="M77,95.75L77,95.75c-0.6-1.43-1.2-2.65-1.78-3.54c0,0,0,0,0,0C75.8,93.1,76.4,94.32,77,95.75 M74.42,91.17
				L74.42,91.17c-0.01-0.01-0.02-0.02-0.03-0.03C74.4,91.15,74.41,91.16,74.42,91.17"/>
			<path class="st29" d="M82.83,128.33c-0.44-0.07-0.88-0.14-1.31-0.21c-2.75-2.7-3.03-7.49-3.07-11.06
				c-0.05-4.69-1.69-8.52-2.78-13c-0.59-2.41-0.62-4.93-0.98-7.37c-0.12-0.79-0.31-1.58-0.54-2.36c1.78,3.55,4.02,9.14,5.55,16.96
				c0.69,3.55,1.89,7.92,2.42,9.75l0.46,2.42l-0.23-3.24l0,0l0.23,3.24l0,0C82.68,125.29,82.77,126.96,82.83,128.33 M77,95.75
				c-0.72-1.52-1.36-2.77-1.78-3.54C75.8,93.1,76.4,94.32,77,95.75 M74.42,91.17c-0.06-0.04-0.12-0.07-0.18-0.11
				c0.05,0.02,0.09,0.04,0.11,0.05v0c0.01,0,0.01,0,0.01,0.01c0,0,0,0,0,0c0,0,0,0,0,0v0c0,0,0,0,0,0h0l0,0c0,0,0,0,0,0h0l0,0
				c0,0,0,0,0,0c0.01,0.01,0.01,0.01,0.02,0.02C74.4,91.15,74.41,91.16,74.42,91.17"/>
			<path class="st28" d="M53.82,133.86C53.82,133.86,53.82,133.86,53.82,133.86L53.82,133.86L53.82,133.86
				C53.82,133.86,53.82,133.86,53.82,133.86 M53.81,133.85C53.81,133.85,53.81,133.85,53.81,133.85
				C53.81,133.85,53.81,133.85,53.81,133.85 M53.81,133.84L53.81,133.84L53.81,133.84 M53.8,133.8L53.8,133.8
				C53.8,133.8,53.8,133.8,53.8,133.8 M53.8,133.79C53.8,133.79,53.8,133.79,53.8,133.79C53.8,133.79,53.8,133.79,53.8,133.79
				 M53.8,133.78C53.8,133.78,53.8,133.77,53.8,133.78C53.8,133.77,53.8,133.78,53.8,133.78 M53.79,133.75
				C53.79,133.75,53.79,133.75,53.79,133.75C53.79,133.75,53.79,133.75,53.79,133.75 M53.79,133.74
				C53.79,133.74,53.79,133.74,53.79,133.74C53.79,133.74,53.79,133.74,53.79,133.74 M53.79,133.72
				C53.79,133.72,53.79,133.72,53.79,133.72C53.79,133.72,53.79,133.72,53.79,133.72 M53.78,133.7
				C53.78,133.7,53.78,133.7,53.78,133.7C53.78,133.7,53.78,133.7,53.78,133.7 M53.78,133.68
				C53.78,133.68,53.78,133.68,53.78,133.68C53.78,133.68,53.78,133.68,53.78,133.68 M53.78,133.67
				C53.78,133.67,53.78,133.67,53.78,133.67C53.78,133.67,53.78,133.67,53.78,133.67 M53.78,133.66
				C53.78,133.65,53.78,133.65,53.78,133.66C53.78,133.65,53.78,133.65,53.78,133.66 M53.77,133.64
				C53.77,133.64,53.77,133.64,53.77,133.64C53.77,133.64,53.77,133.64,53.77,133.64 M53.77,133.63
				C53.77,133.63,53.77,133.62,53.77,133.63C53.77,133.63,53.77,133.63,53.77,133.63 M53.77,133.62
				C53.77,133.61,53.77,133.61,53.77,133.62C53.77,133.61,53.77,133.61,53.77,133.62 M53.77,133.6
				C53.77,133.6,53.77,133.6,53.77,133.6C53.77,133.6,53.77,133.6,53.77,133.6 M53.76,133.59
				C53.76,133.59,53.76,133.58,53.76,133.59C53.76,133.58,53.76,133.59,53.76,133.59 M53.76,133.57c0-0.01,0-0.02,0-0.02
				C53.76,133.56,53.76,133.56,53.76,133.57 M53.76,133.55c0,0,0-0.01,0-0.01C53.76,133.54,53.76,133.54,53.76,133.55 M53.76,133.53
				c0,0,0-0.01,0-0.01C53.75,133.52,53.75,133.53,53.76,133.53 M53.75,133.51c-0.07-0.42-0.14-0.99-0.2-1.66l0,0
				C53.62,132.53,53.68,133.09,53.75,133.51"/>
			<path class="st30" d="M53.55,131.85c-0.08-0.82-0.15-1.82-0.21-2.94l0,0C53.41,130.03,53.48,131.02,53.55,131.85L53.55,131.85"/>
			<path class="st29" d="M66.02,135.12c-6.9,0-12.14-1.24-12.2-1.25c0,0,0,0,0,0l0,0c0,0,0-0.01,0-0.01c0,0,0,0,0,0
				c0,0,0-0.01,0-0.01v0c0-0.01-0.01-0.02-0.01-0.04c0,0,0,0,0,0c0,0,0-0.01,0-0.01c0,0,0,0,0,0c0,0,0-0.01,0-0.01c0,0,0,0,0,0
				c0-0.01,0-0.02,0-0.02c0,0,0,0,0,0c0,0,0-0.01,0-0.01c0,0,0,0,0,0c0,0,0-0.01,0-0.01c0,0,0,0,0,0c0-0.01,0-0.01,0-0.02
				c0,0,0,0,0,0c0,0,0-0.01,0-0.01c0,0,0,0,0,0c0,0,0-0.01,0-0.01c0,0,0,0,0,0c0,0,0-0.01,0-0.01c0,0,0,0,0,0c0,0,0-0.01,0-0.01
				c0,0,0,0,0,0c0,0,0-0.01,0-0.01c0,0,0,0,0-0.01c0,0,0,0,0-0.01c0,0,0-0.01,0-0.01c0,0,0,0,0-0.01c0,0,0-0.01,0-0.01
				c0,0,0,0,0-0.01c0,0,0-0.01,0-0.01c0,0,0,0,0-0.01c0-0.01,0-0.02,0-0.02c0,0,0,0,0,0c0,0,0-0.01,0-0.01c0,0,0,0,0,0
				c0,0,0-0.01,0-0.01c0,0,0,0,0,0c-0.07-0.42-0.14-0.99-0.2-1.66c-0.08-0.82-0.15-1.82-0.21-2.94l0,0
				c0.13,2.17,0.27,3.85,0.44,4.76c2.29-2.03,5.01-3.38,7.41-5.57c0.24-0.22,0.49-0.44,0.73-0.65c3.64,3.57,8.56,4.82,10.65,5.06
				c2.29,0.26,4.55,0.5,6.8,0.77C74.83,134.68,70.13,135.12,66.02,135.12 M53.82,120.06c-0.33,0-0.56-0.06-0.64-0.19
				c-0.5-0.76,1.14-4.74,2.34-7.41c0.85-1.89,1.28-3.95,1.23-6.02c-0.05-2.13-0.27-3.79-0.6-5.08c1.37,2.08,2.68,3.98,2.7,6.87
				c0.03,3.53-1.58,7.02-1.15,10.55c0.02,0.15,0.04,0.3,0.06,0.44C56.12,119.7,54.64,120.06,53.82,120.06"/>
			<path class="st31" d="M53.78,133.67c-0.17-0.91-0.31-2.59-0.44-4.76c2.32-0.72,4.82-1.68,7.27-2.92
				c0.41,0.53,0.85,1.02,1.31,1.47c-0.25,0.21-0.49,0.43-0.73,0.65C58.79,130.28,56.07,131.64,53.78,133.67"/>
			<path class="st2" d="M55.24,94.52c0,0,10.05,14.45,12.37,20.52c0.93,2.41-7.76,9.4-23.89,12.28l-0.25,3.74
				c0,0,17.66-1.77,26.25-12c1.66-1.98,1.27-4.99,0.07-7.27c-2.9-5.51-8.97-16.5-12.49-19.1L55.24,94.52"/>
			<path class="st7" d="M43.47,131.06l0.25-3.74c1.02-0.18,2.01-0.38,2.97-0.6c0.73,0.64,1.68,1.03,2.72,1.04l0,0
				c0.09,0,0.19,0,0.28,0c0.02,0,0.03,0,0.05,0h0c1.1,0,2.17-0.07,3.2-0.19h0c0.1-0.01,0.2-0.02,0.3-0.04c0,0,0,0,0,0
				c0.01,0,0.03,0,0.04-0.01h0c0.01,0,0.03,0,0.04-0.01c0,0,0,0,0.01,0c0.01,0,0.02,0,0.04-0.01c0,0,0,0,0,0
				c0.01,0,0.03,0,0.04-0.01c0,0,0,0,0,0c0.01,0,0.02,0,0.04-0.01c0,0,0,0,0.01,0c0.01,0,0.03,0,0.04-0.01c0,0,0,0,0,0
				c0.01,0,0.02,0,0.04,0c0,0,0.01,0,0.01,0c0.01,0,0.02,0,0.04-0.01c0,0,0,0,0,0c0.01,0,0.02,0,0.04-0.01c0,0,0.01,0,0.01,0
				c0.01,0,0.02,0,0.03,0c0,0,0,0,0,0c0.01,0,0.03,0,0.04-0.01c0,0,0.01,0,0.01,0c0.01,0,0.02,0,0.03,0c0,0,0.01,0,0.01,0
				c0.01,0,0.02,0,0.03-0.01c0,0,0.01,0,0.01,0c0.01,0,0.02,0,0.03,0c0,0,0.01,0,0.01,0c0.01,0,0.02,0,0.03,0c0.01,0,0.02,0,0.02,0
				c0.01,0,0.02,0,0.02,0c0.01,0,0.01,0,0.02,0c0.01,0,0.01,0,0.02,0c0.01,0,0.02,0,0.03,0c0.01,0,0.01,0,0.02,0
				c0.01,0,0.01,0,0.02,0c0.01,0,0.01,0,0.02,0c0.02,0,0.05-0.01,0.07-0.01c0.01,0,0.01,0,0.02,0c0.01,0,0.01,0,0.02,0
				c0,0,0.01,0,0.01,0c0.02,0,0.03,0,0.04-0.01c0,0,0.01,0,0.01,0c0.01,0,0.02,0,0.02,0c0,0,0,0,0.01,0c0.03,0,0.05-0.01,0.08-0.01
				c0,0,0,0,0.01,0c0.03,0,0.05-0.01,0.08-0.01c0,0,0,0,0.01,0c0.03,0,0.06-0.01,0.08-0.01l0,0c2.31-0.41,4.4-1.07,6.22-1.81l0,0
				c0.01,0,0.02-0.01,0.02-0.01h0c0.01-0.01,0.02-0.01,0.04-0.02c0,0,0.01,0,0.01-0.01c0.01,0,0.01,0,0.02-0.01
				c0.01,0,0.01,0,0.02-0.01c0,0,0.01,0,0.01,0c0.01,0,0.02-0.01,0.03-0.01c0,0,0.01,0,0.01,0c0.01,0,0.02-0.01,0.02-0.01
				c0,0,0,0,0,0c0.01,0,0.02-0.01,0.03-0.01c0,0,0.01,0,0.01,0c0.01,0,0.02-0.01,0.02-0.01c0,0,0,0,0,0
				c0.02-0.01,0.04-0.02,0.06-0.03c0,0,0,0,0,0c1.29-0.54,2.45-1.13,3.44-1.68c-1.24,0.85-2.55,1.6-3.86,2.27
				c-2.45,1.24-4.96,2.2-7.27,2.92l0,0l0,0C47.87,130.62,43.47,131.06,43.47,131.06 M68.19,114.18c-0.47,0-0.46-1.02-0.87-2.7
				c-0.05-0.21-0.13-0.4-0.22-0.56c0.68-0.3,1.15-0.77,1.47-1.34c0.15,0.29,0.32,0.59,0.49,0.87c0,0,0.95,2.45-0.22,3.39
				C68.55,114.07,68.34,114.18,68.19,114.18"/>
			<path class="st2" d="M71.28,89.6c0,0,5.5,6.8,8.4,21.7c0.91,4.67,2.71,10.79,2.69,10.62c-0.2-1.88,0.28-7.42-0.68-13.05
				c-1.14-6.71-6.7-17.32-6.99-17.52C74.02,90.9,72.48,89.96,71.28,89.6"/>
			<polyline class="st32" points="80.16,98.39 81.07,102.18 84.87,101.87 83.57,97.87 80.16,98.39 			"/>
			<polyline class="st33" points="84.78,101.58 83.57,97.87 83.57,97.87 83.57,97.87 84.78,101.58 84.78,101.58 			"/>
			<path class="st34" d="M84.27,101.92c-0.19-0.63-0.39-1.27-0.55-1.94c-0.18-0.73-0.35-1.4-0.56-2.03l0.41-0.08l0,0l1.21,3.71
				l0.02,0.29L84.27,101.92"/>
			<path class="st35" d="M81.07,102.18l1.49,21.29c0,0,4.02,0,3.92,0c-0.1,0-1.61-21.6-1.61-21.6L81.07,102.18"/>
			<path class="st36" d="M85.29,121.31c-0.6-0.06-1.2-0.2-1.75-0.44c-0.43-0.18-0.83-0.5-1.23-0.87l-0.05-0.77l-0.6-8.61
				c0.27,0.05,0.55,0.08,0.84,0.08c0.34,0,0.69-0.04,1.06-0.11c0.4-0.09,0.8-0.22,1.18-0.39l0.02,0.4
				c-0.41,0.03-0.78,0.08-1.07,0.16c0,0,0,0,0,0c0,0-0.01,0-0.01,0c0,0,0,0,0,0c0,0-0.01,0-0.01,0c0,0,0,0,0,0
				c-0.01,0-0.02,0.01-0.02,0.01c0,0,0,0,0,0c-0.01,0-0.02,0-0.02,0.01c0,0,0,0,0,0c0,0-0.01,0-0.01,0c0,0,0,0,0,0
				c0,0-0.01,0-0.01,0c0,0,0,0,0,0c0,0-0.01,0-0.01,0l0,0c0,0-0.01,0-0.01,0c0,0,0,0,0,0c0,0-0.01,0-0.01,0
				c-0.32,0.11-0.55,0.38-0.55,0.69c0,0.21,0.1,0.44,0.35,0.67l0,0c0,0,0.01,0.01,0.01,0.01c0,0,0,0,0,0c0,0,0.01,0.01,0.01,0.01
				c0,0,0,0,0,0c0,0,0.01,0.01,0.01,0.01c0,0,0,0,0.01,0c0,0,0.01,0.01,0.01,0.01c0,0,0,0,0.01,0.01c0,0,0,0,0.01,0.01
				c0,0,0.01,0.01,0.01,0.01c0,0,0,0,0.01,0.01c0,0,0.01,0,0.01,0.01c0,0,0,0,0.01,0.01c0,0,0,0,0.01,0.01c0,0,0.01,0,0.01,0.01
				c0,0,0,0,0.01,0.01c0,0,0,0,0.01,0c0,0,0.01,0.01,0.01,0.01c0,0,0,0,0.01,0c0,0,0.01,0,0.01,0.01c0,0,0,0,0.01,0.01
				c0,0,0,0,0.01,0c0,0,0.01,0.01,0.01,0.01c0,0,0,0,0.01,0c0,0,0.01,0.01,0.01,0.01c0,0,0,0,0,0c0,0,0.01,0.01,0.01,0.01
				c0,0,0,0,0,0c0,0,0.01,0.01,0.01,0.01c0,0,0,0,0,0c0,0,0.01,0.01,0.02,0.01l0,0c0.35,0.24,0.8,0.39,1.27,0.48l0.03,0.65
				c-0.47,0.11-0.91,0.22-1.28,0.3c-0.18,0.04-0.33,0.07-0.47,0.1l0,0c0,0-0.01,0-0.01,0c-0.02,0-0.03,0.01-0.05,0.01
				c-0.32,0.08-0.49,0.3-0.49,0.58c0,0.33,0.26,0.73,0.87,1.01l0,0l0,0c0.23,0.1,0.52,0.15,0.86,0.15c0.21,0,0.43-0.02,0.68-0.04
				l0.02,0.38c-0.34,0.1-0.65,0.19-0.9,0.26c-0.01,0-0.02,0.01-0.03,0.01h0c-0.01,0-0.01,0-0.02,0.01c0,0,0,0,0,0
				c-0.1,0.03-0.2,0.06-0.27,0.09c0,0,0,0,0,0c0,0,0,0,0,0h0c0,0,0,0-0.01,0c0,0,0,0,0,0c0,0,0,0,0,0c0,0-0.01,0-0.01,0
				c-0.01,0-0.01,0-0.02,0.01c-0.01,0-0.01,0.01-0.02,0.01c0,0,0,0,0,0c-0.05,0.02-0.1,0.05-0.15,0.09c-0.41,0.36-0.27,1.3,1.35,1.3
				c0.06,0,0.11,0,0.17,0l0.03,0.55c-0.39,0.2-0.38,0.66,0.05,0.99L85.29,121.31"/>
			<path class="st37" d="M85.4,123.47l-0.11-2.16c0.22,0.02,0.44,0.03,0.66,0.03c0.02,0,0.04,0,0.06,0
				c0.05-0.02,0.11-0.04,0.16-0.07l0.06,0.89l0,0l0.09,1.3c-0.06,0-0.14,0-0.25,0C85.91,123.47,85.69,123.47,85.4,123.47
				 M84.74,110.2l-0.41-8.28l0.46-0.04l0.57,8C85.16,109.99,84.96,110.1,84.74,110.2"/>
			<path class="st38" d="M85.95,121.34c-0.22,0-0.44-0.01-0.66-0.03l-0.1-2.04c0.2,0.15,0.48,0.27,0.86,0.33l0.12,1.68
				c-0.05,0.02-0.11,0.05-0.16,0.07C85.99,121.34,85.97,121.34,85.95,121.34 M85.14,118.28l-0.03-0.55c0.24-0.01,0.5-0.04,0.8-0.09
				l0.02,0.32c-0.31,0.13-0.56,0.23-0.68,0.27l0,0c0,0,0,0,0,0l0,0C85.21,118.24,85.18,118.26,85.14,118.28 M85.03,115.94
				l-0.02-0.38c0.23-0.03,0.48-0.06,0.75-0.1l0.02,0.27C85.52,115.81,85.27,115.88,85.03,115.94 M84.91,113.46l-0.03-0.65
				c0.23,0.04,0.47,0.07,0.7,0.09l0.03,0.38C85.37,113.35,85.14,113.41,84.91,113.46 M84.76,110.59l-0.02-0.4
				c0.21-0.1,0.42-0.2,0.62-0.32l0.05,0.68C85.19,110.57,84.97,110.58,84.76,110.59"/>
			<polyline class="st39" points="80.16,98.39 82.11,121.05 82.57,123.47 81.07,102.18 80.16,98.39 			"/>
			<polygon class="st32" points="83.31,97.65 84.78,101.58 88.74,101.01 86.87,97.22 83.31,97.65 			"/>
			<path class="st40" d="M84.78,101.58l1.56,22l3.94-0.63c-0.11,0-1.54-21.94-1.54-21.94L84.78,101.58"/>
			<polyline class="st41" points="86.24,122.16 86.17,121.28 86.17,121.28 86.24,122.16 86.24,122.16 			"/>
			<polyline class="st42" points="86.17,121.28 86.05,119.6 86.05,119.6 86.17,121.28 86.17,121.28 			"/>
			<path class="st43" d="M86.24,122.16l-0.06-0.89l-0.12-1.68c0.04,0.01,0.08,0.01,0.12,0.01c0.07,0.01,0.15,0.01,0.24,0.01l0,0l0,0
				c0.85,0,2.44-0.35,3.51-1.08c0.04,0.63,0.09,1.22,0.13,1.74c-0.48,0.49-0.99,0.93-1.58,1.18
				C87.75,121.76,86.99,121.97,86.24,122.16"/>
			<polyline class="st42" points="85.94,117.96 85.92,117.64 85.92,117.64 85.94,117.96 85.94,117.96 			"/>
			<path class="st43" d="M85.94,117.96l-0.02-0.32c0.67-0.11,1.5-0.34,2.52-0.73c0,0-1.37,0.59-2.33,0.99v0
				c-0.01,0-0.01,0-0.02,0.01c0,0,0,0,0,0c0,0-0.01,0-0.01,0c0,0,0,0-0.01,0c0,0-0.01,0-0.01,0
				C86.02,117.93,85.98,117.95,85.94,117.96"/>
			<polyline class="st42" points="85.78,115.73 85.76,115.46 85.76,115.46 85.78,115.73 85.78,115.73 			"/>
			<path class="st43" d="M85.78,115.73l-0.02-0.27c0.79-0.12,1.71-0.31,2.73-0.45C88.49,115.02,87.09,115.38,85.78,115.73"/>
			<polyline class="st42" points="85.61,113.29 85.58,112.91 85.58,112.91 85.61,113.29 85.61,113.29 			"/>
			<path class="st43" d="M85.61,113.29l-0.03-0.38c0.22,0.02,0.44,0.02,0.65,0.02c0.38,0,0.75-0.02,1.07-0.05
				c-0.39,0.09-0.86,0.21-1.34,0.33l0,0C85.83,113.23,85.72,113.26,85.61,113.29 M85.41,110.56l-0.15-2.08
				c0.16-0.09,0.32-0.2,0.48-0.32c0.58-0.46,0.92-1.12,1.23-1.77c0.11-0.01,0.21-0.01,0.32-0.01c0.12,0,0.23,0,0.35,0.01
				c0.18,0,0.39,0.06,0.61,0.14c-0.87,0.04-1.31,0.71-0.41,1.74c1.5,1.71,1.14,2.29-1.09,2.29
				C86.29,110.54,85.84,110.55,85.41,110.56"/>
			<path class="st9" d="M91.6,110.64c-0.11-0.8-0.29-1.62-0.66-2.35c-0.17-0.34-0.38-0.66-0.66-0.91c-1.72-1.56-3.94-0.83-2.44,0.88
				c1.5,1.71,1.14,2.29-1.09,2.29c-1.24,0-2.52,0.02-3.18,0.25c-0.53,0.19-0.81,0.79-0.2,1.36c1.37,1.28,5.05,0.62,4.99,0.52
				c-0.05-0.1-3.85,0.94-5.2,1.2c-0.75,0.14-0.8,1.08,0.32,1.6c0.88,0.4,2.68-0.12,5.02-0.45c0,0-3.71,0.95-4.71,1.3
				c-0.87,0.31-0.61,2.61,4.65,0.58c0,0-2.71,1.17-3.18,1.32c-0.72,0.23-0.47,1.23,0.92,1.38c0.93,0.1,3.46-0.45,4.45-1.69
				C91.59,116.7,92.15,114.62,91.6,110.64"/>
			<path class="st44" d="M83.6,112.34L83.6,112.34C83.6,112.34,83.6,112.34,83.6,112.34 M83.58,112.33
				C83.58,112.33,83.58,112.33,83.58,112.33C83.58,112.33,83.58,112.33,83.58,112.33 M83.57,112.32
				C83.57,112.32,83.57,112.32,83.57,112.32C83.57,112.32,83.57,112.32,83.57,112.32 M83.55,112.31
				C83.55,112.31,83.55,112.31,83.55,112.31C83.55,112.31,83.55,112.31,83.55,112.31 M83.54,112.3
				C83.54,112.3,83.54,112.3,83.54,112.3C83.54,112.3,83.54,112.3,83.54,112.3 M83.52,112.29
				C83.52,112.29,83.52,112.29,83.52,112.29C83.52,112.29,83.52,112.29,83.52,112.29 M83.51,112.28
				C83.51,112.28,83.5,112.27,83.51,112.28C83.5,112.27,83.51,112.28,83.51,112.28 M83.5,112.27
				C83.49,112.26,83.49,112.26,83.5,112.27C83.49,112.26,83.49,112.26,83.5,112.27 M83.48,112.25
				C83.48,112.25,83.48,112.25,83.48,112.25C83.48,112.25,83.48,112.25,83.48,112.25 M83.46,112.24
				C83.46,112.24,83.46,112.24,83.46,112.24C83.46,112.24,83.46,112.24,83.46,112.24 M83.45,112.23
				C83.45,112.23,83.45,112.23,83.45,112.23C83.45,112.23,83.45,112.23,83.45,112.23 M83.44,112.22
				C83.43,112.22,83.43,112.22,83.44,112.22C83.43,112.22,83.43,112.22,83.44,112.22 M83.42,112.21
				C83.42,112.21,83.42,112.2,83.42,112.21C83.42,112.2,83.42,112.21,83.42,112.21 M83.41,112.19
				C83.4,112.19,83.4,112.19,83.41,112.19C83.4,112.19,83.4,112.19,83.41,112.19 M83.39,112.18
				C83.39,112.18,83.39,112.18,83.39,112.18C83.39,112.18,83.39,112.18,83.39,112.18 M83.38,112.17
				C83.38,112.17,83.37,112.17,83.38,112.17C83.37,112.17,83.38,112.17,83.38,112.17 M83.57,110.79
				C83.57,110.79,83.57,110.79,83.57,110.79C83.57,110.79,83.57,110.79,83.57,110.79 M83.59,110.78L83.59,110.78L83.59,110.78
				 M83.6,110.78C83.6,110.78,83.6,110.78,83.6,110.78C83.6,110.78,83.6,110.78,83.6,110.78 M83.61,110.77
				C83.61,110.77,83.61,110.77,83.61,110.77S83.61,110.77,83.61,110.77 M83.62,110.77C83.62,110.77,83.62,110.77,83.62,110.77
				C83.62,110.77,83.62,110.77,83.62,110.77 M83.65,110.76C83.65,110.76,83.65,110.76,83.65,110.76
				C83.65,110.76,83.65,110.76,83.65,110.76 M83.67,110.76C83.67,110.76,83.67,110.76,83.67,110.76
				C83.67,110.76,83.67,110.76,83.67,110.76 M83.68,110.75C83.69,110.75,83.69,110.75,83.68,110.75
				C83.69,110.75,83.69,110.75,83.68,110.75 M83.7,110.75C83.7,110.75,83.7,110.75,83.7,110.75C83.7,110.75,83.7,110.75,83.7,110.75
				"/>
			<path class="st11" d="M85.9,112.92c-0.84-0.03-1.71-0.18-2.3-0.58c0,0,0,0,0,0c-0.01,0-0.01-0.01-0.02-0.01c0,0,0,0,0,0
				c0,0-0.01-0.01-0.01-0.01c0,0,0,0,0,0c0,0-0.01-0.01-0.01-0.01c0,0,0,0,0,0c0,0-0.01-0.01-0.01-0.01c0,0,0,0-0.01,0
				c0,0-0.01,0-0.01-0.01c0,0,0,0-0.01,0c0,0,0,0-0.01-0.01c0,0-0.01,0-0.01-0.01c0,0,0,0-0.01,0c0,0-0.01-0.01-0.01-0.01
				c0,0,0,0-0.01,0c0,0,0,0-0.01-0.01c0,0-0.01,0-0.01-0.01c0,0-0.01,0-0.01-0.01c0,0,0,0-0.01-0.01c0,0-0.01,0-0.01-0.01
				c0,0,0,0-0.01-0.01c0,0-0.01,0-0.01-0.01c0,0,0,0-0.01-0.01c0,0,0,0-0.01-0.01c0,0-0.01-0.01-0.01-0.01c0,0,0,0-0.01,0
				c0,0-0.01-0.01-0.01-0.01c0,0,0,0,0,0c0,0-0.01-0.01-0.01-0.01c0,0,0,0,0,0c0,0-0.01-0.01-0.01-0.01l0,0
				c-0.24-0.23-0.35-0.46-0.35-0.67c0-0.32,0.23-0.58,0.55-0.69c0,0,0.01,0,0.01,0c0,0,0,0,0,0c0,0,0.01,0,0.01,0l0,0
				c0,0,0.01,0,0.01,0c0,0,0,0,0,0c0,0,0.01,0,0.01,0c0,0,0,0,0,0c0,0,0.01,0,0.01,0c0,0,0,0,0,0c0.01,0,0.02,0,0.02-0.01
				c0,0,0,0,0,0c0.01,0,0.02,0,0.02-0.01c0,0,0,0,0,0c0,0,0.01,0,0.01,0c0,0,0,0,0,0c0,0,0.01,0,0.01,0c0,0,0,0,0,0
				c0.51-0.14,1.3-0.19,2.14-0.2C85.76,111.33,85.79,112.13,85.9,112.92"/>
			<path class="st44" d="M82.61,114.45c0-0.27,0.18-0.5,0.49-0.58C82.79,113.96,82.61,114.18,82.61,114.45 M83.16,113.87
				L83.16,113.87L83.16,113.87 M83.63,113.77c0.37-0.08,0.81-0.19,1.28-0.3l0,0C84.44,113.58,83.99,113.69,83.63,113.77"/>
			<path class="st45" d="M84.91,113.46L84.91,113.46c0.23-0.06,0.47-0.11,0.7-0.17l0,0C85.37,113.35,85.14,113.41,84.91,113.46"/>
			<polyline class="st45" points="85.61,113.29 85.61,113.29 85.61,113.29 85.61,113.29 85.61,113.29 			"/>
			<path class="st46" d="M85.61,113.29L85.61,113.29c0.11-0.03,0.23-0.06,0.34-0.08l0,0C85.83,113.23,85.72,113.26,85.61,113.29"/>
			<path class="st11" d="M84.33,115.61c-0.34,0-0.63-0.04-0.86-0.15l0,0l0,0c-0.6-0.28-0.87-0.68-0.87-1.01
				c0-0.27,0.18-0.5,0.49-0.58c0.02,0,0.03-0.01,0.05-0.01c0,0,0.01,0,0.01,0l0,0c0.13-0.03,0.29-0.06,0.47-0.1
				c0.37-0.08,0.81-0.19,1.28-0.3c0.23-0.06,0.47-0.11,0.7-0.17l0,0c0.11-0.03,0.23-0.06,0.34-0.08l0.03,0.18
				c0.12,0.65,0.36,1.32,0.71,1.92C85.75,115.47,84.95,115.61,84.33,115.61"/>
			<path class="st44" d="M83.59,116.43c0.04-0.04,0.09-0.07,0.15-0.09C83.69,116.36,83.64,116.39,83.59,116.43 M83.74,116.34
				c0.01,0,0.01-0.01,0.02-0.01C83.76,116.33,83.75,116.33,83.74,116.34 M83.79,116.32C83.79,116.32,83.79,116.32,83.79,116.32
				C83.79,116.32,83.79,116.32,83.79,116.32 M83.8,116.32C83.8,116.32,83.8,116.31,83.8,116.32C83.8,116.31,83.8,116.32,83.8,116.32
				 M83.8,116.31C83.8,116.31,83.81,116.31,83.8,116.31C83.81,116.31,83.8,116.31,83.8,116.31 M83.81,116.31
				c0.08-0.03,0.17-0.06,0.27-0.09C83.98,116.25,83.89,116.28,83.81,116.31 M84.08,116.22c0,0,0.01,0,0.02-0.01
				C84.09,116.22,84.09,116.22,84.08,116.22 M84.1,116.22c0.01,0,0.02-0.01,0.03-0.01C84.12,116.21,84.11,116.21,84.1,116.22"/>
			<path class="st11" d="M84.95,117.72c-1.62,0-1.77-0.93-1.35-1.29c0.04-0.04,0.09-0.07,0.15-0.09c0,0,0,0,0,0
				c0.01,0,0.01-0.01,0.02-0.01c0.01,0,0.01,0,0.02-0.01c0,0,0.01,0,0.01,0c0,0,0,0,0,0c0,0,0,0,0,0c0,0,0,0,0.01,0h0c0,0,0,0,0,0
				c0,0,0,0,0,0c0.08-0.03,0.17-0.06,0.27-0.09c0,0,0,0,0,0c0,0,0.01,0,0.02-0.01h0c0.01,0,0.02-0.01,0.03-0.01
				c0.65-0.2,1.72-0.49,2.64-0.74c0.37,0.6,0.84,1.14,1.4,1.53C86.73,117.53,85.69,117.72,84.95,117.72"/>
			<path class="st45" d="M85.25,118.23C85.26,118.23,85.26,118.23,85.25,118.23C85.26,118.23,85.26,118.23,85.25,118.23
				 M85.26,118.23c0.12-0.04,0.37-0.14,0.68-0.27l0,0C85.63,118.09,85.38,118.19,85.26,118.23"/>
			<path class="st46" d="M86.41,119.63L86.41,119.63c0.85,0,2.44-0.35,3.51-1.08l0,0C88.85,119.27,87.26,119.63,86.41,119.63"/>
			<polyline class="st45" points="85.94,117.96 85.94,117.96 85.94,117.96 85.94,117.96 85.94,117.96 			"/>
			<path class="st46" d="M85.94,117.96L85.94,117.96c0.04-0.02,0.08-0.03,0.12-0.05C86.02,117.93,85.98,117.95,85.94,117.96
				 M86.07,117.91C86.07,117.91,86.07,117.91,86.07,117.91C86.07,117.91,86.07,117.91,86.07,117.91 M86.09,117.9
				C86.09,117.9,86.09,117.9,86.09,117.9C86.09,117.9,86.09,117.9,86.09,117.9 M86.1,117.9L86.1,117.9L86.1,117.9"/>
			<path class="st11" d="M86.41,119.63c-0.09,0-0.17,0-0.24-0.01c-1.39-0.15-1.64-1.15-0.92-1.38l0,0c0,0,0,0,0,0l0,0
				c0.12-0.04,0.37-0.14,0.68-0.27l0,0c0.04-0.02,0.08-0.03,0.12-0.05c0,0,0.01,0,0.01,0c0,0,0,0,0.01,0c0,0,0.01,0,0.01,0
				c0,0,0,0,0,0c0.01,0,0.01,0,0.02-0.01v0c0.71-0.29,1.65-0.7,2.09-0.89c0.59,0.41,1.27,0.66,2.01,0.66c0.21,0,0.42-0.02,0.63-0.06
				c-0.07,0.11-0.14,0.21-0.22,0.3l0,0c-0.18,0.23-0.42,0.44-0.69,0.63l0,0C88.85,119.27,87.26,119.63,86.41,119.63"/>
			<path class="st9" d="M68.17,121.09c0,0,3.39-1.13,4.06-1.4c0.66-0.27,4.41-3.27,2.83-5.41c0,0,0.05-1.2-0.95-1.97l-0.09-0.06
				c-1.09-0.77,0.08-1.35-1.87-2.17c0,0-1.18-0.78-2.02-1.08c-0.92-0.34-1.87-0.61-2.15-0.54c0,0,0.53,1.14,1.07,2.02
				c0,0,0.95,2.45-0.22,3.39c-1.17,0.94-0.97-0.13-1.52-2.36c-0.47-1.91-2.76-1.48-2.05,0.57c1.13,3.3,1.06,3.82,0.27,4.86
				C65.54,116.91,66.81,121.12,68.17,121.09"/>
			<path class="st47" d="M68.55,120.96L68.55,120.96c0.9-0.3,3.15-1.06,3.68-1.28c0,0,0,0,0,0c0,0,0,0,0,0
				C71.7,119.9,69.45,120.66,68.55,120.96"/>
			<path class="st47" d="M72.24,119.68C72.24,119.68,72.24,119.68,72.24,119.68C72.24,119.68,72.24,119.68,72.24,119.68
				 M72.24,119.68c0,0,0.01,0,0.01-0.01C72.25,119.68,72.24,119.68,72.24,119.68 M72.25,119.68c0,0,0.01,0,0.01-0.01
				C72.26,119.67,72.26,119.67,72.25,119.68 M72.26,119.67C72.27,119.67,72.27,119.67,72.26,119.67
				C72.27,119.67,72.27,119.67,72.26,119.67 M72.27,119.67C72.27,119.67,72.27,119.67,72.27,119.67
				C72.27,119.67,72.27,119.67,72.27,119.67 M72.27,119.66C72.27,119.66,72.28,119.66,72.27,119.66
				C72.28,119.66,72.27,119.66,72.27,119.66 M72.28,119.66C72.28,119.66,72.28,119.66,72.28,119.66
				C72.28,119.66,72.28,119.66,72.28,119.66 M72.28,119.66C72.28,119.66,72.28,119.66,72.28,119.66
				C72.28,119.66,72.28,119.66,72.28,119.66"/>
			<path class="st48" d="M65.84,116.47L65.84,116.47c0.05-0.1,0.1-0.19,0.14-0.29c0,0,0,0,0,0
				C65.94,116.28,65.89,116.38,65.84,116.47"/>
			<path class="st11" d="M68.55,120.96l-2.71-4.49c0.06-0.1,0.1-0.19,0.14-0.29c1.41,1.26,3.21,2.16,5.02,2.16
				c0.97,0,1.94-0.26,2.86-0.86c0.69-0.45,1.2-1.04,1.55-1.7c-0.28,1.77-2.51,3.56-3.12,3.87c0,0,0,0,0,0c0,0,0,0,0,0c0,0,0,0,0,0
				s0,0,0,0c0,0,0,0,0,0l0,0c0,0,0,0,0,0c0,0,0,0,0,0c0,0,0,0,0,0c0,0,0,0,0,0c0,0-0.01,0-0.01,0.01l0,0c0,0-0.01,0-0.01,0.01
				c0,0,0,0,0,0c0,0,0,0,0,0h0c0,0,0,0,0,0C71.7,119.9,69.45,120.66,68.55,120.96"/>
			<path class="st26" d="M65.79,116.39l2.76,4.57c0,0-7.93,6.92-19.14,6.8c-2.01-0.02-3.73-1.46-4.03-3.45
				c-0.75-5.06-0.72-15.09,7.16-27.48c0-0.04,4-0.17,4.21,9.6c0.04,2.07-0.38,4.13-1.23,6.02c-1.2,2.67-2.84,6.65-2.34,7.41
				C53.95,121.03,65.79,116.39,65.79,116.39"/>
			<polyline class="st49" points="49.74,127.76 49.74,127.76 49.74,127.76 			"/>
			<path class="st49" d="M52.94,127.57L52.94,127.57L52.94,127.57 M53.24,127.53C53.24,127.53,53.24,127.53,53.24,127.53
				C53.24,127.53,53.24,127.53,53.24,127.53 M53.28,127.53L53.28,127.53L53.28,127.53 M53.33,127.52
				C53.33,127.52,53.33,127.52,53.33,127.52C53.33,127.52,53.33,127.52,53.33,127.52 M53.37,127.52
				C53.37,127.52,53.37,127.52,53.37,127.52C53.37,127.52,53.37,127.52,53.37,127.52 M53.41,127.51
				C53.41,127.51,53.42,127.51,53.41,127.51C53.42,127.51,53.41,127.51,53.41,127.51 M53.45,127.5
				C53.46,127.5,53.46,127.5,53.45,127.5C53.46,127.5,53.46,127.5,53.45,127.5 M53.5,127.5C53.5,127.5,53.5,127.5,53.5,127.5
				C53.5,127.5,53.5,127.5,53.5,127.5 M53.54,127.49C53.54,127.49,53.54,127.49,53.54,127.49
				C53.54,127.49,53.54,127.49,53.54,127.49 M53.58,127.49C53.59,127.49,53.59,127.49,53.58,127.49
				C53.59,127.49,53.59,127.49,53.58,127.49 M53.62,127.48c0.01,0,0.01,0,0.01,0C53.63,127.48,53.63,127.48,53.62,127.48
				 M53.67,127.47C53.67,127.47,53.67,127.47,53.67,127.47C53.67,127.47,53.67,127.47,53.67,127.47 M53.71,127.47c0,0,0.01,0,0.01,0
				C53.72,127.47,53.71,127.47,53.71,127.47 M53.75,127.46c0,0,0.01,0,0.01,0C53.76,127.46,53.75,127.46,53.75,127.46 M53.8,127.45
				c0,0,0.01,0,0.01,0C53.81,127.45,53.8,127.45,53.8,127.45 M53.84,127.45c0,0,0.01,0,0.01,0
				C53.84,127.45,53.84,127.45,53.84,127.45 M53.87,127.44c0.01,0,0.02,0,0.02,0C53.89,127.44,53.88,127.44,53.87,127.44
				 M53.92,127.43c0.01,0,0.01,0,0.02,0C53.93,127.43,53.93,127.43,53.92,127.43 M53.96,127.43c0.01,0,0.02,0,0.03,0
				C53.98,127.43,53.97,127.43,53.96,127.43 M54.01,127.42c0.01,0,0.01,0,0.02,0C54.02,127.42,54.01,127.42,54.01,127.42
				 M54.04,127.42c0.02,0,0.05-0.01,0.07-0.01C54.09,127.41,54.07,127.41,54.04,127.42 M54.13,127.4c0.01,0,0.01,0,0.02,0
				C54.14,127.4,54.13,127.4,54.13,127.4 M54.16,127.4c0.01,0,0.03,0,0.04-0.01C54.19,127.39,54.18,127.4,54.16,127.4 M54.21,127.39
				c0.01,0,0.02,0,0.02,0C54.23,127.39,54.22,127.39,54.21,127.39 M54.24,127.38c0.03,0,0.05-0.01,0.08-0.01
				C54.3,127.37,54.27,127.38,54.24,127.38 M54.33,127.37c0.03,0,0.05-0.01,0.08-0.01C54.39,127.36,54.36,127.36,54.33,127.37
				 M54.42,127.35c0.03,0,0.06-0.01,0.08-0.01C54.47,127.34,54.45,127.35,54.42,127.35 M54.5,127.34c2.31-0.41,4.4-1.07,6.22-1.81
				C58.9,126.27,56.81,126.93,54.5,127.34 M60.73,125.53c0.01,0,0.02-0.01,0.02-0.01C60.74,125.52,60.74,125.52,60.73,125.53
				 M60.75,125.52c0.01-0.01,0.02-0.01,0.04-0.02C60.78,125.51,60.76,125.51,60.75,125.52 M60.8,125.5c0.01,0,0.01,0,0.02-0.01
				C60.81,125.49,60.81,125.5,60.8,125.5 M60.83,125.48c0,0,0.01,0,0.01,0C60.84,125.48,60.84,125.48,60.83,125.48 M60.87,125.47
				c0,0,0.01,0,0.01,0C60.88,125.47,60.87,125.47,60.87,125.47 M60.9,125.46C60.91,125.45,60.91,125.45,60.9,125.46
				C60.91,125.45,60.91,125.45,60.9,125.46 M60.94,125.44C60.94,125.44,60.94,125.44,60.94,125.44
				C60.94,125.44,60.94,125.44,60.94,125.44 M60.97,125.43C60.97,125.43,60.97,125.43,60.97,125.43
				C60.97,125.43,60.97,125.43,60.97,125.43 M61.04,125.4C61.04,125.4,61.04,125.4,61.04,125.4C61.04,125.4,61.04,125.4,61.04,125.4
				"/>
			<path class="st50" d="M45.38,124.29c-0.01-0.08-0.02-0.16-0.03-0.24C45.35,124.14,45.37,124.22,45.38,124.29 M45.34,124.05
				c0,0,0-0.01,0-0.01C45.34,124.05,45.34,124.05,45.34,124.05"/>
			<path class="st51" d="M49.69,127.76c-0.09,0-0.19,0-0.28,0l0,0c-2.01-0.02-3.73-1.46-4.03-3.45l0,0c0-0.01,0-0.01,0-0.02
				c-0.01-0.08-0.02-0.16-0.03-0.24c0,0,0,0,0,0c0,0,0-0.01,0-0.01c-0.12-0.87-0.21-1.87-0.25-2.99c0.8,1.72,1.4,3.8,3.47,4.64
				c1.19,0.48,2.36,0.68,3.52,0.68c4.36,0,8.57-2.76,12.79-3.67c0.58-0.13,1.24-0.26,1.92-0.42c-1.3,0.88-3.26,2.08-5.75,3.12
				c0,0,0,0,0,0c-0.02,0.01-0.04,0.02-0.06,0.03c0,0,0,0,0,0c-0.01,0-0.02,0.01-0.02,0.01c0,0-0.01,0-0.01,0
				c-0.01,0-0.02,0.01-0.03,0.01c0,0,0,0,0,0c-0.01,0-0.02,0.01-0.02,0.01c0,0-0.01,0-0.01,0c-0.01,0-0.02,0.01-0.03,0.01
				c0,0-0.01,0-0.01,0c-0.01,0-0.01,0-0.02,0.01c-0.01,0-0.01,0-0.02,0.01c0,0-0.01,0-0.01,0.01c-0.01,0.01-0.02,0.01-0.04,0.02h0
				c-0.01,0-0.02,0.01-0.02,0.01l0,0c-1.83,0.74-3.92,1.4-6.22,1.81l0,0c-0.03,0.01-0.06,0.01-0.08,0.01c0,0,0,0-0.01,0
				c-0.03,0.01-0.05,0.01-0.08,0.01c0,0,0,0-0.01,0c-0.03,0-0.05,0.01-0.08,0.01c0,0,0,0-0.01,0c-0.01,0-0.02,0-0.02,0
				c0,0-0.01,0-0.01,0c-0.01,0-0.03,0.01-0.04,0.01c0,0-0.01,0-0.01,0c-0.01,0-0.01,0-0.02,0c-0.01,0-0.01,0-0.02,0
				c-0.02,0-0.05,0.01-0.07,0.01c-0.01,0-0.01,0-0.02,0c-0.01,0-0.01,0-0.02,0c-0.01,0-0.01,0-0.02,0c-0.01,0-0.02,0-0.03,0
				c-0.01,0-0.01,0-0.02,0c-0.01,0-0.01,0-0.02,0c-0.01,0-0.02,0-0.02,0c-0.01,0-0.02,0-0.02,0c-0.01,0-0.02,0-0.03,0
				c0,0-0.01,0-0.01,0c-0.01,0-0.02,0-0.03,0c0,0-0.01,0-0.01,0c-0.01,0-0.02,0-0.03,0.01c0,0-0.01,0-0.01,0c-0.01,0-0.02,0-0.03,0
				c0,0-0.01,0-0.01,0c-0.01,0-0.03,0-0.04,0.01c0,0,0,0,0,0c-0.01,0-0.02,0-0.03,0c-0.01,0-0.01,0-0.01,0c-0.01,0-0.02,0-0.04,0.01
				c0,0,0,0,0,0c-0.01,0-0.02,0-0.04,0.01c0,0-0.01,0-0.01,0c-0.01,0-0.02,0-0.04,0c0,0,0,0,0,0c-0.01,0-0.03,0-0.04,0.01
				c0,0-0.01,0-0.01,0c-0.01,0-0.02,0-0.04,0.01c0,0,0,0,0,0c-0.01,0-0.03,0-0.04,0.01c0,0,0,0,0,0c-0.01,0-0.02,0-0.04,0.01
				c0,0,0,0-0.01,0c-0.01,0-0.03,0-0.04,0.01h0c-0.01,0-0.03,0-0.04,0.01c0,0,0,0,0,0c-0.1,0.01-0.2,0.03-0.3,0.04h0
				c-1.03,0.12-2.1,0.19-3.2,0.19c0,0,0,0,0,0C49.72,127.76,49.7,127.76,49.69,127.76"/>
			<polygon class="st32" points="68.19,93.3 59.69,90.08 57.65,92.36 66.83,99.4 68.19,93.3 			"/>
			<polygon class="st32" points="72.75,97.22 68.19,93.3 70.95,89.42 74.09,90.97 72.75,97.22 			"/>
		</g>
	</g>
</g>
</svg>
