<?xml version="1.0" encoding="utf-8"?>
<!-- Generator: Adobe Illustrator 26.0.1, SVG Export Plug-In . SVG Version: 6.00 Build 0)  -->
<svg version="1.1" id="Calque_1" xmlns="http://www.w3.org/2000/svg" xmlns:xlink="http://www.w3.org/1999/xlink" x="0px" y="0px"
	 viewBox="0 0 128 128" style="enable-background:new 0 0 128 128;" xml:space="preserve">
<style type="text/css">
	.st0{fill:#DA82AB;}
	.st1{clip-path:url(#SVGID_00000146483103130273609120000009985867748394256313_);}
	.st2{fill:#00686F;}
	.st3{fill:#009EB9;}
	.st4{fill:#3FBEE0;}
	.st5{fill:#C1DEE3;}
	.st6{fill:#025C67;}
	.st7{fill:#25AED6;}
	.st8{fill:#822B13;}
	.st9{fill:#D3B6AB;}
	.st10{fill:#004C4E;}
	.st11{fill:#6D1F0E;}
	.st12{fill:#936037;}
	.st13{fill:#432918;}
	.st14{fill:#EAC29B;}
	.st15{fill:#492904;}
	.st16{fill:#007D76;}
	.st17{fill:#A63717;}
	.st18{fill:#9A2C15;}
	.st19{fill:#F5D8B2;}
	.st20{fill:#AD3D1B;}
	.st21{fill:#4F4E4E;}
	.st22{fill:#FFFFFF;}
	.st23{fill:#928C7D;}
	.st24{fill:#B24724;}
	.st25{fill:#E58646;}
	.st26{fill:#BB163B;}
	.st27{fill:#EA5572;}
	.st28{fill:#F0A925;}
	.st29{fill:#FCC247;}
	.st30{fill:#D78A19;}
	.st31{fill:#E59F29;}
	.st32{fill:#F1ECE2;}
	.st33{fill:#AF8C27;}
	.st34{fill:#C5AE40;}
	.st35{fill:#531D10;}
	.st36{fill:#D78F17;}
	.st37{fill:#6A1B0C;}
	.st38{fill:#25979B;}
	.st39{fill:#DE8A1F;}
	.st40{fill:#30ABA8;}
	.st41{fill:#F7A933;}
	.st42{fill:#C17513;}
	.st43{fill:#DE8C43;}
	.st44{fill:#CD821A;}
</style>
<g>
	<rect y="-0.08" class="st0" width="128" height="128"/>
	<g>
		<defs>
			<rect id="SVGID_1_" y="-0.08" width="127.6" height="128.08"/>
		</defs>
		<clipPath id="SVGID_00000102539095902380748820000018230509818923641774_">
			<use xlink:href="#SVGID_1_"  style="overflow:visible;"/>
		</clipPath>
		<g style="clip-path:url(#SVGID_00000102539095902380748820000018230509818923641774_);">
			<path class="st2" d="M71.64,71.19c-0.78-0.91-2.5,3.61-3.1,5.29c-1.1-1.5-1.94-2.66-1.94-2.66s4-8.41,6.25-8.19
				c2.25,0.21,3.8-0.32,3.27,4.09c-0.53,4.41-2.4,12.91-2.3,13.55c0.05,0.36-2.2-2.62-4.2-5.33C70.58,75.98,72.36,72.02,71.64,71.19
				"/>
			<path class="st3" d="M84.04,85.52c0,0,5.5-0.32,5.99,0.96c0.49,1.28,4.12,12.33,3.93,14.56c-0.2,2.23-2.65,4.68-3.34,4.68
				C89.93,105.72,84.04,85.52,84.04,85.52"/>
			<path class="st3" d="M71.7,78.43c0.64-1.15,1.31-2.4,1.59-3.72c0.52-2.49,0.97-5.61,0.25-8.1c-0.1-0.35-0.23-0.65-0.37-0.94
				c2.08,0.15,3.46-0.13,2.96,4.07c-0.53,4.41-2.4,12.91-2.3,13.55c0.04,0.27-1.27-1.41-2.79-3.43
				C71.24,79.37,71.45,78.89,71.7,78.43"/>
			<path class="st2" d="M69.63,80.42c0,0,8.94-5.55,13.5-2.29c4.57,3.27,4.56,11.1,7.39,20.25c2.39,7.71,3.93,14.24,2.65,16.26
				c-1.28,2.02-9.13,5.42-11.29,5.1c-2.16-0.32-15.12-2.34-16.3-5C64.4,112.09,65.18,82.57,69.63,80.42"/>
			<path class="st4" d="M82.69,118.34c-0.39-5.38-0.41-10.76-0.77-16.13c-0.62-9.13-3.32-16.64-8.93-23.5
				c3.01-1.3,7.38-2.56,10.14-0.58c4.57,3.27,4.56,11.1,7.39,20.25c2.39,7.71,3.93,14.24,2.65,16.26
				c-1.13,1.79-7.43,4.67-10.35,5.07C82.77,119.26,82.72,118.8,82.69,118.34"/>
			<path class="st5" d="M92.88,115.01c0,0,0.01-0.01,0.01-0.01C92.89,115,92.89,115,92.88,115.01 M92.91,114.98
				c0.07-0.08,0.13-0.15,0.18-0.22l0,0C93.04,114.83,92.98,114.91,92.91,114.98 M93.09,114.76L93.09,114.76
				C93.1,114.75,93.1,114.75,93.09,114.76L93.09,114.76C93.1,114.75,93.1,114.76,93.09,114.76 M93.1,114.75
				C93.1,114.75,93.1,114.75,93.1,114.75C93.1,114.74,93.11,114.74,93.1,114.75L93.1,114.75C93.11,114.74,93.1,114.74,93.1,114.75
				 M93.11,114.73C93.11,114.73,93.11,114.73,93.11,114.73C93.11,114.73,93.11,114.73,93.11,114.73L93.11,114.73
				C93.11,114.73,93.11,114.73,93.11,114.73 M93.12,114.72L93.12,114.72C93.12,114.72,93.12,114.72,93.12,114.72L93.12,114.72
				C93.12,114.72,93.12,114.72,93.12,114.72 M93.13,114.71L93.13,114.71C93.13,114.71,93.13,114.71,93.13,114.71
				C93.13,114.7,93.13,114.7,93.13,114.71C93.13,114.71,93.13,114.71,93.13,114.71 M93.13,114.7L93.13,114.7
				C93.14,114.7,93.14,114.69,93.13,114.7C93.14,114.69,93.14,114.69,93.13,114.7C93.14,114.69,93.14,114.7,93.13,114.7
				 M93.14,114.69L93.14,114.69C93.14,114.69,93.15,114.68,93.14,114.69C93.15,114.68,93.15,114.68,93.14,114.69
				C93.15,114.68,93.14,114.69,93.14,114.69 M93.15,114.68L93.15,114.68C93.15,114.67,93.15,114.67,93.15,114.68
				C93.15,114.67,93.15,114.67,93.15,114.68C93.15,114.67,93.15,114.67,93.15,114.68 M93.16,114.67L93.16,114.67
				C93.16,114.66,93.16,114.66,93.16,114.67C93.16,114.66,93.16,114.66,93.16,114.67C93.16,114.66,93.16,114.66,93.16,114.67
				 M93.16,114.66L93.16,114.66c0,0,0-0.01,0.01-0.01c0,0,0-0.01,0.01-0.01c0,0,0,0.01-0.01,0.01
				C93.17,114.65,93.17,114.65,93.16,114.66 M93.18,114.63C93.18,114.63,93.18,114.62,93.18,114.63
				C93.18,114.62,93.18,114.63,93.18,114.63 M93.19,114.62C93.19,114.62,93.19,114.61,93.19,114.62
				C93.19,114.61,93.19,114.62,93.19,114.62 M93.19,114.61c0,0,0-0.01,0.01-0.01C93.2,114.6,93.2,114.6,93.19,114.61 M93.2,114.6
				c0,0,0-0.01,0.01-0.01C93.2,114.59,93.2,114.59,93.2,114.6 M93.21,114.58C93.21,114.58,93.21,114.58,93.21,114.58
				C93.21,114.58,93.21,114.58,93.21,114.58 M93.22,114.57C93.22,114.57,93.22,114.56,93.22,114.57
				C93.22,114.56,93.22,114.57,93.22,114.57 M93.22,114.56C93.22,114.55,93.23,114.55,93.22,114.56
				C93.23,114.55,93.22,114.55,93.22,114.56 M93.23,114.55c0,0,0-0.01,0.01-0.01C93.23,114.54,93.23,114.54,93.23,114.55
				 M93.24,114.53C93.24,114.53,93.24,114.53,93.24,114.53C93.24,114.53,93.24,114.53,93.24,114.53 M93.24,114.52
				C93.25,114.52,93.25,114.51,93.24,114.52C93.25,114.51,93.25,114.52,93.24,114.52 M93.25,114.51
				C93.25,114.5,93.25,114.5,93.25,114.51C93.25,114.5,93.25,114.5,93.25,114.51 M93.26,114.49
				C93.26,114.49,93.26,114.49,93.26,114.49C93.26,114.49,93.26,114.49,93.26,114.49 M93.27,114.48
				C93.27,114.47,93.27,114.47,93.27,114.48C93.27,114.47,93.27,114.47,93.27,114.48 M93.27,114.46
				C93.27,114.46,93.27,114.46,93.27,114.46C93.27,114.46,93.27,114.46,93.27,114.46 M93.28,114.45
				C93.28,114.45,93.28,114.45,93.28,114.45C93.28,114.45,93.28,114.45,93.28,114.45 M93.29,114.42L93.29,114.42L93.29,114.42
				 M93.3,114.41C93.3,114.41,93.3,114.41,93.3,114.41C93.3,114.41,93.3,114.41,93.3,114.41"/>
			<path class="st6" d="M82.69,118.27c0-0.01,0-0.01,0-0.02C82.69,118.26,82.69,118.26,82.69,118.27 M82.68,118.18
				c0-0.01,0-0.01,0-0.02C82.68,118.16,82.68,118.17,82.68,118.18 M82.67,118.03L82.67,118.03c0-0.02,0-0.03,0-0.04
				C82.67,118,82.67,118.01,82.67,118.03 M82.66,117.95c-0.12-1.82-0.21-3.64-0.28-5.45c0,0,0,0,0,0
				C82.45,114.31,82.54,116.13,82.66,117.95 M93.09,114.76L93.09,114.76L93.09,114.76C93.09,114.76,93.09,114.76,93.09,114.76
				L93.09,114.76 M93.1,114.75C93.1,114.75,93.1,114.75,93.1,114.75C93.1,114.75,93.1,114.75,93.1,114.75
				C93.1,114.75,93.1,114.75,93.1,114.75L93.1,114.75 M93.11,114.74C93.11,114.74,93.11,114.73,93.11,114.74
				C93.11,114.73,93.11,114.73,93.11,114.74C93.11,114.74,93.11,114.74,93.11,114.74L93.11,114.74 M93.12,114.73
				C93.12,114.72,93.12,114.72,93.12,114.73L93.12,114.73C93.12,114.72,93.12,114.72,93.12,114.73L93.12,114.73 M93.12,114.71
				C93.13,114.71,93.13,114.71,93.12,114.71L93.12,114.71C93.13,114.71,93.13,114.71,93.12,114.71L93.12,114.71 M93.13,114.7
				C93.13,114.7,93.13,114.7,93.13,114.7L93.13,114.7C93.13,114.7,93.13,114.7,93.13,114.7C93.13,114.7,93.13,114.7,93.13,114.7
				 M93.14,114.69C93.14,114.69,93.14,114.69,93.14,114.69L93.14,114.69C93.14,114.69,93.14,114.69,93.14,114.69
				C93.14,114.69,93.14,114.69,93.14,114.69 M93.15,114.68C93.15,114.68,93.15,114.68,93.15,114.68L93.15,114.68
				C93.15,114.68,93.15,114.68,93.15,114.68C93.15,114.68,93.15,114.68,93.15,114.68 M93.15,114.67
				C93.16,114.67,93.16,114.67,93.15,114.67L93.15,114.67C93.16,114.67,93.16,114.67,93.15,114.67
				C93.15,114.67,93.15,114.67,93.15,114.67 M93.16,114.66C93.16,114.66,93.16,114.66,93.16,114.66L93.16,114.66
				C93.16,114.66,93.16,114.66,93.16,114.66C93.16,114.66,93.16,114.66,93.16,114.66"/>
			<path class="st7" d="M82.82,119.71L82.82,119.71c-0.05-0.45-0.1-0.91-0.13-1.38c0-0.02,0-0.05,0-0.07c0-0.01,0-0.01,0-0.02
				c0-0.02,0-0.05-0.01-0.07c0-0.01,0-0.02,0-0.02c0-0.01,0-0.02,0-0.03l0,0l0,0l0,0l-0.01-0.09c0-0.01,0-0.03,0-0.04
				c0-0.01,0-0.03,0-0.04c-0.12-1.82-0.21-3.64-0.28-5.45c3.74-1.28,8.5-3.04,10.73-4.41c0.58,2.92,0.72,5.16,0.19,6.33c0,0,0,0,0,0
				c0,0,0,0.01,0,0.01v0c-0.01,0.01-0.01,0.02-0.01,0.03c0,0,0,0,0,0c0,0,0,0.01,0,0.01c0,0,0,0,0,0.01c0,0,0,0,0,0.01
				c0,0,0,0,0,0.01c0,0,0,0,0,0.01c0,0,0,0.01,0,0.01c0,0,0,0,0,0.01c0,0,0,0,0,0.01c0,0,0,0,0,0c0,0,0,0,0,0.01c0,0,0,0,0,0
				c0,0,0,0.01,0,0.01c0,0,0,0,0,0c0,0,0,0.01-0.01,0.01c0,0,0,0,0,0c0,0,0,0.01-0.01,0.01c0,0,0,0,0,0c0,0,0,0.01,0,0.01
				c0,0,0,0,0,0c0,0,0,0.01,0,0.01c0,0,0,0,0,0c0,0,0,0.01-0.01,0.01c0,0,0,0,0,0c0,0,0,0.01-0.01,0.01c0,0,0,0,0,0
				c0,0,0,0.01-0.01,0.01c0,0,0,0,0,0c0,0,0,0.01-0.01,0.01c0,0,0,0,0,0c0,0-0.01,0.01-0.01,0.01c0,0-0.01,0.01-0.01,0.01
				c0,0,0,0,0,0c0,0,0,0.01-0.01,0.01c0,0,0,0,0,0c0,0,0,0,0,0.01c0,0,0,0,0,0c0,0,0,0,0,0.01c0,0,0,0,0,0c0,0,0,0,0,0.01
				c0,0,0,0,0,0c0,0,0,0,0,0.01c0,0,0,0,0,0c0,0,0,0.01-0.01,0.01c0,0,0,0,0,0c0,0,0,0.01-0.01,0.01c0,0,0,0,0,0
				c0,0,0,0.01-0.01,0.01c0,0,0,0,0,0c0,0,0,0.01-0.01,0.01l0,0c-0.05,0.07-0.11,0.15-0.18,0.22c-0.01,0-0.01,0.01-0.01,0.01
				c0,0-0.01,0.01-0.01,0.01c-1.62,1.76-7.12,4.23-9.91,4.68C82.92,119.7,82.87,119.71,82.82,119.71"/>
			<path class="st8" d="M53.03,105.73c0,0-4.47,20.79-5.72,31.04c0,0,19.47,4.85,31.95-0.77l-5.24-31.42
				C74.02,104.59,65.66,107.04,53.03,105.73"/>
			<path class="st9" d="M47.31,136.78L47.31,136.78c0.82-6.68,3-17.82,4.42-24.79l0,0C50.3,118.95,48.12,130.1,47.31,136.78
				 M77.41,124.95L77.41,124.95l-1.03-6.17l0,0L77.41,124.95"/>
			<polyline class="st10" points="76.38,118.79 76.38,118.79 75.96,116.24 75.96,116.24 76.38,118.79 			"/>
			<path class="st11" d="M48.16,136.97c-0.55-0.12-0.85-0.2-0.85-0.2c0.82-6.68,3-17.82,4.42-24.79l0,0l0.5-2.44
				c3.52,0.86,7.45,1.43,11.32,1.43c1.25,0,2.49-0.06,3.72-0.19c-0.2,0.28-0.28,0.57-0.13,0.81l0,0c0,0,0,0,0,0h0c0,0,0,0.01,0,0.01
				l0,0c0,0,0,0,0,0c0,0,0,0,0,0c0,0,0,0,0,0l0,0c0,0,0,0,0,0.01c0,0,0,0,0,0c0,0,0,0,0,0c0,0,0,0,0,0c0,0,0,0,0,0c0,0,0,0,0,0
				c0,0,0,0,0,0c0,0,0,0,0,0c0,0,0,0,0,0c0,0,0,0,0,0c0,0,0,0,0,0c0,0,0,0,0,0c0.15,0.19,0.36,0.27,0.61,0.27
				c0.4,0,0.89-0.19,1.36-0.43c0.1,0.11,0.19,0.22,0.29,0.33c0,0,0,0,0.01,0.01c0,0,0.01,0.01,0.01,0.01c0,0,0.01,0.01,0.01,0.01
				c0,0,0,0,0.01,0.01c0.01,0.01,0.01,0.01,0.02,0.02c0,0,0,0,0,0c0.87,0.95,1.87,1.85,2.97,2.6l0,0c0.03,0.02,0.06,0.04,0.08,0.06
				c0,0,0,0,0,0c0.01,0.01,0.02,0.01,0.02,0.02c0,0,0,0,0,0c0.03,0.02,0.06,0.04,0.08,0.06c0,0,0,0,0,0
				c0.01,0.01,0.02,0.01,0.02,0.02c0,0,0,0,0.01,0c0.01,0.01,0.02,0.01,0.03,0.02c0,0,0,0,0,0c0.01,0.01,0.02,0.01,0.03,0.02
				c0,0,0,0,0,0c0.01,0.01,0.02,0.01,0.03,0.02c0,0,0,0,0.01,0c0.01,0,0.01,0.01,0.02,0.01c0,0,0.01,0,0.01,0.01
				c0.01,0,0.01,0.01,0.02,0.01c0,0,0.01,0,0.01,0c0.01,0.01,0.02,0.01,0.03,0.02c0,0,0,0,0,0c0.01,0.01,0.02,0.01,0.03,0.02
				c0,0,0,0,0.01,0c0.01,0,0.01,0.01,0.02,0.01c0,0,0.01,0,0.01,0.01c0.01,0,0.01,0.01,0.02,0.01c0,0,0.01,0,0.01,0
				c0.01,0.01,0.02,0.01,0.03,0.02c0.86,0.53,1.9,1.01,2.97,1.42l0.42,2.54l1.03,6.17c-0.34-0.22-0.67-0.47-1-0.74
				c-4.48-3.8-7.66-9.46-13.55-10.88c-0.82-0.2-1.65-0.3-2.48-0.3c-3.55,0-6.94,1.84-8.5,5.49c-1.23,2.89-1.4,6.17-1.7,9.3
				C49.89,130.98,48.67,133.87,48.16,136.97"/>
			<path class="st12" d="M62,67.23c0,0,0.66,5.74-2.94,8.69c0,0,5.9,3.91,11.29,0c0,0-2.61-4.39-0.53-11.71
				C69.82,64.21,64,67.46,62,67.23"/>
			<path class="st13" d="M78.89,65.01c0,0-3.56,20.32,10.94,15.69c10.41-3.32,3.69-18.32-1.04-12.09c0,0-0.98,3.02,1.65,3.36
				c0,0-0.91-3.18,1.53-1.93c1.32,0.67-1.01,4.55-2.99,2.17C85.84,68.44,90.36,62.83,78.89,65.01"/>
			<path class="st14" d="M89.85,80.69C89.86,80.69,89.86,80.69,89.85,80.69C89.86,80.69,89.86,80.69,89.85,80.69 M89.89,80.68
				C89.89,80.68,89.89,80.68,89.89,80.68C89.89,80.68,89.89,80.68,89.89,80.68 M89.93,80.67c0,0,0.01,0,0.01,0
				C89.93,80.67,89.93,80.67,89.93,80.67 M89.96,80.66C89.97,80.66,89.97,80.66,89.96,80.66C89.97,80.66,89.97,80.66,89.96,80.66
				 M90,80.65c0,0,0.01,0,0.01,0C90.01,80.64,90,80.64,90,80.65 M90.04,80.63C90.04,80.63,90.04,80.63,90.04,80.63
				C90.04,80.63,90.04,80.63,90.04,80.63 M90.08,80.62c0,0,0.01,0,0.01,0C90.08,80.62,90.08,80.62,90.08,80.62 M90.11,80.61
				c0,0,0.01,0,0.01,0C90.12,80.61,90.11,80.61,90.11,80.61 M90.15,80.6c0,0,0.01,0,0.01,0C90.16,80.59,90.15,80.59,90.15,80.6
				 M90.18,80.58c0,0,0.01,0,0.01,0C90.19,80.58,90.18,80.58,90.18,80.58 M90.22,80.57C90.22,80.57,90.23,80.57,90.22,80.57
				C90.23,80.57,90.22,80.57,90.22,80.57 M90.25,80.56c0,0,0.01,0,0.01,0C90.26,80.55,90.26,80.56,90.25,80.56 M90.29,80.54
				c0,0,0.01,0,0.01,0C90.3,80.54,90.3,80.54,90.29,80.54 M90.32,80.53c0,0,0.01,0,0.01,0C90.33,80.53,90.33,80.53,90.32,80.53
				 M90.36,80.52C90.37,80.51,90.37,80.51,90.36,80.52C90.37,80.51,90.37,80.51,90.36,80.52 M90.39,80.5c0,0,0.01,0,0.01,0
				C90.4,80.5,90.4,80.5,90.39,80.5 M90.43,80.49C90.44,80.49,90.44,80.49,90.43,80.49C90.44,80.49,90.44,80.49,90.43,80.49
				 M90.47,80.48C90.47,80.47,90.47,80.47,90.47,80.48C90.47,80.47,90.47,80.47,90.47,80.48 M90.51,80.46
				C90.51,80.46,90.51,80.46,90.51,80.46C90.51,80.46,90.51,80.46,90.51,80.46 M90.54,80.45C90.54,80.45,90.54,80.45,90.54,80.45
				C90.54,80.45,90.54,80.45,90.54,80.45 M90.61,80.42C90.61,80.42,90.61,80.42,90.61,80.42C90.61,80.42,90.61,80.42,90.61,80.42
				 M90.68,80.39C90.68,80.39,90.68,80.39,90.68,80.39C90.68,80.39,90.68,80.39,90.68,80.39 M90.74,80.36L90.74,80.36
				C90.75,80.36,90.75,80.36,90.74,80.36"/>
			<path class="st13" d="M85.92,81.39c-7.49,0-7.67-9.37-7.32-13.94c0.89-0.3,1.78-0.68,2.63-1.16c0,0,0,0,0,0
				c0.09,0.03,0.18,0.05,0.27,0.07c1.32,0.28,1.49,3.52,1.86,4.66c0.92,2.86,2.39,5.12,5.15,6.06c0.68,0.23,1.37,0.34,2.03,0.34
				c1.8,0,3.45-0.8,4.59-2.12c-0.47,2.04-1.79,3.96-4.37,5.07l0,0c-0.02,0.01-0.04,0.02-0.07,0.03c0,0,0,0,0,0
				c-0.02,0.01-0.04,0.02-0.06,0.03c0,0,0,0,0,0c-0.02,0.01-0.04,0.02-0.06,0.03c0,0,0,0-0.01,0c-0.01,0-0.02,0.01-0.03,0.01
				c0,0,0,0,0,0c-0.01,0-0.02,0.01-0.03,0.01c0,0-0.01,0-0.01,0c-0.01,0-0.02,0.01-0.03,0.01c0,0,0,0-0.01,0
				c-0.01,0-0.02,0.01-0.03,0.01c0,0-0.01,0-0.01,0c-0.01,0-0.01,0.01-0.02,0.01c0,0-0.01,0-0.01,0c-0.01,0-0.02,0.01-0.03,0.01
				c0,0-0.01,0-0.01,0c-0.01,0-0.01,0.01-0.02,0.01c0,0-0.01,0-0.01,0c-0.01,0-0.02,0.01-0.03,0.01c0,0-0.01,0-0.01,0
				c-0.01,0-0.01,0.01-0.02,0.01c0,0-0.01,0-0.01,0c-0.01,0-0.02,0.01-0.03,0.01c0,0-0.01,0-0.01,0c-0.01,0-0.02,0.01-0.02,0.01
				c0,0-0.01,0-0.01,0c-0.01,0-0.02,0.01-0.03,0.01c0,0-0.01,0-0.01,0c-0.01,0-0.01,0-0.02,0.01c0,0-0.01,0-0.01,0
				c-0.01,0-0.02,0.01-0.03,0.01c0,0-0.01,0-0.01,0c-0.01,0-0.02,0.01-0.02,0.01c0,0-0.01,0-0.01,0c-0.01,0-0.02,0.01-0.03,0.01
				c0,0-0.01,0-0.01,0c-0.01,0-0.02,0.01-0.03,0.01c0,0-0.01,0-0.01,0c-0.01,0-0.02,0.01-0.03,0.01c0,0,0,0,0,0
				c-0.01,0-0.02,0.01-0.03,0.01c0,0-0.01,0-0.01,0c-0.01,0-0.02,0.01-0.03,0.01l0,0l0,0C88.34,81.18,87.05,81.39,85.92,81.39"/>
			<path class="st13" d="M81.23,66.29c13.79-28.96-3.56-30.79-3.56-30.79c-3.99-3.56-14.15-7.41-23.93,1.43
				c-0.9,0.82-1.67,1.77-2.31,2.81c0.17,0.39,0.26,0.83,0.26,1.33c0,1.85,0.53,3.7,0.53,5.56c1.45,0.26,2.93,0.21,4.41,0.15
				c1.48-0.06,2.96-0.11,4.44,0.15c3.45,0.6,6.15,2.22,8.18,5.35c2.33,3.58-1,9.58-0.19,13.83C69.55,68.65,76.15,69.18,81.23,66.29"
				/>
			<path class="st15" d="M79.28,48.64c-0.41-1.07-0.87-2.12-1.36-3.16c0.11-0.23,0.2-0.47,0.3-0.72c0.24-0.64,0.69-0.74,1.18-0.74
				c0.12,0,0.25,0.01,0.37,0.01c0.13,0.01,0.25,0.01,0.38,0.01c0.27,0,0.53-0.03,0.77-0.15c0.74-0.36,1.14-1,1.26-1.95
				c0.06-0.48,0-2.38,0.93-2.38c0.06,0,0.12,0.01,0.18,0.02c0.18,0.04,0.36,0.09,0.54,0.11c0.54,0.72,1.38,2.47,1.7,3.64
				c-0.14-0.04-0.26-0.07-0.36-0.07c-0.93,0-0.91,1.59-2.07,3.61c-0.17,0.3-0.42,0.37-0.72,0.37c-0.16,0-0.32-0.02-0.5-0.04
				c-0.18-0.02-0.37-0.04-0.57-0.04c-0.59,0-1.24,0.18-1.86,1.07C79.41,48.31,79.34,48.44,79.28,48.64"/>
			<path class="st14" d="M76.23,68.04L76.23,68.04c0.78-0.13,1.58-0.33,2.37-0.59l0,0C77.81,67.72,77.01,67.91,76.23,68.04"/>
			<path class="st16" d="M73.89,68.24L73.89,68.24c0.74,0,1.53-0.07,2.34-0.2l0,0C75.42,68.18,74.63,68.24,73.89,68.24"/>
			<polyline class="st17" points="78.6,67.45 78.6,67.45 78.6,67.45 78.6,67.45 78.6,67.45 			"/>
			<path class="st14" d="M82.02,64.57c0.07-0.16,0.14-0.31,0.21-0.47C82.16,64.25,82.09,64.41,82.02,64.57L82.02,64.57"/>
			<path class="st17" d="M81.23,66.29L81.23,66.29c0.28-0.58,0.54-1.16,0.8-1.72l0,0C81.77,65.13,81.51,65.7,81.23,66.29"/>
			<path class="st14" d="M82.24,64.08c0-0.01,0.01-0.01,0.01-0.02C82.25,64.07,82.24,64.07,82.24,64.08"/>
			<path class="st18" d="M78.6,67.45L78.6,67.45c0.89-0.3,1.78-0.68,2.63-1.16l0,0c0,0,0,0,0,0c0,0,0,0,0,0
				C80.38,66.77,79.5,67.15,78.6,67.45"/>
			<path class="st13" d="M73.89,68.24c-1.23,0-2.32-0.18-3.16-0.51c0.73-0.89,1.34-1.85,1.86-2.84c0.07-0.13,0.13-0.25,0.19-0.38
				c0.27,0.28,0.91,0.81,2.35,1.52c0.18,0.09,0.38,0.13,0.59,0.13c2.48,0,6.91-5.69,4.61-8.97c-0.56-0.8-1.22-1.11-1.89-1.11
				c-0.6,0-1.21,0.25-1.8,0.61c0.64-0.72,1.23-1.51,1.58-2.3c0.8,0.65,1.72,1.11,2.8,1.24c0.17,0.02,0.33,0.03,0.49,0.03
				c1.73,0,3.26-1.13,4.42-2.62c-0.63,3.1-1.8,6.73-3.69,11.01c0,0.01-0.01,0.01-0.01,0.02c0,0.01,0,0.01-0.01,0.02
				c-0.07,0.16-0.14,0.31-0.21,0.47c-0.25,0.56-0.52,1.14-0.8,1.72l0,0c-0.85,0.48-1.73,0.87-2.63,1.16l0,0
				c-0.79,0.26-1.59,0.46-2.37,0.59l0,0C75.42,68.18,74.63,68.24,73.89,68.24"/>
			<path class="st12" d="M73.56,59.74c0,0,4.27-6.11,6.77-2.55c2.5,3.56-2.94,9.96-5.2,8.84c-2.26-1.13-2.54-1.77-2.54-1.77
				L73.56,59.74"/>
			<path class="st12" d="M52.73,42.66c0,0-0.2,5.21-2.66,11.38c-0.7,1.77-1.78,4.59-0.21,9.93c1.19,4.06,3.52,9.44,10.41,8.92
				c6.52-0.49,10.2-3.98,12.31-8.01c2.22-4.24,2.68-9.11,1.85-13.5C72.81,42.84,56.84,33.59,52.73,42.66"/>
			<path class="st19" d="M52,47.68C52,47.68,52,47.68,52,47.68c0.08-0.4,0.16-0.77,0.23-1.13c0,0,0,0,0,0
				C52.16,46.91,52.09,47.29,52,47.68"/>
			<path class="st20" d="M52.23,46.55C52.23,46.55,52.23,46.55,52.23,46.55c0.03-0.16,0.06-0.32,0.08-0.47h0
				C52.29,46.23,52.26,46.39,52.23,46.55"/>
			<path class="st12" d="M73.39,59.52c-0.58-6.83-2.13-10.5-2.13-10.5c-1.35,0.09-2.7,0.12-4.03,0.12c-3.09,0-6.05-0.2-8.57-0.47
				c-0.08-0.21-0.27-0.52-0.6-0.95c-0.58-0.76-1.42-1.05-2.24-1.05c-0.96,0-1.88,0.4-2.3,0.9c-0.1,0.12-0.19,0.24-0.26,0.35
				c-0.51-0.09-0.93-0.17-1.26-0.24c0.09-0.39,0.16-0.77,0.23-1.13c0.03-0.16,0.06-0.32,0.09-0.47c1.21,0.17,3.07,0.42,5.23,0.66
				l0.98-4.13l0,0l0.75-3.17l0.11,7.49c2.04,0.2,4.25,0.36,6.38,0.44l0,0l0.61-5.76l1.41,5.8c0.08,0,0.17,0,0.25,0
				c1.65,0,3.19-0.07,4.49-0.26c0.08,0.12,0.16,0.24,0.24,0.36c0.41,2.55,0.89,6.13,0.89,8.98C73.67,57.67,73.59,58.72,73.39,59.52
				 M57.09,48.5c-0.85-0.1-1.63-0.21-2.32-0.32c0.23-0.03,0.46-0.04,0.69-0.04c0.6,0,1.18,0.1,1.49,0.28
				C57,48.44,57.05,48.47,57.09,48.5"/>
			<path class="st21" d="M69.49,51.35c-0.33-1.28-2.76-3.47-4.67-2.57c-2.37,1.12-0.08,1.57,1.16,1.52
				c0.62-0.02,1.84,0.55,2.58,1.23C69.82,52.68,69.71,52.22,69.49,51.35L69.49,51.35z"/>
			<path class="st21" d="M53.52,47.58c0.78-0.93,3.28-1.5,4.54,0.14c1.56,2.04-0.07,1.3-1.11,0.69c-0.52-0.31-1.78-0.38-2.67-0.15
				C52.78,48.66,53,48.22,53.52,47.58"/>
			<path class="st21" d="M79.25,59.12c0,0-2.16-0.98-3.49,0.97c-0.51,0.82-0.78,1.61-0.8,2.25c-0.03,0.96,0.77,1.92,1.64,1.55
				c1.72-0.74,0.15-2.08,0.48-2.79C77.25,60.73,77.69,59.55,79.25,59.12L79.25,59.12z"/>
			<path class="st22" d="M67.72,55.05c0.08,1.61-1.17,2.98-2.78,3.07c-1.61,0.09-2.98-1.14-3.06-2.75
				c-0.08-1.61,1.17-2.98,2.78-3.07C66.28,52.21,67.64,53.44,67.72,55.05L67.72,55.05z"/>
			<path class="st23" d="M67.15,55.04c0.06,1.26-0.82,2.34-1.97,2.4c-1.15,0.06-2.13-0.91-2.19-2.17c-0.06-1.26,0.82-2.34,1.97-2.4
				C66.11,52.81,67.09,53.78,67.15,55.04L67.15,55.04z"/>
			<path class="st21" d="M66.17,54.7c0.19,0.6-0.13,1.26-0.73,1.49c-0.59,0.22-1.23-0.08-1.42-0.68c-0.19-0.6,0.13-1.26,0.73-1.49
				C65.35,53.79,65.98,54.1,66.17,54.7L66.17,54.7z"/>
			<path class="st21" d="M64.67,52.3c-1.61,0.09-2.86,1.46-2.78,3.07c0.01,0.14,0.03,0.27,0.05,0.4c0.17-1.39,1.32-2.5,2.76-2.58
				c1.48-0.08,2.74,0.94,3.01,2.35c0.02-0.16,0.03-0.32,0.02-0.49C67.64,53.44,66.28,52.21,64.67,52.3L64.67,52.3z"/>
			<path class="st21" d="M67.85,52.53c0,0-0.81,0.57-1.66,0.49l0.49,0.61C66.68,53.63,67.57,53.53,67.85,52.53L67.85,52.53z"/>
			<path class="st21" d="M68.83,53.36c0,0-1.57,0.34-2.06,0.06l0.51,0.75C67.29,54.17,68.23,54.51,68.83,53.36L68.83,53.36z"/>
			<path class="st22" d="M66.17,54.32c0.07,0.22-0.03,0.45-0.23,0.53c-0.19,0.07-0.41-0.05-0.48-0.26
				c-0.07-0.22,0.03-0.46,0.23-0.53C65.88,53.99,66.1,54.1,66.17,54.32L66.17,54.32z"/>
			<path class="st22" d="M58.31,53.29c-0.27,1.58-1.77,2.61-3.36,2.3c-1.59-0.31-2.66-1.85-2.39-3.43c0.27-1.58,1.77-2.61,3.36-2.3
				C57.51,50.18,58.58,51.71,58.31,53.29L58.31,53.29z"/>
			<path class="st23" d="M57.71,53.38c-0.21,1.24-1.28,2.07-2.39,1.85c-1.11-0.22-1.85-1.4-1.64-2.65c0.21-1.24,1.28-2.07,2.39-1.85
				C57.19,50.95,57.92,52.14,57.71,53.38L57.71,53.38z"/>
			<path class="st21" d="M57.08,52.92c0.06,0.63-0.36,1.19-0.95,1.26c-0.58,0.07-1.11-0.39-1.17-1.02
				c-0.06-0.63,0.36-1.19,0.95-1.26C56.5,51.84,57.02,52.29,57.08,52.92L57.08,52.92z"/>
			<path class="st21" d="M55.92,49.86c-1.59-0.31-3.09,0.72-3.36,2.3c-0.02,0.13-0.03,0.27-0.04,0.4c0.46-1.31,1.81-2.11,3.23-1.83
				c1.45,0.29,2.47,1.6,2.43,3.03c0.05-0.15,0.1-0.31,0.12-0.47C58.58,51.71,57.51,50.18,55.92,49.86L55.92,49.86z"/>
			<path class="st21" d="M53.17,49.23c0,0,0.7,0.71,1.56,0.79l-0.58,0.51C54.14,50.53,53.28,50.27,53.17,49.23L53.17,49.23z"/>
			<path class="st21" d="M52.07,49.87c0,0,1.49,0.62,2.02,0.44l-0.63,0.64C53.46,50.95,52.48,51.11,52.07,49.87L52.07,49.87z"/>
			<path class="st22" d="M57.26,52.59c0.02,0.23-0.13,0.44-0.35,0.46c-0.22,0.02-0.41-0.14-0.43-0.37
				c-0.02-0.23,0.13-0.44,0.35-0.46C57.04,52.19,57.24,52.36,57.26,52.59L57.26,52.59z"/>
			<path class="st24" d="M72.19,44.23c0,0,2.3,11.29,1.16,15.41c0,0,5.46-3.93,5.22-6.93C78.34,49.71,77.99,45.05,72.19,44.23"/>
			<path class="st13" d="M73.36,59.65c0.23-0.82,0.32-1.92,0.31-3.15c0-3-0.53-6.8-0.96-9.37c0.71-0.1,1.34-0.24,1.88-0.42
				c0,0,0,0,0,0l0,0c0,0,0,0,0,0c0,0,0,0,0,0c0,0,0,0,0,0c0,0,0,0,0,0l0,0c0,0,0,0,0,0c0,0,0,0,0,0c0,0,0,0,0,0c0,0,0,0,0,0
				c0,0,0,0,0,0c0,0,0,0,0,0l0,0c0,0,0,0,0,0c0,0,0,0,0,0c0,0,0,0,0,0c0,0,0,0,0,0c0,0,0,0,0,0l0,0c0,0,0,0,0.01-0.01c0,0,0,0,0,0
				l0,0c0,0,0,0,0,0c0,0,0,0,0,0c0,0,0,0,0,0c0,0,0,0,0,0c0,0,0,0,0,0c0,0,0.01-0.01,0.01-0.01c0,0,0,0,0,0c0,0,0,0,0.01,0l0,0
				c0,0,0,0,0-0.01l0,0c0,0,0,0,0,0c0,0,0,0,0.01-0.01l0,0c0,0,0.01-0.01,0.01-0.01c0,0,0,0,0,0c0,0,0,0,0.01-0.01c0,0,0,0,0,0
				c0,0,0,0,0,0c0,0,0,0,0,0c0,0,0.01-0.01,0.01-0.01c0,0,0,0,0,0c0.02-0.02,0.04-0.04,0.06-0.06c0,0,0,0,0,0
				c0,0,0.01-0.01,0.01-0.01c0,0,0,0,0,0c0,0,0.01,0,0.01-0.01c0,0,0.01-0.01,0.01-0.01c0.01-0.01,0.01-0.01,0.02-0.02l0,0
				c0.01-0.01,0.02-0.02,0.02-0.03c0,0,0,0,0,0c0.02-0.02,0.03-0.04,0.05-0.06c0,0,0,0,0,0c0.02-0.03,0.05-0.05,0.07-0.08
				c0,0,0,0,0,0c0.02-0.02,0.03-0.03,0.04-0.05c0,0,0,0,0,0c0.01-0.01,0.02-0.02,0.03-0.03c0,0,0,0,0,0
				c0.01-0.01,0.02-0.02,0.03-0.03c0,0,0,0,0,0c0.02-0.02,0.03-0.04,0.05-0.06c0,0,0,0,0,0c0,0,0,0,0,0c0,0,0,0,0,0c0,0,0,0,0-0.01
				c0,0,0.01-0.01,0.01-0.01c0,0,0,0,0,0l0,0c0,0,0,0,0,0c0,0,0,0,0,0c0-0.01,0.01-0.01,0.01-0.02c0,0,0,0,0-0.01c0,0,0,0,0-0.01
				c0,0,0,0,0,0c0,0,0,0,0-0.01c0,0,0,0,0,0c0,0,0-0.01,0.01-0.01c0.01-0.01,0.01-0.02,0.02-0.03c0,0,0,0,0,0
				c0.13-0.15,0.27-0.31,0.42-0.5c2.51,1.8,2.75,4.96,2.93,7.2c0.01,0.06,0.01,0.13,0.01,0.19C78.59,55.89,73.36,59.65,73.36,59.65"
				/>
			<path class="st13" d="M69.43,30.03c-8.03-1.81-14.61,0.04-17.71,2.98c-3.79,3.59-3.47,9.2-0.91,12.85c0,0,2.89,0.46,6.74,0.88
				l1.73-7.3l0.11,7.49c2.04,0.2,4.25,0.36,6.38,0.44l0.61-5.76l1.41,5.8c2.73,0.01,5.19-0.17,6.81-0.7
				C74.6,46.7,87.28,34.05,69.43,30.03"/>
			<path class="st15" d="M71.79,43.16c-1.43,0-1.62-2.49-2.77-3.51c-0.33-0.3-0.76-0.41-1.23-0.41c-1.07,0-2.33,0.57-3.11,0.77
				c-0.08,0.02-0.15,0.03-0.22,0.03c-0.58,0-0.96-0.62-1.36-1.25c-0.41-0.62-0.84-1.24-1.54-1.24c-0.08,0-0.16,0.01-0.24,0.02
				c-0.38,0.07-1.47,0.65-2.09,0.65c-0.18,0-0.33-0.05-0.4-0.18c-0.45-0.84-0.54-1.62-1.23-2.32c-0.68-0.69-1.43-0.93-2.21-0.93
				c-1.12,0-2.31,0.5-3.47,0.9c0.43-0.48,0.89-0.96,1.39-1.42c1.85-1.71,4.11-2.63,6.46-3.12c0.08,0.66,0.34,1.29,0.86,1.71
				c0.68,0.56,1.47,0.71,2.28,0.71c0.32,0,0.65-0.02,0.97-0.05c0.66-0.06,1.97-0.47,2.97-0.47c0.87,0,1.5,0.32,1.24,1.46
				c-0.33,1.44,0.12,2.48,1.49,2.81c0.05,0.01,0.1,0.02,0.15,0.02c0.93,0,2.17-1.87,3.1-2.48c3.85,3.92-0.22,8.11-0.3,8.14
				C72.24,43.11,72,43.16,71.79,43.16"/>
			<path class="st25" d="M57.54,46.74c-2.16-0.24-4.01-0.48-5.23-0.66l0,0C53.53,46.25,55.39,46.5,57.54,46.74l0.98-4.13l0,0
				L57.54,46.74"/>
			<path class="st14" d="M50.37,45.19c-0.36-0.56-0.7-1.16-0.85-1.79C49.75,44.02,50.04,44.62,50.37,45.19"/>
			<path class="st13" d="M57.54,46.74c-2.16-0.24-4.01-0.48-5.23-0.66c-0.95-0.14-1.51-0.22-1.51-0.22l0,0
				c-0.14-0.22-0.29-0.44-0.43-0.67c-0.33-0.56-0.62-1.16-0.85-1.79c0,0,0,0,0,0c0.52,0.12,1.57,0.39,3.02,0.42c0,0,0,0,0,0
				c0.41,0,1.81-3.03,1.81-3.03s0.22,2.87,0.59,2.87c0,0,0.01,0,0.01,0c1.08-0.17,2.28-0.49,3.57-1.04L57.54,46.74"/>
			<path class="st17" d="M75.65,45.51L75.65,45.51c0.35-0.44,0.76-0.97,1.17-1.59l0,0C76.41,44.54,76,45.08,75.65,45.51"/>
			<path class="st18" d="M72.72,47.12L72.72,47.12c0.71-0.1,1.34-0.24,1.88-0.42c0,0,0,0,0,0c0,0,0,0,0,0
				C74.06,46.88,73.42,47.02,72.72,47.12 M74.6,46.7C74.6,46.7,74.6,46.7,74.6,46.7C74.6,46.7,74.6,46.7,74.6,46.7 M74.6,46.7
				C74.6,46.7,74.6,46.7,74.6,46.7C74.6,46.7,74.6,46.7,74.6,46.7 M74.6,46.7L74.6,46.7L74.6,46.7 M74.61,46.7
				C74.61,46.7,74.61,46.7,74.61,46.7C74.61,46.7,74.61,46.7,74.61,46.7 M74.61,46.69C74.61,46.69,74.61,46.69,74.61,46.69
				C74.61,46.69,74.61,46.69,74.61,46.69 M74.61,46.69C74.61,46.69,74.62,46.69,74.61,46.69C74.62,46.69,74.61,46.69,74.61,46.69
				 M74.62,46.69C74.62,46.68,74.62,46.68,74.62,46.69C74.62,46.68,74.62,46.68,74.62,46.69 M74.62,46.68
				C74.62,46.68,74.62,46.68,74.62,46.68C74.62,46.68,74.62,46.68,74.62,46.68 M74.62,46.68C74.62,46.68,74.62,46.68,74.62,46.68
				C74.62,46.68,74.62,46.68,74.62,46.68 M74.62,46.68C74.62,46.68,74.63,46.67,74.62,46.68C74.63,46.67,74.62,46.68,74.62,46.68
				 M74.63,46.67L74.63,46.67L74.63,46.67 M74.64,46.66C74.64,46.66,74.64,46.66,74.64,46.66C74.64,46.66,74.64,46.66,74.64,46.66
				 M74.64,46.66C74.64,46.66,74.64,46.66,74.64,46.66C74.64,46.66,74.64,46.66,74.64,46.66 M74.64,46.66
				C74.65,46.65,74.65,46.65,74.64,46.66C74.65,46.65,74.65,46.65,74.64,46.66 M74.65,46.65C74.66,46.64,74.66,46.64,74.65,46.65
				C74.66,46.64,74.66,46.64,74.65,46.65 M74.66,46.64C74.66,46.64,74.66,46.64,74.66,46.64C74.66,46.64,74.66,46.64,74.66,46.64
				 M74.67,46.63C74.67,46.63,74.67,46.63,74.67,46.63C74.67,46.63,74.67,46.63,74.67,46.63 M74.68,46.62L74.68,46.62L74.68,46.62
				 M74.69,46.61C74.69,46.61,74.69,46.61,74.69,46.61C74.69,46.61,74.69,46.61,74.69,46.61 M74.7,46.6
				C74.7,46.6,74.7,46.6,74.7,46.6C74.7,46.6,74.7,46.6,74.7,46.6 M74.7,46.6C74.7,46.6,74.7,46.6,74.7,46.6
				C74.7,46.6,74.7,46.6,74.7,46.6 M74.71,46.59C74.71,46.59,74.71,46.59,74.71,46.59C74.71,46.59,74.71,46.59,74.71,46.59
				 M74.77,46.53C74.77,46.53,74.77,46.53,74.77,46.53C74.77,46.53,74.77,46.53,74.77,46.53 M74.78,46.52
				C74.78,46.52,74.78,46.52,74.78,46.52C74.78,46.52,74.78,46.52,74.78,46.52 M74.79,46.51c0,0,0.01-0.01,0.01-0.01
				C74.79,46.5,74.79,46.5,74.79,46.51 M74.81,46.48L74.81,46.48L74.81,46.48 M74.84,46.45C74.84,46.45,74.84,46.45,74.84,46.45
				C74.84,46.45,74.84,46.45,74.84,46.45 M74.89,46.4C74.89,46.39,74.89,46.39,74.89,46.4C74.89,46.39,74.89,46.39,74.89,46.4
				 M74.96,46.32L74.96,46.32C74.96,46.31,74.96,46.31,74.96,46.32 M75.01,46.27C75.01,46.26,75.01,46.26,75.01,46.27
				C75.01,46.26,75.01,46.26,75.01,46.27 M75.04,46.23C75.04,46.23,75.04,46.23,75.04,46.23C75.04,46.23,75.04,46.23,75.04,46.23
				 M75.07,46.19C75.07,46.19,75.08,46.19,75.07,46.19C75.08,46.19,75.07,46.19,75.07,46.19 M75.13,46.13
				C75.13,46.13,75.13,46.13,75.13,46.13C75.13,46.13,75.13,46.13,75.13,46.13 M75.13,46.12C75.13,46.12,75.14,46.12,75.13,46.12
				C75.14,46.12,75.13,46.12,75.13,46.12 M75.14,46.11c0,0,0.01-0.01,0.01-0.01C75.15,46.11,75.14,46.11,75.14,46.11 M75.16,46.1
				L75.16,46.1L75.16,46.1 M75.16,46.09C75.16,46.09,75.16,46.09,75.16,46.09C75.16,46.09,75.16,46.09,75.16,46.09 M75.18,46.07
				C75.18,46.07,75.18,46.07,75.18,46.07C75.18,46.07,75.18,46.07,75.18,46.07 M75.19,46.06C75.19,46.06,75.19,46.06,75.19,46.06
				C75.19,46.06,75.19,46.06,75.19,46.06 M75.2,46.05C75.2,46.05,75.2,46.05,75.2,46.05C75.2,46.05,75.2,46.05,75.2,46.05
				 M75.21,46.04c0.01-0.01,0.01-0.02,0.02-0.03C75.22,46.02,75.22,46.03,75.21,46.04 M75.23,46.01c0.13-0.15,0.27-0.31,0.42-0.5
				l0,0C75.5,45.7,75.36,45.86,75.23,46.01"/>
			<path class="st15" d="M68.05,47.4c-0.08,0-0.17,0-0.25,0l0,0l-0.99-4.07c1.5,0.87,3.52,1.18,5.44,1.18
				c1.77,0,3.46-0.26,4.57-0.59c-0.41,0.61-0.81,1.15-1.17,1.59l0,0c-0.15,0.18-0.29,0.35-0.42,0.5c0,0,0,0,0,0
				c-0.01,0.01-0.01,0.02-0.02,0.03c0,0-0.01,0.01-0.01,0.01c0,0,0,0,0,0c0,0,0,0,0,0.01c0,0,0,0,0,0c0,0,0,0,0,0.01c0,0,0,0,0,0.01
				c0,0.01-0.01,0.01-0.01,0.02c0,0,0,0,0,0c0,0,0,0,0,0l0,0c0,0,0,0,0,0c0,0-0.01,0.01-0.01,0.01c0,0,0,0,0,0.01c0,0,0,0,0,0
				c0,0,0,0,0,0c0,0,0,0,0,0c-0.02,0.02-0.03,0.04-0.05,0.06c0,0,0,0,0,0c-0.01,0.01-0.02,0.02-0.03,0.03c0,0,0,0,0,0
				c-0.01,0.01-0.02,0.02-0.03,0.03c0,0,0,0,0,0c-0.02,0.02-0.03,0.03-0.04,0.05v0c-0.03,0.03-0.05,0.05-0.07,0.08c0,0,0,0,0,0
				c-0.02,0.02-0.04,0.04-0.05,0.06c0,0,0,0,0,0c-0.01,0.01-0.02,0.02-0.02,0.03l0,0c-0.01,0.01-0.01,0.01-0.02,0.02
				c0,0-0.01,0.01-0.01,0.01c0,0,0,0.01-0.01,0.01c0,0,0,0,0,0c0,0-0.01,0.01-0.01,0.01c0,0,0,0,0,0c-0.02,0.02-0.04,0.04-0.06,0.06
				c0,0,0,0,0,0c0,0,0,0.01-0.01,0.01c0,0,0,0,0,0c0,0,0,0,0,0c0,0,0,0,0,0c0,0,0,0-0.01,0.01c0,0,0,0,0,0c0,0-0.01,0.01-0.01,0.01
				l0,0c0,0,0,0-0.01,0.01c0,0,0,0,0,0l0,0c0,0,0,0,0,0.01c0,0,0,0,0,0c0,0,0,0-0.01,0c0,0,0,0,0,0c0,0-0.01,0.01-0.01,0.01
				c0,0,0,0,0,0c0,0,0,0,0,0c0,0,0,0,0,0c0,0,0,0,0,0c0,0,0,0,0,0l0,0c0,0,0,0,0,0c0,0-0.01,0-0.01,0.01l0,0c0,0,0,0,0,0
				c0,0,0,0,0,0c0,0,0,0,0,0s0,0,0,0c0,0,0,0,0,0l0,0c0,0,0,0,0,0c0,0,0,0,0,0c0,0,0,0,0,0c0,0,0,0,0,0c0,0,0,0,0,0c0,0,0,0,0,0l0,0
				c0,0,0,0,0,0c0,0,0,0,0,0c0,0,0,0,0,0c0,0,0,0,0,0l0,0c0,0,0,0,0,0c-0.54,0.18-1.17,0.32-1.88,0.42
				C71.37,47.32,69.77,47.4,68.05,47.4"/>
			<path class="st13" d="M65.77,47.36c-2.13-0.08-4.34-0.24-6.38-0.44l0,0l-0.06-3.95c0.62,0.41,2.9,0.64,3.5,0.81
				c0.02,0.01,0.04,0.01,0.06,0.01c0.49,0,1.2-1.58,1.2-1.58s-0.12,1.5,0.26,1.5c0.01,0,0.02,0,0.03,0c0.71-0.12,0.95-0.1,1.82-0.4
				L65.77,47.36"/>
			<path class="st21" d="M58.94,60.94c-1.32,0.21-2.13-0.47-2.34-1.25c-0.24-0.84,0.19-1.73,1.04-2.17c1.18-0.61,1.15-1.69,1.15-1.7
				c-0.01-0.27,0.18-0.5,0.43-0.51c0.25-0.01,0.46,0.2,0.47,0.47c0,0.07,0.05,1.75-1.67,2.63c-0.45,0.23-0.66,0.62-0.56,1
				c0.1,0.34,0.51,0.69,1.34,0.56c0.25-0.04,0.48,0.15,0.52,0.41C59.36,60.65,59.19,60.9,58.94,60.94L58.94,60.94z"/>
			<path class="st26" d="M54.47,61.69c0,0,2.81,2.15,8.54,1.19c0,0-1.12,4.67-5.24,3.73C54.3,65.82,54.47,61.69,54.47,61.69
				L54.47,61.69z"/>
			<path class="st26" d="M54.47,61.69c0,0,2.81,2.15,8.54,1.19c0,0-1.12,4.67-5.24,3.73C54.3,65.82,54.47,61.69,54.47,61.69
				L54.47,61.69z"/>
			<path class="st27" d="M59.1,64.24c0.89,0.3,1.61,0.83,2.29,1.45c-0.81,0.76-1.97,1.29-3.62,0.92c-1.21-0.28-1.97-0.96-2.46-1.74
				c0.23-0.14,0.47-0.27,0.71-0.39C57.08,64.21,58.23,63.95,59.1,64.24L59.1,64.24z"/>
			<path class="st22" d="M62.79,62.91c-0.74,1.51-2.7,2.63-5.4,1.93c-1.21-0.31-2.27-1.85-2.69-2.99
				C55.47,62.31,58.14,63.63,62.79,62.91L62.79,62.91z"/>
			<path class="st28" d="M57.67,76.29c0,0-4.26,2.66-6.95,11.8c-2.69,9.14-4.88,16.9-4.86,17.75c0.02,0.85,4.68,5,6.52,2.44
				C54.22,105.74,62.29,80.44,57.67,76.29"/>
			<path class="st29" d="M74.86,108.84c1.27-6.15,1.15-13.48,1.15-13.48c-1.08-4.27,0.89-15.98,0.89-15.98
				c-1.57-2.65-6.77-3.92-6.77-3.92c-6.79,2.64-10.33-0.73-10.33-0.73c-0.72,0.46-3.33,2.47-3.33,2.47c0,2.09-2.05,7.27-2.05,7.27
				c-4.46,10.69-3.72,20.08-2.49,25.01C59.13,111.28,68.14,111.89,74.86,108.84"/>
			<path class="st30" d="M56.12,79.36C56.12,79.36,56.12,79.36,56.12,79.36c0.06-0.25,0.12-0.48,0.17-0.71c0,0,0,0,0,0
				C56.24,78.89,56.18,79.12,56.12,79.36"/>
			<path class="st31" d="M63.55,110.98c-3.87,0-7.8-0.57-11.32-1.43v0l0,0l0,0c0,0,0,0,0,0l0,0l0,0c0,0,0,0,0,0c0,0,0,0,0,0
				c0,0,0,0,0,0v0c0,0,0,0,0,0c-0.01-0.04-0.07-0.38-0.15-0.88c0-0.02,0-0.03,0.01-0.05c0.02-0.26-0.02-0.5-0.13-0.71
				c-0.16-1.02-0.35-2.33-0.45-3.42c0,0,0,0,0,0c-0.09-0.9-0.12-1.65-0.03-1.93c0.24-0.79,3.55-17.19,4.65-23.19
				c0.06-0.24,0.12-0.48,0.17-0.7c-0.04,0.47-0.08,0.95-0.13,1.44c-0.42,3.84-1.77,10.34-2.09,14.19c-0.28,3.27-0.92,6.5-0.79,10.84
				c1.75,1.21,3.79,1.93,6.25,1.93c0.88,0,1.82-0.09,2.82-0.29c1.04-0.21,2.03-0.5,2.95-0.89c0.11-0.01,0.23-0.02,0.35-0.03
				c0.03,0.08,0.07,0.17,0.1,0.26c-0.44,0.21-0.84,0.43-1.13,0.65c0,0,0,0,0,0c0,0-0.01,0-0.01,0.01c0,0,0,0,0,0c0,0,0,0,0,0
				c0,0,0,0-0.01,0c0,0,0,0,0,0c0,0-0.01,0-0.01,0.01c0,0,0,0,0,0c-0.01,0.01-0.02,0.01-0.02,0.02l0,0
				c-0.25,0.2-0.39,0.39-0.39,0.57l0,0c0,0,0,0.01,0,0.01l0,0c0,0.01,0,0.01,0,0.02l0,0c0,0,0,0.01,0,0.01l0,0c0,0,0,0,0,0.01
				c0,0,0,0,0,0c0,0,0,0,0,0.01c0,0,0,0,0,0c0,0,0,0,0,0.01c0,0,0,0,0,0c0,0,0,0,0,0.01l0,0c0,0,0,0,0,0.01c0,0,0,0,0,0
				c0,0,0,0,0,0.01v0c0,0,0,0,0,0.01l0,0c0,0,0,0,0,0.01l0,0c0,0,0,0,0,0.01c0,0,0,0,0,0c0,0,0,0,0,0c0,0,0,0,0,0c0,0,0,0,0,0
				c0,0,0,0,0,0c0,0,0,0,0,0c0.1,0.24,0.46,0.34,0.94,0.34c0.39,0,0.87-0.06,1.37-0.15c0.07,0.14,0.15,0.27,0.23,0.41
				c-0.83,0.46-1.53,1.01-1.53,1.54c0,0.09,0.02,0.17,0.06,0.26c0.15,0.31,0.46,0.43,0.86,0.43c0.51,0,1.16-0.2,1.76-0.44
				c0.04,0.06,0.08,0.12,0.13,0.18c-0.3,0.23-0.56,0.48-0.74,0.73C66.04,110.92,64.8,110.98,63.55,110.98 M74.88,107.76
				c-0.16,0-0.27-0.02-0.31-0.07c-0.22-0.28-2.09-5.09-3.66-5.46c-0.11-0.03-0.24-0.04-0.39-0.04c-0.09,0-0.18,0-0.27,0.01
				c1.24-1.54,2.17-3.43,2.74-5.68c0.71-2.81,0.94-5.65,1.77-8.44c-0.26,2.83-0.22,5.85,0.6,8.3c0,0,0,0,0,0
				c0.01,0.02,0.01,0.04,0.02,0.05c0,0,0,0,0,0c0,0.01,0.01,0.02,0.01,0.03c0,0,0,0,0,0c0,0.01,0.01,0.02,0.01,0.03c0,0,0,0,0,0
				c0,0.01,0.01,0.01,0.01,0.02c0,0,0,0,0,0.01c0,0.01,0.01,0.02,0.01,0.03c0,0,0,0,0,0c0,0.01,0.01,0.02,0.01,0.02c0,0,0,0,0,0.01
				c0,0.01,0.01,0.02,0.01,0.03l0,0L76,97.16c-0.04,2.34-0.23,6.61-0.94,10.6C75,107.76,74.94,107.76,74.88,107.76"/>
			<polygon class="st32" points="63.76,76.44 59.53,84.21 56.82,76.92 60.29,74.37 63.76,76.44 			"/>
			<polygon class="st32" points="69.62,74.09 63.76,76.44 65.88,83.73 71.95,76.29 69.62,74.09 			"/>
			<path class="st4" d="M56.48,77.2c0,0-1.01,0.29-1.49,1.85c-0.48,1.55-5.68,23.13-5.88,25.79c-0.2,2.66,2.61,7.15,2.61,7.15
				l0.5-2.44c0,0-1.05-6.04-0.76-7C51.76,101.59,56.58,77.57,56.48,77.2"/>
			<path class="st33" d="M52.23,109.55L52.23,109.55L52.23,109.55L52.23,109.55L52.23,109.55 M52.23,109.55
				C52.23,109.55,52.23,109.55,52.23,109.55S52.23,109.55,52.23,109.55 M52.23,109.55L52.23,109.55L52.23,109.55 M52.23,109.55
				C52.22,109.55,52.22,109.55,52.23,109.55C52.22,109.55,52.22,109.55,52.23,109.55 M52.22,109.55L52.22,109.55L52.22,109.55
				 M52.22,109.55c-0.01-0.04-0.07-0.38-0.15-0.88l0,0C52.16,109.17,52.22,109.5,52.22,109.55 M51.96,107.9
				C51.96,107.9,51.96,107.9,51.96,107.9c-0.16-1.02-0.35-2.33-0.46-3.42c0,0,0,0,0,0C51.61,105.57,51.8,106.88,51.96,107.9"/>
			<path class="st7" d="M51.72,111.99c0,0-0.26-0.42-0.62-1.07c0.66-0.38,1.54-1.47-0.13-1.81c0.08,0.01,0.16,0.01,0.23,0.01
				c0.47,0,0.81-0.12,0.87-0.46c0.08,0.5,0.14,0.84,0.15,0.88c0,0,0,0,0,0v0c0,0,0,0,0,0c0,0,0,0,0,0c0,0,0,0,0,0l0,0l0,0
				c0,0,0,0,0,0l0,0v0L51.72,111.99 M51.96,107.9c-0.33-0.69-1.28-1.2-2.77-1.91c-0.01-0.05-0.02-0.1-0.02-0.16
				c0.48,0.13,0.92,0.22,1.25,0.22c0.21,0,0.38-0.04,0.48-0.12c0.51-0.39,0.42-1.02-0.05-1.69c0.22,0.11,0.44,0.18,0.66,0.24
				C51.61,105.57,51.8,106.88,51.96,107.9"/>
			<path class="st4" d="M74.12,77l-1.36-0.65c-0.48,1.55-7.39,24.92-7.59,27.58c-0.12,1.57,2.8,7.79,7.82,10.89
				c3.45,2.13,9.69,3.29,9.69,3.29l-0.24-3.35c0,0-5.89-1.31-6.77-2.03c-3.78-3.06-7.46-9.3-7.4-10.11
				C68.5,99.63,74.22,77.37,74.12,77"/>
			<path class="st34" d="M72.07,78.65L72.07,78.65c0.31-1.06,0.54-1.83,0.65-2.18C72.61,76.82,72.38,77.59,72.07,78.65 M74.12,77
				L74.12,77L74.12,77 M74.12,77L74.12,77L74.12,77 M74.12,77L74.12,77L74.12,77 M72.72,76.47c0,0,0-0.01,0-0.01
				C72.72,76.46,72.72,76.46,72.72,76.47 M72.72,76.45c0-0.01,0.01-0.02,0.01-0.03C72.73,76.43,72.73,76.44,72.72,76.45
				 M72.73,76.42C72.74,76.42,72.74,76.41,72.73,76.42C72.74,76.41,72.74,76.42,72.73,76.42 M72.74,76.4c0,0,0-0.01,0-0.01
				C72.75,76.39,72.74,76.39,72.74,76.4 M72.75,76.37C72.75,76.37,72.75,76.37,72.75,76.37C72.75,76.37,72.75,76.37,72.75,76.37
				 M72.75,76.36C72.75,76.36,72.75,76.36,72.75,76.36C72.75,76.36,72.75,76.36,72.75,76.36"/>
			<path class="st7" d="M73.42,80.17c-0.4-0.54-0.86-1.05-1.35-1.51c0.31-1.06,0.54-1.83,0.65-2.18c0,0,0-0.01,0-0.01
				c0,0,0-0.01,0-0.01c0,0,0,0,0,0c0-0.01,0.01-0.02,0.01-0.03c0,0,0,0,0,0c0,0,0-0.01,0-0.01c0-0.01,0-0.01,0.01-0.02
				c0,0,0-0.01,0-0.01c0,0,0-0.01,0-0.01c0,0,0,0,0,0c0,0,0,0,0,0c0,0,0,0,0,0c0,0,0-0.01,0-0.01L74.12,77l0,0v0c0,0,0,0,0,0l0,0
				c0,0,0,0,0,0l0,0C74.13,77.11,73.86,78.32,73.42,80.17"/>
			<path class="st35" d="M75.96,116.24c-1.07-0.41-2.11-0.88-2.97-1.42c-0.01-0.01-0.02-0.01-0.03-0.02
				c0.01,0.01,0.02,0.01,0.03,0.02C73.85,115.36,74.89,115.83,75.96,116.24L75.96,116.24 M72.95,114.81c-0.01,0-0.01-0.01-0.02-0.01
				C72.94,114.8,72.95,114.8,72.95,114.81 M72.92,114.79c-0.01,0-0.01-0.01-0.02-0.01C72.91,114.78,72.92,114.78,72.92,114.79
				 M72.9,114.77c-0.01-0.01-0.02-0.01-0.03-0.02C72.88,114.76,72.89,114.77,72.9,114.77 M72.87,114.75
				c-0.01-0.01-0.02-0.01-0.03-0.02C72.85,114.74,72.86,114.75,72.87,114.75 M72.84,114.73c-0.01,0-0.01-0.01-0.02-0.01
				C72.82,114.72,72.83,114.73,72.84,114.73 M72.81,114.71c-0.01,0-0.01-0.01-0.02-0.01C72.79,114.71,72.8,114.71,72.81,114.71
				 M72.78,114.7c-0.01-0.01-0.02-0.01-0.03-0.02C72.76,114.69,72.77,114.69,72.78,114.7 M72.75,114.68
				c-0.01-0.01-0.02-0.01-0.03-0.02C72.74,114.67,72.74,114.67,72.75,114.68 M72.72,114.66c-0.01-0.01-0.02-0.01-0.03-0.02
				C72.71,114.65,72.71,114.65,72.72,114.66 M72.69,114.64c-0.01,0-0.02-0.01-0.02-0.02C72.68,114.63,72.68,114.63,72.69,114.64
				 M72.67,114.62c-0.03-0.02-0.06-0.04-0.08-0.06C72.61,114.59,72.64,114.6,72.67,114.62 M72.58,114.56
				c-0.01-0.01-0.02-0.01-0.02-0.02C72.56,114.55,72.57,114.56,72.58,114.56 M72.55,114.55c-0.03-0.02-0.06-0.04-0.08-0.06
				C72.49,114.51,72.52,114.53,72.55,114.55 M72.47,114.49c-1.1-0.75-2.1-1.65-2.97-2.6C70.37,112.84,71.36,113.74,72.47,114.49"/>
			<path class="st6" d="M75.66,112.75c-0.01-0.01-0.02-0.01-0.03-0.02C75.65,112.74,75.66,112.74,75.66,112.75 M75.63,112.72
				c-0.01-0.01-0.01-0.01-0.02-0.02C75.62,112.71,75.63,112.72,75.63,112.72 M75.61,112.7c-0.01-0.01-0.01-0.01-0.02-0.02
				C75.59,112.69,75.6,112.7,75.61,112.7 M75.58,112.68c-0.01-0.01-0.01-0.01-0.02-0.02l0,0C75.57,112.67,75.58,112.68,75.58,112.68
				"/>
			<path class="st35" d="M69.49,111.89c-0.01-0.01-0.01-0.01-0.02-0.02C69.48,111.88,69.49,111.88,69.49,111.89 M69.47,111.86
				c0-0.01-0.01-0.01-0.01-0.01C69.46,111.85,69.47,111.86,69.47,111.86 M69.45,111.84C69.45,111.84,69.44,111.83,69.45,111.84
				C69.44,111.83,69.45,111.84,69.45,111.84"/>
			<path class="st7" d="M82.68,118.12c0,0-3.51-0.65-6.72-1.88c-1.07-0.41-2.11-0.88-2.97-1.42c-0.01-0.01-0.02-0.01-0.03-0.02
				c0,0,0,0-0.01,0c-0.01,0-0.01-0.01-0.02-0.01c0,0-0.01,0-0.01-0.01c-0.01,0-0.01-0.01-0.02-0.01c0,0-0.01,0-0.01,0
				c-0.01-0.01-0.02-0.01-0.03-0.02l0,0c-0.01-0.01-0.02-0.01-0.03-0.02c0,0,0,0-0.01,0c-0.01,0-0.01-0.01-0.02-0.01
				c0,0-0.01,0-0.01-0.01c-0.01,0-0.01-0.01-0.02-0.01c0,0-0.01,0-0.01,0c-0.01-0.01-0.02-0.01-0.03-0.02c0,0,0,0,0,0
				c-0.01-0.01-0.02-0.01-0.03-0.02c0,0,0,0,0,0c-0.01-0.01-0.02-0.01-0.03-0.02c0,0,0,0-0.01,0c-0.01-0.01-0.02-0.01-0.02-0.02
				c0,0,0,0,0,0c-0.03-0.02-0.06-0.04-0.08-0.06c0,0,0,0,0,0c-0.01-0.01-0.02-0.01-0.02-0.02c0,0,0,0,0,0
				c-0.03-0.02-0.06-0.04-0.08-0.06l0,0c-1.1-0.75-2.1-1.65-2.97-2.6c0,0,0,0,0,0c-0.01-0.01-0.01-0.01-0.02-0.02
				c0,0,0-0.01-0.01-0.01c0-0.01-0.01-0.01-0.01-0.01c0,0-0.01-0.01-0.01-0.01c0,0,0,0-0.01-0.01c-0.1-0.11-0.2-0.22-0.29-0.33
				c0.15-0.07,0.29-0.15,0.43-0.23c0.59-0.33,1.1-0.65,1.27-0.65c0.02,0,0.03,0,0.04,0.01c0.24,0.14,1.79,1.52,2.93,1.97
				c0.16,0.06,0.32,0.11,0.46,0.13c0.1,0.01,0.21,0.02,0.34,0.02c0.28,0,0.61-0.03,0.95-0.08c0.01,0.01,0.01,0.01,0.02,0.02
				c0,0,0,0,0,0c0.01,0.01,0.02,0.01,0.02,0.02c0,0,0,0,0.01,0.01c0.01,0.01,0.01,0.01,0.02,0.02c0,0,0,0,0.01,0
				c0.01,0.01,0.02,0.01,0.03,0.02l0,0c0.16,0.13,0.48,0.28,0.91,0.44c0.16,0.34,0.36,0.68,0.59,1.01l0,0l0,0
				c0,0,0.49-0.15,1.3-0.41c1.88,0.53,3.97,0.99,3.97,0.99L82.68,118.12 M68,110.06c-0.04-0.06-0.09-0.12-0.13-0.18
				c0.1-0.04,0.2-0.08,0.29-0.12c0.39-0.17,0.74-0.34,1.01-0.48C68.84,109.47,68.4,109.75,68,110.06 M66.72,108.09
				c-0.08-0.14-0.16-0.28-0.23-0.41c1.37-0.25,2.84-0.73,2.84-0.73S67.9,107.43,66.72,108.09 M65.74,106.11
				c-0.04-0.09-0.07-0.17-0.1-0.26c0.45-0.06,0.92-0.17,1.37-0.29c0.01,0,0.02,0,0.02,0C66.6,105.73,66.15,105.91,65.74,106.11"/>
			<path class="st12" d="M45.31,111.99c0,0,4.17,1.43,4.78,0.93c0.61-0.5,1-1.58-1-2.22c-2.01-0.65-3.59-2.08-4.1-1.75
				C44.47,109.28,44.3,111.48,45.31,111.99"/>
			<path class="st12" d="M45.41,104.38c0,0,4.66,2.19,5.49,1.56c0.83-0.64,0.07-1.91-1.33-2.95c-1.4-1.04-3.36-1.23-3.85-0.74
				C45.19,102.79,44.88,104.15,45.41,104.38"/>
			<path class="st12" d="M44.15,106.54c0,0,3.24,1.63,3.53,1.71c0.29,0.08,4.3,1.65,4.39,0.37c0.1-1.28-1.3-1.87-3.9-3.09
				c-2.82-1.32-3.57-1.94-4.03-0.9C43.81,105.4,43.73,106.33,44.15,106.54"/>
			<path class="st12" d="M46.9,110.58c0,0,3.53,0.72,4.2,0.35c0.66-0.37,1.55-1.47-0.13-1.81c-1.69-0.34-3.45-0.92-3.77-1.07
				c-0.32-0.15-2.43-1.77-2.75-0.76C44.13,108.29,43.76,108.9,46.9,110.58"/>
			<path class="st19" d="M49.24,113.03c-1.42-0.1-3.93-1.04-3.93-1.04c0,0-0.01,0-0.01-0.01c0,0,0.01,0,0.01,0.01
				c0,0,2.44,0.84,3.86,1.01C49.2,113.01,49.22,113.02,49.24,113.03 M45.3,111.98C45.3,111.98,45.29,111.98,45.3,111.98
				C45.29,111.98,45.3,111.98,45.3,111.98 M45.29,111.98c-0.62-0.33-0.79-1.28-0.69-2.05C44.51,110.69,44.68,111.65,45.29,111.98
				 M44.44,107.29C44.45,107.29,44.45,107.29,44.44,107.29C44.45,107.29,44.45,107.29,44.44,107.29 M44.45,107.29
				C44.45,107.28,44.45,107.28,44.45,107.29C44.45,107.28,44.45,107.28,44.45,107.29 M44.98,106.95L44.98,106.95
				c-0.11-0.06-0.22-0.11-0.32-0.16C44.76,106.84,44.87,106.89,44.98,106.95 M44.66,106.79C44.66,106.79,44.66,106.79,44.66,106.79
				C44.66,106.79,44.66,106.79,44.66,106.79 M44.18,106.55C44.18,106.55,44.18,106.55,44.18,106.55
				C44.18,106.55,44.18,106.55,44.18,106.55 M44.18,106.55C44.18,106.55,44.18,106.55,44.18,106.55
				C44.18,106.55,44.18,106.55,44.18,106.55 M44.16,106.54C44.16,106.54,44.16,106.54,44.16,106.54S44.16,106.54,44.16,106.54
				 M44.16,106.54C44.16,106.54,44.16,106.54,44.16,106.54C44.16,106.54,44.16,106.54,44.16,106.54 M44.16,106.54L44.16,106.54
				L44.16,106.54 M44.15,106.54L44.15,106.54L44.15,106.54 M44.15,106.54L44.15,106.54L44.15,106.54L44.15,106.54L44.15,106.54
				 M44.15,104.62c0-0.01,0.01-0.01,0.01-0.02C44.16,104.61,44.16,104.62,44.15,104.62 M45.62,102.37L45.62,102.37L45.62,102.37
				 M45.62,102.36C45.62,102.36,45.62,102.36,45.62,102.36C45.62,102.36,45.62,102.36,45.62,102.36 M45.63,102.35
				C45.63,102.35,45.63,102.35,45.63,102.35C45.63,102.35,45.63,102.35,45.63,102.35 M45.64,102.34
				C45.64,102.34,45.64,102.34,45.64,102.34C45.64,102.34,45.64,102.34,45.64,102.34 M45.64,102.34
				C45.64,102.34,45.64,102.33,45.64,102.34C45.64,102.33,45.64,102.34,45.64,102.34 M45.65,102.33
				C45.65,102.33,45.65,102.33,45.65,102.33C45.65,102.33,45.65,102.33,45.65,102.33 M45.65,102.32c0.01-0.01,0.02-0.02,0.02-0.03
				C45.67,102.31,45.66,102.31,45.65,102.32 M45.68,102.3c0.01-0.01,0.02-0.02,0.02-0.03C45.69,102.28,45.68,102.29,45.68,102.3
				 M45.7,102.27C45.7,102.27,45.7,102.27,45.7,102.27C45.7,102.27,45.7,102.27,45.7,102.27 M45.71,102.26
				C45.71,102.26,45.71,102.26,45.71,102.26C45.71,102.26,45.71,102.26,45.71,102.26 M45.71,102.26
				C45.72,102.26,45.72,102.25,45.71,102.26C45.72,102.25,45.72,102.26,45.71,102.26"/>
			<path class="st12" d="M49.18,113c-1.42-0.17-3.86-1.01-3.86-1.01c0,0-0.01,0-0.01-0.01c0,0,0,0,0,0c0,0-0.01,0-0.01,0
				c0,0,0,0,0,0c-0.61-0.33-0.78-1.29-0.69-2.05c0.03-0.28,0.1-0.54,0.2-0.73c0.4,0.38,1.06,0.82,2.11,1.38c0,0,0.37,0.08,0.9,0.16
				C47.87,111.69,48.32,112.59,49.18,113"/>
			<path class="st12" d="M47.44,105.17c-1.04-0.5-1.74-0.86-2.22-1c-0.2-0.43,0.02-1.32,0.4-1.8l0,0c0,0,0,0,0-0.01c0,0,0,0,0,0
				c0,0,0,0,0.01-0.01c0,0,0,0,0,0c0,0,0,0,0,0c0,0,0,0,0,0c0,0,0,0,0,0c0,0,0,0,0,0c0,0,0,0,0,0c0,0,0,0,0.01-0.01c0,0,0,0,0,0
				c0.01-0.01,0.02-0.02,0.02-0.03c0,0,0,0,0,0c0.01-0.01,0.02-0.02,0.02-0.03c0,0,0,0,0,0c0,0,0,0,0.01-0.01l0,0c0,0,0,0,0-0.01
				l0,0c0,0,0,0,0.01-0.01l0,0c0.17-0.17,0.51-0.25,0.94-0.25c0.33,0,0.71,0.05,1.12,0.15l-0.05,0.09
				c-0.33,0.81-0.51,1.35-0.57,2.24c-0.01,0.18,0,0.37,0.02,0.55C47.26,105.08,47.35,105.12,47.44,105.17
				C47.44,105.17,47.44,105.17,47.44,105.17"/>
			<path class="st12" d="M47.98,108.32c-0.39-0.13-0.67-0.23-0.77-0.28l0.01,0l-0.01,0l0,0c-0.24-0.11-1.47-1.04-2.22-1.09
				c-0.11-0.06-0.22-0.11-0.32-0.16c0,0-0.01,0-0.01,0c0,0,0,0-0.01,0c-0.24-0.12-0.41-0.21-0.47-0.24c0,0,0,0,0,0h0c0,0,0,0,0,0
				c-0.01,0-0.01-0.01-0.02-0.01c0,0,0,0,0,0h0c0,0,0,0,0,0c0,0,0,0,0,0h0c0,0,0,0,0,0l0,0c0,0,0,0,0,0l0,0l0,0
				c-0.42-0.21-0.34-1.14,0-1.91l0,0c0-0.01,0.01-0.01,0.01-0.02c0.16-0.35,0.35-0.5,0.66-0.5c0.12,0,0.25,0.02,0.4,0.07
				c0,0,0,0,0,0c0.49,0.14,1.19,0.5,2.22,1c-0.26,0.7-0.24,1.41-0.13,2.19c0.04,0.27,0.13,0.55,0.26,0.82
				C47.69,108.22,47.82,108.27,47.98,108.32C47.98,108.32,47.98,108.32,47.98,108.32"/>
			<path class="st12" d="M48.24,110.81c-0.16-0.02-0.3-0.05-0.44-0.07c0,0,0,0,0,0c-0.52-0.09-0.9-0.16-0.9-0.16
				c-1.05-0.56-1.71-1-2.11-1.38c0,0,0,0,0,0c-0.78-0.74-0.56-1.24-0.35-1.9c0,0,0,0,0,0c0,0,0,0,0,0c0,0,0,0,0-0.01l0,0
				c0.08-0.24,0.25-0.33,0.48-0.33c0.02,0,0.04,0,0.06,0c0,0,0,0,0,0l0,0c0.74,0.05,1.98,0.97,2.22,1.09l0,0
				c0.11,0.05,0.39,0.15,0.77,0.28C47.83,109.12,47.95,110.01,48.24,110.81"/>
			<path class="st36" d="M76.53,106.8c0,0-1.74,4.08,0.63,7.39C77.16,114.19,78.72,109.62,76.53,106.8"/>
			<path class="st12" d="M77.29,107.33c0,0-2.5,0.64-2.72,0.36c-0.22-0.28-2.09-5.09-3.66-5.46c-1.57-0.37-7.74,2.07-6.96,3.24
				c0.77,1.17,4.75-0.49,4.75-0.49s-4.92,1.52-4.52,2.51c0.4,1,5.15-0.54,5.15-0.54s-4.71,1.58-4.09,2.93
				c0.63,1.36,4.45-0.9,4.45-0.9s-3.31,1.67-2.53,2.68c0.45,0.58,1.52,0.1,2.4-0.39c0.65-0.36,1.19-0.71,1.3-0.65
				c0.27,0.16,2.26,1.94,3.39,2.1c1.13,0.16,4-0.66,4-0.66L77.29,107.33"/>
			<path class="st37" d="M67.79,111.93c-0.25,0-0.46-0.08-0.61-0.27c0,0,0,0,0,0c0,0,0,0,0,0
				C67.32,111.85,67.54,111.93,67.79,111.93c0.4,0,0.89-0.19,1.36-0.43l0,0C68.68,111.74,68.19,111.93,67.79,111.93"/>
			<path class="st38" d="M69.15,111.5L69.15,111.5c0.15-0.07,0.29-0.15,0.43-0.23c0.59-0.33,1.1-0.65,1.27-0.65l0,0
				c-0.17,0-0.67,0.33-1.27,0.65C69.44,111.35,69.3,111.43,69.15,111.5"/>
			<path class="st37" d="M67.17,111.66C67.17,111.66,67.17,111.66,67.17,111.66C67.17,111.66,67.17,111.66,67.17,111.66
				 M67.17,111.65C67.17,111.65,67.17,111.65,67.17,111.65C67.17,111.65,67.17,111.65,67.17,111.65 M67.16,111.65
				C67.16,111.64,67.16,111.64,67.16,111.65C67.16,111.64,67.16,111.64,67.16,111.65 M67.16,111.64
				C67.16,111.64,67.16,111.64,67.16,111.64C67.16,111.64,67.16,111.64,67.16,111.64 M67.16,111.63
				C67.15,111.63,67.15,111.63,67.16,111.63C67.15,111.63,67.15,111.63,67.16,111.63 M67.15,111.63L67.15,111.63L67.15,111.63
				 M67.15,111.62C67.15,111.62,67.15,111.62,67.15,111.62C67.15,111.62,67.15,111.62,67.15,111.62 M67.14,111.62L67.14,111.62
				L67.14,111.62 M67.14,111.61L67.14,111.61C67.14,111.61,67.14,111.61,67.14,111.61 M67.13,111.6L67.13,111.6L67.13,111.6"/>
			<path class="st39" d="M66.11,110.32c-0.4,0-0.72-0.12-0.86-0.43c-0.04-0.08-0.06-0.17-0.06-0.26c0,0.09,0.02,0.17,0.06,0.26
				C65.4,110.2,65.71,110.32,66.11,110.32c0.51,0,1.16-0.2,1.76-0.44l0,0C67.27,110.12,66.62,110.32,66.11,110.32"/>
			<polyline class="st40" points="67.87,109.88 67.87,109.88 67.87,109.88 67.87,109.88 67.87,109.88 			"/>
			<path class="st38" d="M67.87,109.88L67.87,109.88c0.1-0.04,0.2-0.08,0.29-0.12C68.07,109.8,67.97,109.84,67.87,109.88"/>
			<path class="st39" d="M65.13,107.83c-0.49,0-0.85-0.09-0.94-0.34c0,0,0,0,0,0c0,0,0,0,0,0
				C64.28,107.74,64.64,107.83,65.13,107.83c0.39,0,0.87-0.06,1.37-0.15l0,0C66,107.77,65.52,107.83,65.13,107.83"/>
			<path class="st39" d="M64.18,107.49C64.18,107.49,64.18,107.48,64.18,107.49C64.18,107.48,64.18,107.49,64.18,107.49
				 M64.18,107.48C64.18,107.48,64.18,107.48,64.18,107.48C64.18,107.48,64.18,107.48,64.18,107.48 M64.18,107.48
				C64.18,107.47,64.18,107.47,64.18,107.48C64.18,107.47,64.18,107.47,64.18,107.48 M64.17,107.47
				C64.17,107.47,64.17,107.47,64.17,107.47C64.17,107.47,64.17,107.47,64.17,107.47 M64.17,107.46
				C64.17,107.46,64.17,107.46,64.17,107.46C64.17,107.46,64.17,107.46,64.17,107.46 M64.17,107.46
				C64.17,107.46,64.17,107.45,64.17,107.46C64.17,107.45,64.17,107.46,64.17,107.46 M64.17,107.45
				C64.17,107.45,64.17,107.45,64.17,107.45C64.17,107.45,64.17,107.45,64.17,107.45 M64.17,107.45
				C64.17,107.44,64.17,107.44,64.17,107.45C64.17,107.44,64.17,107.44,64.17,107.45 M64.17,107.44
				C64.17,107.44,64.17,107.44,64.17,107.44C64.17,107.44,64.17,107.44,64.17,107.44 M64.17,107.43
				C64.17,107.43,64.17,107.43,64.17,107.43C64.17,107.43,64.17,107.43,64.17,107.43 M64.16,107.43
				C64.16,107.43,64.16,107.42,64.16,107.43C64.16,107.42,64.16,107.43,64.16,107.43 M64.16,107.42c0,0,0-0.01,0-0.01
				C64.16,107.41,64.16,107.42,64.16,107.42 M64.16,107.41c0-0.01,0-0.01,0-0.02C64.16,107.4,64.16,107.4,64.16,107.41
				 M64.16,107.39c0,0,0-0.01,0-0.01C64.16,107.38,64.16,107.39,64.16,107.39 M64.16,107.38c0-0.18,0.14-0.38,0.39-0.57
				C64.3,107,64.16,107.2,64.16,107.38 M64.55,106.81c0.01-0.01,0.02-0.01,0.02-0.02C64.57,106.79,64.56,106.8,64.55,106.81
				 M64.58,106.79C64.58,106.78,64.58,106.78,64.58,106.79C64.58,106.78,64.58,106.78,64.58,106.79 M64.58,106.78
				C64.59,106.78,64.59,106.77,64.58,106.78C64.59,106.77,64.59,106.78,64.58,106.78 M64.59,106.77
				C64.59,106.77,64.6,106.77,64.59,106.77C64.6,106.77,64.59,106.77,64.59,106.77 M64.6,106.76
				C64.6,106.76,64.61,106.76,64.6,106.76C64.61,106.76,64.6,106.76,64.6,106.76"/>
			<path class="st41" d="M64.73,105.87c-0.35-0.04-0.63-0.16-0.79-0.4c0,0,0,0,0-0.01c0,0,0,0,0,0.01
				C64.1,105.71,64.38,105.83,64.73,105.87 M63.94,105.47C63.94,105.46,63.94,105.46,63.94,105.47
				C63.94,105.46,63.94,105.46,63.94,105.47 M63.94,105.46C63.94,105.46,63.94,105.46,63.94,105.46
				C63.94,105.46,63.94,105.46,63.94,105.46 M63.94,105.45C63.93,105.45,63.93,105.45,63.94,105.45
				C63.93,105.45,63.93,105.45,63.94,105.45 M63.93,105.45C63.93,105.45,63.93,105.44,63.93,105.45
				C63.93,105.44,63.93,105.45,63.93,105.45 M63.93,105.44C63.93,105.44,63.93,105.44,63.93,105.44
				C63.93,105.44,63.93,105.44,63.93,105.44 M63.92,105.43C63.92,105.43,63.92,105.43,63.92,105.43
				C63.92,105.43,63.92,105.43,63.92,105.43 M63.92,105.43C63.92,105.43,63.92,105.42,63.92,105.43
				C63.92,105.42,63.92,105.43,63.92,105.43 M63.92,105.42C63.92,105.42,63.92,105.42,63.92,105.42
				C63.92,105.42,63.92,105.42,63.92,105.42 M63.91,105.41C63.91,105.41,63.91,105.41,63.91,105.41
				C63.91,105.41,63.91,105.41,63.91,105.41 M63.91,105.41C63.91,105.41,63.91,105.4,63.91,105.41
				C63.91,105.4,63.91,105.4,63.91,105.41 M63.91,105.4C63.91,105.4,63.91,105.4,63.91,105.4C63.91,105.4,63.91,105.4,63.91,105.4
				 M63.91,105.39C63.91,105.39,63.91,105.39,63.91,105.39C63.91,105.39,63.91,105.39,63.91,105.39 M63.9,105.39
				C63.9,105.39,63.9,105.38,63.9,105.39C63.9,105.38,63.9,105.39,63.9,105.39 M63.9,105.38C63.9,105.38,63.9,105.38,63.9,105.38
				C63.9,105.38,63.9,105.38,63.9,105.38 M63.9,105.37C63.9,105.37,63.9,105.37,63.9,105.37C63.9,105.37,63.9,105.37,63.9,105.37
				 M63.9,105.37C63.9,105.37,63.9,105.36,63.9,105.37C63.9,105.36,63.9,105.37,63.9,105.37 M63.9,105.36
				C63.89,105.36,63.89,105.36,63.9,105.36C63.89,105.36,63.89,105.36,63.9,105.36 M63.89,105.35
				C63.89,105.35,63.89,105.35,63.89,105.35C63.89,105.35,63.89,105.35,63.89,105.35 M63.89,105.35
				C63.89,105.35,63.89,105.34,63.89,105.35C63.89,105.34,63.89,105.35,63.89,105.35 M63.89,105.34
				C63.89,105.34,63.89,105.34,63.89,105.34C63.89,105.34,63.89,105.34,63.89,105.34 M63.89,105.33
				C63.89,105.33,63.89,105.33,63.89,105.33C63.89,105.33,63.89,105.33,63.89,105.33 M63.89,105.33
				C63.89,105.32,63.89,105.32,63.89,105.33C63.89,105.32,63.89,105.32,63.89,105.33 M63.89,105.32
				C63.89,105.32,63.89,105.32,63.89,105.32C63.89,105.32,63.89,105.32,63.89,105.32 M63.88,105.31
				C63.88,105.31,63.88,105.31,63.88,105.31C63.88,105.31,63.88,105.31,63.88,105.31 M63.88,105.31
				C63.88,105.3,63.88,105.3,63.88,105.31C63.88,105.3,63.88,105.3,63.88,105.31 M63.88,105.3C63.88,105.3,63.88,105.29,63.88,105.3
				C63.88,105.29,63.88,105.3,63.88,105.3 M63.88,105.29C63.88,105.29,63.88,105.29,63.88,105.29
				C63.88,105.29,63.88,105.29,63.88,105.29 M63.88,105.28C63.88,105.28,63.88,105.28,63.88,105.28
				C63.88,105.28,63.88,105.28,63.88,105.28 M63.88,105.28C63.88,105.28,63.88,105.27,63.88,105.28
				C63.88,105.27,63.88,105.28,63.88,105.28 M63.88,105.27C63.88,105.27,63.88,105.27,63.88,105.27
				C63.88,105.27,63.88,105.27,63.88,105.27 M63.88,105.26C63.88,105.26,63.88,105.26,63.88,105.26
				C63.88,105.26,63.88,105.26,63.88,105.26 M63.88,105.26C63.88,105.25,63.88,105.25,63.88,105.26
				C63.88,105.25,63.88,105.25,63.88,105.26 M63.88,105.25c0,0,0-0.01,0-0.01C63.88,105.24,63.88,105.24,63.88,105.25 M63.88,105.24
				C63.88,105.23,63.88,105.23,63.88,105.24C63.88,105.23,63.88,105.23,63.88,105.24 M63.88,105.23
				C63.88,105.23,63.88,105.22,63.88,105.23C63.88,105.22,63.88,105.23,63.88,105.23 M63.88,105.22c0,0,0-0.01,0-0.01
				C63.88,105.21,63.88,105.22,63.88,105.22 M63.88,105.21C63.88,105.2,63.88,105.2,63.88,105.21
				C63.88,105.2,63.88,105.2,63.88,105.21 M63.88,105.2C63.88,105.2,63.88,105.2,63.88,105.2C63.88,105.2,63.88,105.2,63.88,105.2
				 M63.89,105.19C63.89,105.19,63.89,105.19,63.89,105.19C63.89,105.19,63.89,105.19,63.89,105.19 M63.89,105.19
				c0-0.01,0-0.01,0-0.01C63.89,105.18,63.89,105.18,63.89,105.19 M63.89,105.17C63.89,105.17,63.89,105.17,63.89,105.17
				C63.89,105.17,63.89,105.17,63.89,105.17 M63.89,105.16C63.89,105.16,63.89,105.16,63.89,105.16
				C63.89,105.16,63.89,105.16,63.89,105.16 M63.89,105.16c0,0,0-0.01,0-0.01C63.89,105.15,63.89,105.15,63.89,105.16 M63.9,105.14
				C63.9,105.14,63.9,105.14,63.9,105.14C63.9,105.14,63.9,105.14,63.9,105.14 M63.9,105.13C63.9,105.13,63.9,105.13,63.9,105.13
				C63.9,105.13,63.9,105.13,63.9,105.13 M63.9,105.13c0,0,0-0.01,0-0.01C63.9,105.12,63.9,105.12,63.9,105.13 M63.9,105.11
				C63.9,105.11,63.91,105.11,63.9,105.11C63.91,105.11,63.9,105.11,63.9,105.11 M63.91,105.1C63.91,105.1,63.91,105.1,63.91,105.1
				C63.91,105.1,63.91,105.1,63.91,105.1 M63.91,105.1c0-0.01,0.01-0.01,0.01-0.02C63.91,105.08,63.91,105.09,63.91,105.1
				 M63.92,105.07C63.92,105.07,63.92,105.07,63.92,105.07C63.92,105.07,63.92,105.07,63.92,105.07 M63.92,105.07
				c0-0.01,0.01-0.01,0.01-0.02C63.93,105.05,63.92,105.06,63.92,105.07 M63.93,105.04C63.93,105.04,63.93,105.04,63.93,105.04
				C63.93,105.04,63.93,105.04,63.93,105.04 M63.93,105.04c0-0.01,0.01-0.02,0.01-0.02C63.94,105.02,63.94,105.03,63.93,105.04
				 M63.94,105.01C63.95,105.01,63.95,105.01,63.94,105.01C63.95,105.01,63.95,105.01,63.94,105.01 M63.95,105
				c0-0.01,0.01-0.02,0.01-0.02C63.96,104.99,63.95,105,63.95,105 M63.96,104.98C63.96,104.98,63.96,104.98,63.96,104.98
				C63.96,104.98,63.96,104.98,63.96,104.98 M63.97,104.97C63.97,104.97,63.97,104.97,63.97,104.97
				C63.97,104.97,63.97,104.97,63.97,104.97 M63.97,104.97c0-0.01,0.01-0.02,0.01-0.02C63.98,104.95,63.97,104.96,63.97,104.97
				 M63.98,104.94C63.98,104.94,63.99,104.94,63.98,104.94C63.99,104.94,63.98,104.94,63.98,104.94 M63.99,104.93
				c0-0.01,0.01-0.02,0.02-0.02C64,104.92,63.99,104.93,63.99,104.93 M64,104.91C64.01,104.91,64.01,104.91,64,104.91
				C64.01,104.91,64.01,104.91,64,104.91 M64.01,104.9c0.01-0.01,0.01-0.02,0.02-0.02C64.02,104.89,64.01,104.9,64.01,104.9
				 M64.03,104.88C64.03,104.88,64.03,104.87,64.03,104.88C64.03,104.87,64.03,104.88,64.03,104.88 M64.03,104.87
				C64.03,104.87,64.04,104.87,64.03,104.87C64.04,104.87,64.03,104.87,64.03,104.87 M64.04,104.86c0-0.01,0.01-0.01,0.01-0.02
				C64.04,104.85,64.04,104.86,64.04,104.86 M64.05,104.85C64.05,104.84,64.05,104.84,64.05,104.85
				C64.05,104.84,64.05,104.84,64.05,104.85 M64.06,104.84C64.06,104.84,64.06,104.83,64.06,104.84
				C64.06,104.83,64.06,104.84,64.06,104.84 M64.06,104.83c0-0.01,0.01-0.01,0.01-0.02C64.07,104.82,64.07,104.83,64.06,104.83
				 M64.07,104.81C64.08,104.81,64.08,104.81,64.07,104.81C64.08,104.81,64.08,104.81,64.07,104.81 M64.08,104.81
				C64.08,104.8,64.08,104.8,64.08,104.81C64.08,104.8,64.08,104.8,64.08,104.81 M64.09,104.8C64.09,104.8,64.09,104.79,64.09,104.8
				C64.09,104.79,64.09,104.8,64.09,104.8 M64.09,104.79C64.1,104.79,64.1,104.79,64.09,104.79
				C64.1,104.79,64.1,104.79,64.09,104.79 M64.1,104.78C64.1,104.78,64.11,104.78,64.1,104.78C64.11,104.78,64.1,104.78,64.1,104.78
				 M64.11,104.77C64.11,104.77,64.11,104.77,64.11,104.77C64.11,104.77,64.11,104.77,64.11,104.77 M64.12,104.77
				C64.12,104.76,64.12,104.76,64.12,104.77C64.12,104.76,64.12,104.76,64.12,104.77 M64.12,104.76
				C64.12,104.75,64.13,104.75,64.12,104.76C64.13,104.75,64.12,104.75,64.12,104.76 M64.13,104.75
				C64.13,104.75,64.13,104.75,64.13,104.75C64.13,104.75,64.13,104.75,64.13,104.75 M64.14,104.74
				C64.14,104.74,64.14,104.74,64.14,104.74C64.14,104.74,64.14,104.74,64.14,104.74 M64.15,104.73
				C64.15,104.73,64.15,104.73,64.15,104.73C64.15,104.73,64.15,104.73,64.15,104.73 M64.15,104.72
				C64.15,104.72,64.15,104.72,64.15,104.72C64.15,104.72,64.15,104.72,64.15,104.72 M64.16,104.71
				C64.16,104.71,64.16,104.71,64.16,104.71C64.16,104.71,64.16,104.71,64.16,104.71 M64.17,104.71
				C64.17,104.7,64.17,104.7,64.17,104.71C64.17,104.7,64.17,104.7,64.17,104.71 M64.18,104.7C64.18,104.7,64.18,104.7,64.18,104.7
				C64.18,104.7,64.18,104.7,64.18,104.7 M64.24,104.63L64.24,104.63L64.24,104.63"/>
			<path class="st12" d="M74.61,112.75c-0.12,0-0.24-0.01-0.34-0.02c-0.14-0.02-0.3-0.07-0.46-0.13c-1.14-0.45-2.69-1.83-2.93-1.97
				c-0.01-0.01-0.02-0.01-0.04-0.01l0,0l0,0c-0.17,0-0.67,0.33-1.27,0.65c-0.14,0.08-0.28,0.15-0.43,0.23l0,0
				c-0.47,0.24-0.97,0.43-1.36,0.43c-0.25,0-0.46-0.08-0.61-0.27c0,0,0,0,0,0c0,0,0,0,0,0c0,0,0,0,0,0c0,0,0,0,0,0c0,0,0,0,0,0
				c0,0,0,0,0,0c0,0,0,0,0,0c0,0,0,0,0,0c0,0,0,0,0,0c0,0,0,0,0,0c0,0,0,0,0,0c0,0,0,0,0-0.01l0,0c0,0,0,0,0,0c0,0,0,0,0,0
				c0,0,0,0,0,0l0,0c0,0,0-0.01,0-0.01c0,0,0,0,0,0c0,0,0,0,0,0l0,0c-0.45-0.75,1.19-1.83,2.06-2.33c-0.27,0.14-0.63,0.32-1.03,0.49
				c-0.1,0.04-0.19,0.08-0.29,0.12l0,0c-0.6,0.24-1.25,0.44-1.76,0.44c-0.4,0-0.72-0.12-0.86-0.43c-0.04-0.08-0.06-0.17-0.06-0.26
				c0-1.29,4.14-2.68,4.14-2.68l0,0l0,0c0,0-1.47,0.48-2.84,0.73c0,0,0,0,0,0c-0.49,0.09-0.97,0.15-1.37,0.15
				c-0.49,0-0.85-0.09-0.94-0.34c0,0,0,0,0,0c0,0,0,0,0,0c0,0,0,0,0,0c0,0,0,0,0,0c0,0,0,0,0,0c0,0,0,0,0,0c0,0,0,0,0-0.01l0,0
				c0,0,0,0,0-0.01l0,0c0,0,0,0,0-0.01v0c0,0,0,0,0-0.01c0,0,0,0,0,0c0,0,0,0,0-0.01l0,0c0,0,0,0,0-0.01c0,0,0,0,0,0c0,0,0,0,0-0.01
				c0,0,0,0,0,0c0,0,0,0,0-0.01c0,0,0,0,0,0c0,0,0,0,0-0.01l0,0c0,0,0-0.01,0-0.01l0,0c0-0.01,0-0.01,0-0.02l0,0c0,0,0-0.01,0-0.01
				l0,0c0-0.18,0.14-0.38,0.39-0.57l0,0c0.01-0.01,0.02-0.01,0.02-0.02h0c0,0,0,0,0.01-0.01c0,0,0,0,0,0c0,0,0,0,0.01,0c0,0,0,0,0,0
				c0,0,0,0,0,0c0,0,0.01,0,0.01-0.01c0,0,0,0,0,0c0.58-0.45,1.64-0.9,2.53-1.24c-0.67,0.2-1.43,0.37-2.06,0.37
				c-0.12,0-0.23-0.01-0.34-0.02c-0.35-0.04-0.63-0.16-0.79-0.4c0,0,0,0,0-0.01c0,0,0,0,0,0c0,0,0,0,0,0c0,0,0,0,0,0c0,0,0,0,0,0
				c0,0,0,0,0,0c0,0,0,0,0,0v0c0,0,0,0,0-0.01c0,0,0,0,0,0c0,0,0,0,0,0c0,0,0,0,0,0c0,0,0,0,0,0c0,0,0,0,0,0c0,0,0,0,0,0
				c0,0,0,0,0,0c0,0,0,0,0-0.01c0,0,0,0,0,0c0,0,0,0,0,0c0,0,0,0,0,0c0,0,0,0,0,0c0,0,0,0,0,0c0,0,0,0,0,0c0,0,0,0,0,0
				c0,0,0,0,0-0.01c0,0,0,0,0,0c0,0,0,0,0,0c0,0,0,0,0,0c0,0,0,0,0,0c0,0,0,0,0,0c0,0,0,0,0,0c0,0,0,0,0,0c0,0,0,0,0-0.01
				c0,0,0,0,0,0c0,0,0,0,0-0.01c0,0,0,0,0,0c0,0,0,0,0,0c0,0,0,0,0,0c0,0,0,0,0,0c0,0,0,0,0,0c0,0,0,0,0,0c0,0,0,0,0,0
				c0,0,0,0,0-0.01c0,0,0,0,0,0c0,0,0,0,0,0c0,0,0,0,0,0c0,0,0,0,0,0c0,0,0,0,0,0c0,0,0,0,0-0.01c0,0,0,0,0,0c0,0,0,0,0-0.01v0
				c0,0,0,0,0-0.01c0,0,0,0,0,0c0,0,0,0,0,0c0,0,0,0,0,0c0,0,0,0,0-0.01c0,0,0,0,0,0c0,0,0,0,0-0.01l0,0c0,0,0,0,0-0.01c0,0,0,0,0,0
				c0,0,0,0,0-0.01c0,0,0,0,0,0c0,0,0,0,0-0.01v0c0,0,0-0.01,0-0.01v0c0,0,0,0,0-0.01v0c0,0,0,0,0-0.01c0,0,0,0,0,0
				c0,0,0-0.01,0-0.01v0c0,0,0,0,0-0.01v0c0,0,0,0,0-0.01c0,0,0,0,0,0c0,0,0,0,0-0.01l0,0c0-0.01,0-0.01,0-0.01c0,0,0,0,0,0
				c0,0,0,0,0-0.01v0c0,0,0,0,0-0.01l0,0c0,0,0-0.01,0-0.01c0,0,0,0,0,0c0,0,0,0,0-0.01c0,0,0,0,0,0c0,0,0,0,0-0.01c0,0,0,0,0,0
				c0,0,0-0.01,0-0.01l0,0c0,0,0,0,0-0.01c0,0,0,0,0,0c0,0,0,0,0-0.01c0,0,0,0,0,0c0-0.01,0.01-0.01,0.01-0.02c0,0,0,0,0,0
				c0,0,0,0,0-0.01c0,0,0,0,0,0c0-0.01,0.01-0.01,0.01-0.02c0,0,0,0,0,0c0,0,0,0,0-0.01c0,0,0,0,0,0c0-0.01,0.01-0.02,0.01-0.02
				c0,0,0,0,0,0c0,0,0,0,0-0.01c0,0,0,0,0,0c0-0.01,0.01-0.02,0.01-0.02l0,0c0,0,0,0,0-0.01c0,0,0,0,0,0c0,0,0,0,0-0.01l0,0
				c0-0.01,0.01-0.02,0.01-0.02h0c0,0,0-0.01,0-0.01v0c0-0.01,0.01-0.02,0.02-0.02c0,0,0,0,0,0c0,0,0,0,0-0.01c0,0,0,0,0,0
				c0.01-0.01,0.01-0.02,0.02-0.02c0,0,0,0,0,0c0,0,0,0,0.01-0.01l0,0c0,0,0,0,0-0.01c0,0,0,0,0,0c0,0,0.01-0.01,0.01-0.02
				c0,0,0,0,0,0c0,0,0,0,0-0.01c0,0,0,0,0,0c0,0,0,0,0.01-0.01c0,0,0,0,0,0c0-0.01,0.01-0.01,0.01-0.02c0,0,0,0,0,0c0,0,0,0,0-0.01
				c0,0,0,0,0,0c0,0,0,0,0-0.01c0,0,0,0,0,0c0,0,0,0,0.01-0.01c0,0,0,0,0,0c0,0,0,0,0.01-0.01c0,0,0,0,0,0c0,0,0,0,0.01-0.01
				c0,0,0,0,0,0c0,0,0,0,0.01-0.01c0,0,0,0,0,0c0,0,0,0,0-0.01c0,0,0,0,0,0c0,0,0,0,0.01-0.01c0,0,0,0,0,0c0,0,0,0,0,0c0,0,0,0,0,0
				c0,0,0,0,0,0c0,0,0,0,0,0c0,0,0,0,0,0c0,0,0,0,0,0c0,0,0,0,0,0c0,0,0.01-0.01,0.01-0.01c0,0,0,0,0,0c0,0,0,0,0-0.01c0,0,0,0,0,0
				c0,0,0,0,0.01-0.01c0,0,0,0,0,0c0.02-0.02,0.04-0.04,0.07-0.07l0,0c0.87-0.83,3.11-1.8,4.84-2.22c-0.42,2.53,0.75,5.23,2.45,7.05
				c0.99,1.06,2.24,1.56,3.48,1.56c0.79,0,1.57-0.2,2.28-0.6c0.02,0.16,0.03,0.33,0.05,0.49c0,0,0,0,0,0
				c0.04,0.45,0.05,0.91,0.04,1.38c-0.32,0.08-0.69,0.16-1.08,0.24C75.71,112.65,75.08,112.75,74.61,112.75"/>
			<path class="st29" d="M76.53,106.8c0,0,1.39,4.04,0.63,7.39c0,0,17.21-5.26,17.21-7.39c0-2.13-10.15-22.14-17.84-27.76
				c0,0-3.46,11-1.11,17.57l7.98,7.45L76.53,106.8"/>
			<path class="st42" d="M77.16,114.19c0.14-0.62,0.21-1.26,0.22-1.89l0,0C77.37,112.93,77.3,113.57,77.16,114.19L77.16,114.19"/>
			<path class="st43" d="M77.39,112.3c0.01-0.47,0-0.93-0.04-1.38c0,0,0,0,0,0C77.38,111.36,77.4,111.83,77.39,112.3L77.39,112.3"/>
			<path class="st31" d="M77.16,114.19c0.14-0.62,0.21-1.26,0.22-1.89l0,0c0.01-0.47,0-0.93-0.04-1.38c0.83,0.47,1.84,0.64,2.9,0.64
				c1.69,0,3.51-0.45,4.92-0.85c3.27-0.94,6.88-1.77,9.2-3.95l0.01,0.05c0,0.03-0.01,0.07-0.01,0.1
				C93.84,109.09,77.19,114.18,77.16,114.19"/>
			<path class="st44" d="M76,97.16l-0.58-0.54l0,0l0,0L76,97.16L76,97.16 M75.42,96.59C75.42,96.59,75.41,96.59,75.42,96.59
				C75.41,96.59,75.42,96.59,75.42,96.59 M75.41,96.56C75.41,96.56,75.41,96.56,75.41,96.56C75.41,96.56,75.41,96.56,75.41,96.56
				 M75.4,96.54C75.4,96.53,75.4,96.53,75.4,96.54C75.4,96.53,75.4,96.53,75.4,96.54 M75.39,96.51
				C75.39,96.51,75.39,96.51,75.39,96.51C75.39,96.51,75.39,96.51,75.39,96.51 M75.38,96.48C75.38,96.48,75.38,96.48,75.38,96.48
				L75.38,96.48 M75.37,96.45C75.37,96.45,75.37,96.45,75.37,96.45C75.37,96.45,75.37,96.45,75.37,96.45 M75.35,96.39
				C75.35,96.39,75.35,96.39,75.35,96.39C75.35,96.39,75.35,96.39,75.35,96.39"/>
			<path class="st31" d="M83.4,104.06L83.4,104.06L83.4,104.06 M83.4,104.06L76,97.16l-0.58-0.54l0,0c0-0.01-0.01-0.02-0.01-0.03
				c0,0,0,0,0-0.01c0-0.01,0-0.02-0.01-0.02c0,0,0,0,0,0c0-0.01-0.01-0.02-0.01-0.03c0,0,0,0,0-0.01c0-0.01-0.01-0.02-0.01-0.02
				c0,0,0,0,0,0c0-0.01-0.01-0.02-0.01-0.03v0c0-0.01-0.01-0.02-0.01-0.03c0,0,0,0,0,0c-0.01-0.02-0.01-0.04-0.02-0.05c0,0,0,0,0,0
				c-0.78-2.33-0.86-5.17-0.64-7.88c1.19,2.95,1.3,4.5,2.99,7.09C78.72,97.15,81.85,99.74,83.4,104.06"/>
		</g>
	</g>
</g>
</svg>
