<?xml version="1.0" encoding="utf-8"?>
<!-- Generator: Adobe Illustrator 26.0.1, SVG Export Plug-In . SVG Version: 6.00 Build 0)  -->
<svg version="1.1" id="Calque_1" xmlns="http://www.w3.org/2000/svg" xmlns:xlink="http://www.w3.org/1999/xlink" x="0px" y="0px"
	 viewBox="0 0 128 128" style="enable-background:new 0 0 128 128;" xml:space="preserve">
<style type="text/css">
	.st0{fill:#8A1815;}
	.st1{fill:#FCC247;}
	.st2{fill:#FDFCF8;}
	.st3{fill:#FFD665;}
	.st4{fill:#FFD870;}
	.st5{fill:#FFE587;}
	.st6{fill:#E3A220;}
	.st7{fill:#E3AA2C;}
	.st8{fill:#F4AB0D;}
	.st9{fill:#E7DCA2;}
	.st10{fill:#DF9708;}
	.st11{fill:#DA9204;}
	.st12{fill:#D18A0B;}
	.st13{fill:#E2BA6E;}
	.st14{fill:#C99C6D;}
	.st15{fill:#CB8321;}
	.st16{fill:#BE7414;}
	.st17{fill:#E1AB46;}
	.st18{fill:#C78110;}
	.st19{fill:#EFC043;}
	.st20{fill:#FFE688;}
	.st21{fill:#FFE380;}
	.st22{fill:#FFED9C;}
	.st23{fill:#A05016;}
	.st24{fill:#FFE18C;}
</style>
<g>
	<rect class="st0" width="128" height="128"/>
	<path class="st1" d="M52.06,101.91c0,0,9.89-6.46,26.45-0.96c0,0-3.46,4.8-13.74,4.8S52.06,101.91,52.06,101.91"/>
	<path class="st1" d="M52.06,101.91c0,0,9.89-6.46,26.45-0.96c0,0-3.46,4.8-13.74,4.8S52.06,101.91,52.06,101.91"/>
	<polyline class="st2" points="52.06,101.91 52.06,101.91 52.06,101.91 	"/>
	<path class="st3" d="M55.92,103.65c-0.49-0.19-0.94-0.37-1.34-0.55c0,0.01,0,0.02,0,0.02c-1.57-0.67-2.51-1.22-2.51-1.22l0,0l0,0
		l0,0l0,0c0.01-0.01,2.68-1.72,7.51-2.63c-0.24,0.34-0.49,0.67-0.75,0.98C57.9,101.38,56.89,102.49,55.92,103.65"/>
	<path class="st3" d="M74.28,103.39c0.55-1.07,1.11-2.14,1.66-3.21c0.84,0.23,1.69,0.47,2.57,0.76c0,0-0.04,0.05-0.11,0.14
		c-0.51,0.36-1.99,1.34-4.08,2.3c0,0,0-0.01,0-0.01C74.3,103.38,74.29,103.38,74.28,103.39"/>
	<path class="st1" d="M52.06,101.91l-0.36,3.84c0,0,5.39,4.36,13.67,4.36c8.28,0,13.5-4.58,13.5-4.58l-0.28-4.58
		c0,0-6.15,4.58-13.22,4.58C58.29,105.53,52.06,101.91,52.06,101.91"/>
	<path class="st4" d="M68.5,105.24C68.5,105.24,68.5,105.24,68.5,105.24c2.17-0.39,4.15-1.11,5.78-1.85c0,0,0,0.01-0.01,0.01
		C72.65,104.14,70.66,104.86,68.5,105.24"/>
	<path class="st5" d="M74.27,103.4c0,0,0.01-0.01,0.01-0.01c0.01-0.01,0.02-0.01,0.03-0.02c0,0,0,0.01,0,0.01
		C74.3,103.39,74.29,103.4,74.27,103.4"/>
	<path class="st4" d="M68.17,109.93c0.12-1.56,0.23-3.12,0.33-4.69c2.16-0.38,4.15-1.1,5.77-1.84c0.01-0.01,0.03-0.01,0.04-0.02
		c0.27,1.5,0.5,3,0.73,4.51C73.28,108.74,70.95,109.58,68.17,109.93"/>
	<path class="st6" d="M60.79,105.06c-1.84-0.36-3.51-0.89-4.89-1.4c0,0,0.01-0.01,0.01-0.01C57.29,104.17,58.95,104.7,60.79,105.06
		C60.79,105.06,60.79,105.06,60.79,105.06"/>
	<path class="st7" d="M55.91,103.66c-0.48-0.18-0.93-0.36-1.34-0.54c0-0.01,0-0.02,0-0.02c0.41,0.18,0.86,0.36,1.34,0.55
		C55.91,103.65,55.91,103.66,55.91,103.66"/>
	<path class="st6" d="M60.47,109.59c-2.79-0.59-5.03-1.58-6.54-2.41c0.22-1.35,0.44-2.7,0.64-4.05c0.41,0.17,0.85,0.36,1.34,0.54
		c1.38,0.52,3.05,1.04,4.89,1.4C60.7,106.57,60.59,108.08,60.47,109.59"/>
	<path class="st8" d="M63.32,92.57c0,0-1.23,5.88-4.29,9.19c0,0,5.41,4.77,12.49,0c0,0-3.81-3.78-4.39-9.19H63.32"/>
	<path class="st9" d="M68.15,96.49c-0.27-0.67-0.52-1.4-0.71-2.16l0,0C67.63,95.09,67.87,95.81,68.15,96.49
		C68.15,96.49,68.15,96.49,68.15,96.49"/>
	<path class="st10" d="M64.69,97.39c-0.03-0.83-0.05-1.76-0.06-2.8c0.21,0.02,0.43,0.03,0.65,0.03c0.78,0,1.52-0.11,2.16-0.29
		c0.19,0.77,0.43,1.49,0.71,2.16c-0.95,0.41-1.92,0.74-2.92,0.87C65.05,97.38,64.87,97.39,64.69,97.39"/>
	<path class="st9" d="M61.92,96.96C61.92,96.96,61.92,96.96,61.92,96.96c0.41-1.01,0.73-1.96,0.96-2.71c0,0,0,0,0,0
		C62.66,95.01,62.34,95.95,61.92,96.96"/>
	<path class="st10" d="M63.81,97.34c-0.6-0.07-1.25-0.21-1.89-0.38c0.42-1.01,0.73-1.95,0.96-2.71c0.41,0.14,0.87,0.24,1.36,0.31
		C64.12,95.56,63.97,96.49,63.81,97.34"/>
	<path class="st11" d="M65.14,103.88c-1.1,0-2.09-0.19-2.93-0.45c0,0,0.88-2.21,1.6-6.08c0.28,0.03,0.55,0.05,0.82,0.05
		c0.02,0,0.04,0,0.06,0c0.19,4.96,0.78,6.48,0.78,6.48C65.36,103.87,65.25,103.88,65.14,103.88"/>
	<path class="st12" d="M64.63,97.39c-0.26,0-0.54-0.02-0.82-0.05c0.16-0.85,0.31-1.78,0.43-2.79c0.13,0.02,0.25,0.03,0.38,0.04
		c0,1.04,0.03,1.97,0.06,2.8C64.67,97.39,64.65,97.39,64.63,97.39"/>
	<path class="st8" d="M69.78,92.22c0,1.32-2.02,2.4-4.5,2.4c-2.49,0-4.5-1.08-4.5-2.4c0-1.33,2.02-2.4,4.5-2.4
		C67.77,89.82,69.78,90.89,69.78,92.22"/>
	<path class="st1" d="M68.01,90.32c0.58,0.59,0.59,1.69-3.01,1.79c-0.35,0.01-3.9-0.24-2.64-1.7c-0.96,0.44-1.58,1.08-1.58,1.81
		c0,1.32,2.02,2.4,4.5,2.4c2.49,0,4.5-1.08,4.5-2.4C69.78,91.44,69.08,90.76,68.01,90.32"/>
	<path class="st8" d="M70.22,69.34c-1.71,1.01-3.68,1.13-5.6,1.08c-1.66-0.05-3.08-0.37-4.57-0.89c0.99,2.95,3.56,12.34,3.56,21.58
		l0.02,0.02c1.78,1.29,3.2-0.02,3.2-0.02s-0.32-11.63,3.7-21.76C70.52,69.35,70.4,69.34,70.22,69.34"/>
	<path class="st11" d="M64.88,91.64c-0.13-0.02-0.26-0.06-0.4-0.1c0.12-1.07-0.67-9.39-1.33-15.37c0.59,0.18,1.21,0.27,1.83,0.3
		C65.05,82.75,64.88,91.64,64.88,91.64"/>
	<path class="st1" d="M84.55,38.36c0,0,10.26-11.62,16.48-7.59c8.17,5.3,4.85,18.74-6.11,25.67c-9.05,5.73-12.59,5.14-12.97,8.14
		c-0.38,3,2.97,1.69,2.36,0.44c0,0-1.48,0.6-1.29-0.93c0.2-1.53,4.68-2.37,4.13,3.21c-0.21,2.17-3.29,4.61-6.42,2.6
		c-1.85-1.19-2.34-4.45-1.21-7.05c3.56-8.14,10.38-5.43,16.12-14.68c6.17-9.95,0.59-12.57-1.87-11.56c-2.62,1.08-5.82,3.7-9.63,7.95
		L84.55,38.36"/>
	<path class="st13" d="M84.4,44.28L84.4,44.28c1.61-1.78,3.12-3.27,4.51-4.47c0,0,0,0.01,0,0.01C87.51,41.02,86.01,42.49,84.4,44.28
		"/>
	<path class="st6" d="M84.4,44.28c0.35-2.46,0.61-4.75,0.81-6.62c0.04-0.04,0.08-0.08,0.12-0.13c1.45-0.39,2.3-0.65,2.3-0.65
		s0-0.65,0-1.54c0.91-0.81,1.97-1.68,3.11-2.48c-0.87,2.23-1.51,4.61-1.83,6.96C87.52,41.01,86.01,42.49,84.4,44.28"/>
	<path class="st13" d="M79.54,62.82C79.54,62.81,79.54,62.81,79.54,62.82C79.54,62.81,79.54,62.81,79.54,62.82 M79.55,62.78
		C79.55,62.78,79.55,62.78,79.55,62.78C79.55,62.78,79.55,62.78,79.55,62.78 M79.57,62.75C79.57,62.74,79.57,62.74,79.57,62.75
		C79.57,62.74,79.57,62.74,79.57,62.75 M79.58,62.71C79.58,62.71,79.58,62.71,79.58,62.71C79.58,62.71,79.58,62.71,79.58,62.71
		 M79.61,62.65L79.61,62.65L79.61,62.65 M82.88,58.3c0.45-0.37,0.92-0.69,1.4-1c0,0,0,0,0,0C83.8,57.61,83.33,57.93,82.88,58.3"/>
	<path class="st6" d="M83.12,70.64c-0.76,0-1.57-0.21-2.39-0.74l0,0c-1.19-0.77-1.82-2.38-1.81-4.12c0-0.98,0.2-2,0.61-2.93
		c0.01-0.01,0.01-0.02,0.01-0.03c0,0,0-0.01,0-0.01c0-0.01,0.01-0.02,0.01-0.02c0,0,0,0,0,0c0.01-0.01,0.01-0.02,0.01-0.03
		c0,0,0,0,0-0.01c0-0.01,0.01-0.02,0.01-0.03c0,0,0,0,0,0c0.01-0.02,0.02-0.04,0.03-0.06v0c0.91-2,2.02-3.33,3.27-4.35
		c0.45-0.37,0.92-0.69,1.4-0.99c0,0.01-0.01,0.02-0.01,0.02c-1.8,1.13-3.4,2.6-4.63,5.28c0.91-1.29,1.95-2.24,3.06-3.03
		c-0.85,1.34-1.73,3.15-1.78,5.28c-0.06,2.24,1.25,4.15,2.3,5.78C83.18,70.64,83.15,70.64,83.12,70.64"/>
	<path class="st14" d="M95.54,48.33L95.54,48.33L95.54,48.33 M95.57,48.28C95.57,48.28,95.57,48.27,95.57,48.28
		C95.57,48.27,95.57,48.28,95.57,48.28 M95.59,48.25C95.59,48.25,95.59,48.25,95.59,48.25S95.59,48.25,95.59,48.25 M95.61,48.22
		C95.61,48.22,95.61,48.22,95.61,48.22C95.61,48.22,95.61,48.22,95.61,48.22 M95.62,48.2c0.01-0.01,0.01-0.02,0.02-0.04
		C95.63,48.18,95.62,48.19,95.62,48.2 M95.64,48.17c0.06-0.09,0.11-0.18,0.17-0.27C95.75,47.98,95.7,48.07,95.64,48.17 M95.82,47.87
		c0,0,0.01-0.01,0.01-0.01C95.83,47.86,95.82,47.87,95.82,47.87 M98,38.39c-0.67-1.39-1.99-1.98-3.13-1.98c-0.09,0-0.18,0-0.27,0.01
		c-0.02,0-0.05,0-0.07,0c0.11-0.01,0.22-0.02,0.34-0.02C96.01,36.4,97.33,37,98,38.39"/>
	<path class="st15" d="M82.7,59.58c0.68-1.08,1.36-1.86,1.57-2.25c3.42-2.16,7.57-3.12,11.27-9v0c0.01-0.02,0.02-0.03,0.03-0.05
		c0,0,0,0,0,0c0.01-0.01,0.01-0.02,0.02-0.03c0,0,0,0,0,0c0-0.01,0.01-0.02,0.02-0.02c0,0,0,0,0,0c0-0.01,0.01-0.01,0.01-0.02
		c0.01-0.01,0.01-0.02,0.02-0.04l0,0l0,0c0.06-0.09,0.11-0.18,0.17-0.27c0.01-0.01,0.01-0.02,0.02-0.02c0,0,0.01-0.01,0.01-0.01
		c2.84-4.7,3.02-7.71,2.17-9.46c-0.67-1.4-1.99-1.99-3.14-1.99c-0.11,0-0.23,0.01-0.34,0.02c-0.07,0-0.14-0.01-0.21-0.01
		c-0.38,0-0.75,0.06-1.06,0.19l-0.03,0.02c0.46-0.25,0.9-0.48,1.33-0.65c0.29-0.12,0.62-0.19,0.97-0.21
		c0.67,0.05,1.37,0.28,1.98,0.72c0.73,0.73,1.25,1.7,1.54,2.8c0.03-0.02,0.06-0.05,0.09-0.07c0.38,2.08-0.28,5.21-3.02,9.64
		c-0.5,0.8-1,1.52-1.51,2.17c-0.08,0.09-0.16,0.19-0.24,0.28c0.01,0,0.02,0,0.03,0c-1.39,1.73-2.81,2.96-4.23,3.94
		c-0.04,0-0.08-0.01-0.12-0.01c-1.41,0.97-2.86,1.72-4.25,2.53C84.71,58.32,83.67,58.89,82.7,59.58"/>
	<path class="st16" d="M79.64,62.61c1.23-2.68,2.83-4.15,4.63-5.28c-0.21,0.39-0.89,1.17-1.57,2.25
		C81.59,60.37,80.56,61.31,79.64,62.61"/>
	<path class="st3" d="M99.13,39.2c-0.23-1.28-0.86-2.17-1.63-2.73c-0.01-0.01-0.03-0.03-0.04-0.04c1.22-1.4,2.45-2.81,3.74-4.11
		c1.05,0.83,1.83,1.84,2.41,2.95C102.16,36.66,100.66,37.95,99.13,39.2"/>
	<path class="st17" d="M99.04,39.27c-0.28-1.1-0.8-2.07-1.54-2.8c0.77,0.55,1.39,1.44,1.63,2.73C99.1,39.23,99.07,39.25,99.04,39.27
		"/>
	<path class="st3" d="M94.38,51.29c0.07-0.09,0.14-0.18,0.22-0.27c1.34-1.55,2.54-3.24,3.51-5.05c1.66-0.99,3.34-1.94,4.99-2.9
		c0.47-0.27,0.92-0.56,1.38-0.84c-0.31,1.82-0.98,3.7-2,5.51C99.79,49.5,97.35,50.85,94.38,51.29"/>
	<path class="st17" d="M94.35,51.29c0.08-0.09,0.16-0.18,0.24-0.28c-0.07,0.09-0.15,0.18-0.22,0.27
		C94.37,51.29,94.36,51.29,94.35,51.29"/>
	<path class="st3" d="M88.44,59.23c-1.22-0.29-2.42-0.56-3.64-0.56c-0.17,0-0.34,0.01-0.51,0.02c0.49-0.33,0.99-0.64,1.5-0.94
		c1.41-0.75,2.88-1.49,4.37-2.52c0.96,0.09,1.92,0.15,2.88,0.15c0.47,0,0.94-0.02,1.41-0.05c0.39-0.03,0.76-0.09,1.13-0.15
		c-0.26,0.18-0.5,0.37-0.77,0.55C92.22,57.36,90.12,58.44,88.44,59.23"/>
	<path class="st17" d="M85.79,57.75c1.39-0.82,2.84-1.56,4.25-2.53c0.04,0,0.08,0.01,0.12,0.01C88.67,56.25,87.19,57,85.79,57.75"/>
	<path class="st1" d="M46.01,38.36c0,0-10.26-11.62-16.48-7.59c-8.17,5.3-4.85,18.74,6.11,25.67c9.05,5.73,12.59,5.14,12.97,8.14
		c0.38,3-2.97,1.69-2.36,0.44c0,0,1.48,0.6,1.29-0.93c-0.2-1.53-4.68-2.37-4.13,3.21c0.22,2.17,3.3,4.61,6.42,2.6
		c1.85-1.19,2.34-4.45,1.2-7.05c-3.56-8.14-10.38-5.43-16.12-14.68c-6.16-9.95-0.59-12.57,1.87-11.56c2.62,1.08,5.82,3.7,9.63,7.95
		L46.01,38.36"/>
	<path class="st13" d="M45.99,44.08c-1.37-1.5-2.65-2.78-3.86-3.85c0,0,0-0.01,0-0.01C43.34,41.3,44.62,42.59,45.99,44.08"/>
	<path class="st6" d="M46.16,44.28c-0.06-0.06-0.12-0.13-0.17-0.19c-1.37-1.5-2.65-2.79-3.86-3.86c-0.07-0.98-0.13-1.95-0.11-2.94
		c0.02-1.07-0.12-2.07-0.35-3.03c0.45,0.36,0.87,0.73,1.27,1.08c0,0.89,0,1.54,0,1.54s0.82,0.23,2.22,0.58
		c0.07,0.07,0.14,0.14,0.2,0.21C45.55,39.53,45.81,41.82,46.16,44.28"/>
	<path class="st13" d="M51.03,62.82C51.03,62.82,51.03,62.82,51.03,62.82C51.03,62.82,51.03,62.82,51.03,62.82 M51.02,62.79
		C51.01,62.79,51.01,62.79,51.02,62.79C51.01,62.79,51.01,62.79,51.02,62.79 M51,62.77C51,62.77,51,62.76,51,62.77
		C51,62.76,51,62.77,51,62.77 M50.99,62.74C50.99,62.74,50.99,62.74,50.99,62.74C50.99,62.74,50.99,62.74,50.99,62.74"/>
	<path class="st6" d="M47.44,70.64c-0.05,0-0.09,0-0.14,0c1.85-2.69,2.29-5.75,1.51-9.08c-0.14-0.58-0.32-1.14-0.54-1.68
		c0.96,0.73,1.85,1.6,2.65,2.73l0,0l0,0c-0.98-2.14-2.2-3.51-3.57-4.55c0-0.01-0.01-0.01-0.01-0.02c1.4,1.07,2.65,2.46,3.65,4.7
		c0,0,0,0,0,0c0,0.01,0.01,0.01,0.01,0.02c0,0,0,0,0,0.01c0,0.01,0.01,0.01,0.01,0.02c0,0,0,0,0,0.01c0,0.01,0.01,0.01,0.01,0.02
		c0,0,0,0,0,0c0,0.01,0.01,0.02,0.01,0.03c1.11,2.53,0.67,5.68-1.06,6.95c-0.05,0.04-0.1,0.07-0.15,0.1l0,0
		C49.02,70.42,48.21,70.64,47.44,70.64"/>
	<path class="st14" d="M35.01,48.3C35.01,48.3,35.01,48.3,35.01,48.3C35.01,48.3,35.01,48.3,35.01,48.3 M34.99,48.28
		C34.99,48.28,34.99,48.27,34.99,48.28C34.99,48.28,34.99,48.28,34.99,48.28 M34.98,48.26C34.98,48.25,34.98,48.25,34.98,48.26
		C34.98,48.25,34.98,48.25,34.98,48.26 M34.96,48.22C34.96,48.22,34.96,48.22,34.96,48.22C34.96,48.22,34.96,48.22,34.96,48.22
		 M34.95,48.2c-0.01-0.01-0.02-0.03-0.02-0.04C34.93,48.18,34.94,48.19,34.95,48.2 M32.56,38.41c0.67-1.41,1.99-2,3.15-2
		c0.11,0,0.23,0.01,0.33,0.02c-0.02,0-0.05,0-0.07,0c-0.09-0.01-0.18-0.01-0.27-0.01C34.55,36.42,33.23,37.01,32.56,38.41"/>
	<path class="st15" d="M48.27,59.87c-1.09-0.83-2.27-1.48-3.49-2.13c-1.39-0.82-2.84-1.56-4.25-2.53c-0.04,0-0.08,0.01-0.11,0.01
		c-1.41-0.98-2.84-2.21-4.23-3.94c0.01,0,0.02,0,0.03,0l0,0l0,0c-0.08-0.09-0.16-0.19-0.25-0.28c-0.51-0.65-1.01-1.37-1.51-2.17
		c-2.75-4.43-3.4-7.56-3.02-9.64c0.03,0.02,0.06,0.05,0.09,0.07c0.28-1.1,0.8-2.07,1.54-2.8c0.61-0.44,1.31-0.67,1.98-0.72
		c0.35,0.02,0.68,0.09,0.97,0.21c0.43,0.18,0.88,0.4,1.33,0.65l-0.04-0.02c-0.31-0.13-0.68-0.19-1.06-0.19c-0.07,0-0.14,0-0.21,0.01
		c-0.11-0.01-0.22-0.02-0.33-0.02c-1.15,0-2.48,0.6-3.15,2c-0.86,1.79-0.65,4.9,2.37,9.76l0,0c0.01,0.01,0.02,0.02,0.02,0.04
		c0,0,0.01,0.01,0.01,0.02c0,0,0,0,0,0c0.01,0.01,0.01,0.02,0.01,0.02c0,0,0.01,0.01,0.01,0.01c0,0.01,0.01,0.01,0.01,0.02
		c0,0,0,0,0,0.01C35,48.29,35,48.29,35.01,48.3c0,0,0,0,0,0c4.1,6.52,8.74,7.01,12.34,9.75C47.7,58.64,48.01,59.25,48.27,59.87"/>
	<path class="st16" d="M50.92,62.61c-0.8-1.13-1.69-2-2.65-2.73c-0.26-0.63-0.57-1.23-0.92-1.82C48.72,59.1,49.94,60.47,50.92,62.61
		"/>
	<path class="st3" d="M31.44,39.2c-1.53-1.25-3.04-2.54-4.48-3.93c0.57-1.11,1.35-2.12,2.41-2.95c1.28,1.3,2.51,2.71,3.74,4.11
		c-0.01,0.01-0.03,0.03-0.04,0.04C32.3,37.03,31.67,37.92,31.44,39.2"/>
	<path class="st17" d="M31.53,39.27c-0.03-0.02-0.06-0.05-0.09-0.07c0.23-1.28,0.86-2.17,1.63-2.73
		C32.33,37.21,31.81,38.17,31.53,39.27"/>
	<path class="st3" d="M36.18,51.29c-2.97-0.43-5.41-1.79-8.11-3.55c-1.01-1.81-1.69-3.69-2-5.51c0.46,0.28,0.92,0.57,1.38,0.84
		c1.65,0.96,3.34,1.91,4.99,2.9c0.97,1.81,2.17,3.5,3.51,5.05C36.04,51.1,36.11,51.2,36.18,51.29"/>
	<path class="st17" d="M36.21,51.29c-0.01,0-0.02,0-0.03,0c-0.07-0.09-0.14-0.18-0.22-0.28C36.05,51.11,36.13,51.2,36.21,51.29"/>
	<path class="st3" d="M42.12,59.23c-1.68-0.8-3.78-1.88-6.36-3.51c-0.27-0.17-0.51-0.36-0.77-0.55c0.37,0.06,0.74,0.12,1.13,0.15
		c0.47,0.04,0.94,0.05,1.41,0.05c0.96,0,1.92-0.06,2.88-0.15c1.49,1.03,2.96,1.78,4.37,2.52c0.51,0.3,1.01,0.6,1.5,0.94
		c-0.17-0.01-0.34-0.02-0.51-0.02C44.54,58.67,43.35,58.94,42.12,59.23"/>
	<path class="st17" d="M44.78,57.75c-1.41-0.75-2.88-1.49-4.37-2.52c0.04,0,0.08-0.01,0.11-0.01
		C41.94,56.19,43.38,56.93,44.78,57.75"/>
	<path class="st9" d="M68.48,75.96c0.33-1.4,0.72-2.83,1.18-4.25c0,0,0,0,0,0C69.2,73.13,68.81,74.56,68.48,75.96
		C68.48,75.96,68.48,75.96,68.48,75.96 M61.68,75.54C61.68,75.54,61.68,75.54,61.68,75.54c-0.34-1.5-0.69-2.82-0.99-3.9l0,0
		C60.99,72.72,61.34,74.04,61.68,75.54"/>
	<path class="st10" d="M65.37,76.49c-0.13,0-0.26,0-0.38-0.01c-0.02-1.55-0.04-2.94-0.09-3.99c0.13,0,0.26,0.01,0.39,0.01l0,0l0,0
		l0,0c1.52,0,2.98-0.27,4.38-0.77c-0.47,1.42-0.86,2.85-1.18,4.25C67.46,76.3,66.41,76.49,65.37,76.49 M63.15,76.18
		c-0.51-0.15-1-0.36-1.47-0.64c-0.34-1.5-0.69-2.82-0.99-3.9c0.65,0.25,1.32,0.44,2,0.59C62.83,73.28,62.99,74.65,63.15,76.18"/>
	<path class="st18" d="M64.99,76.48c-0.62-0.03-1.24-0.13-1.83-0.3c-0.17-1.52-0.33-2.89-0.46-3.95c0.72,0.15,1.45,0.24,2.2,0.26
		C64.94,73.54,64.97,74.93,64.99,76.48"/>
	<path class="st1" d="M65.28,34.78l-20.34-1.83c0,0,1.34,20.59,5.75,29.02c3.16,6.05,8.44,10.52,14.59,10.52
		c6.15,0,11.43-4.47,14.59-10.52c4.4-8.43,5.75-29.02,5.75-29.02L65.28,34.78"/>
	<path class="st4" d="M66.34,72.44c1.34-3.56,3.19-9.25,3.8-13.94c0.62-4.74,0.97-9.83,1.05-14.93c2.23-0.16,4.91-0.63,7.28-1.55
		c-0.61,5.24-1.49,10.47-3.23,15.48C73.49,62.57,71.26,68.81,66.34,72.44"/>
	<path class="st6" d="M65.28,72.49L65.28,72.49c-0.63,0-1.25-0.06-1.86-0.15c-4.91-5.27-8.29-11.91-9.89-19.75
		c-0.75-3.69-1.14-7.52-1.58-11.35c3.46,1.15,7.43,1.75,11.12,2.07c-0.38,3.75-0.5,7.61-0.5,11.63
		C62.57,66.61,65.28,72.49,65.28,72.49"/>
	<path class="st6" d="M66.05,42.28c-11.62,0-20.57-3.49-20.57-3.49c-0.05-0.45-0.09-0.88-0.14-1.3c4.12,1.01,12.81,2.88,20.54,2.88
		c7.63,0,15.49-1.8,19.33-2.82c-0.04,0.34-0.07,0.7-0.11,1.07C78.61,41.37,71.98,42.28,66.05,42.28"/>
	<path class="st1" d="M65.28,25.53c-12.22,0-22.35,5.06-22.35,5.06v6.28c0,0,12.38,3.5,22.95,3.5c10.65,0,21.75-3.5,21.75-3.5v-6.28
		C87.63,30.59,77.5,25.53,65.28,25.53"/>
	<path class="st1" d="M64.72,34.72c-12.04,0-19.37-3.06-21.78-3.98c0,0.92,0,6.13,0,6.13s12.38,3.5,22.95,3.5
		c10.65,0,21.75-3.5,21.75-3.5s0-5.99,0-6.25C83.87,32.38,75.81,34.72,64.72,34.72"/>
	<path class="st6" d="M54.49,39.34c-2.33-0.37-4.49-0.8-6.29-1.19c0.09-1.81,0.16-3.61,0.18-5.41c1.73,0.54,3.8,1.08,6.21,1.51
		C54.6,35.95,54.57,37.65,54.49,39.34"/>
	<path class="st4" d="M72.41,39.98c0.15-1.77,0.25-3.54,0.24-5.3c1.46-0.18,2.83-0.4,4.12-0.65c0.17,1.75,0.33,3.51,0.45,5.27
		C75.69,39.56,74.08,39.8,72.41,39.98"/>
	<path class="st3" d="M84.73,37.68c-0.16-1.89-0.32-3.79-0.49-5.68c0.85-0.3,1.61-0.6,2.28-0.89c-0.11,2.03-0.13,4.07-0.07,6.1
		C86,37.34,85.42,37.5,84.73,37.68"/>
	<path class="st6" d="M62.01,40.23c-0.89-0.06-1.78-0.14-2.67-0.24c0.03-1.7,0.05-3.39,0.06-5.09c0.88,0.08,1.79,0.14,2.73,0.18
		C62.11,36.8,62.07,38.51,62.01,40.23"/>
	<path class="st1" d="M65.28,25.53c-12.22,0-22.35,5.06-22.35,5.06v0.15c2.41,0.92,9.75,3.28,21.78,3.28
		c11.09,0,19.16-1.64,22.91-3.4v-0.02C87.63,30.59,77.5,25.53,65.28,25.53"/>
	<path class="st3" d="M64.72,34.72c-0.88,0-1.74-0.02-2.58-0.05c0,0,0,0,0,0c-0.95-0.04-1.85-0.09-2.74-0.16c0,0,0,0.01,0,0.01
		c-0.15-0.01-0.31-0.02-0.46-0.04c0.1-0.21,0.2-0.42,0.31-0.63c1.7,0.11,3.52,0.17,5.47,0.17c1.23,0,2.42-0.02,3.57-0.06
		c-0.13,0.23-0.26,0.46-0.39,0.7C66.87,34.7,65.8,34.72,64.72,34.72 M71.45,34.43c0.09-0.21,0.17-0.42,0.26-0.64
		c3.34-0.23,6.28-0.61,8.77-1.08c-0.04,0.1-0.07,0.2-0.11,0.31c-1.12,0.26-2.33,0.51-3.63,0.73c0,0,0-0.01,0-0.01
		c-1.29,0.22-2.64,0.42-4.09,0.57c0,0,0,0,0,0C72.25,34.35,71.85,34.39,71.45,34.43 M56.14,34.17c-0.53-0.07-1.05-0.15-1.55-0.22
		c0,0,0-0.01,0-0.01c-2.4-0.38-4.48-0.86-6.2-1.35c0,0,0,0.01,0,0.01c-0.22-0.06-0.44-0.12-0.65-0.19c0.04-0.06,0.09-0.13,0.13-0.19
		c2.25,0.53,5.14,1.07,8.66,1.41C56.4,33.81,56.27,33.99,56.14,34.17"/>
	<path class="st3" d="M64.84,35.15c-0.93,0-1.83-0.02-2.71-0.06c0-0.14,0-0.28,0.01-0.42c0.83,0.03,1.69,0.05,2.58,0.05
		c1.09,0,2.15-0.02,3.18-0.07c-0.08,0.14-0.16,0.28-0.24,0.43c1.26-0.05,2.47-0.14,3.63-0.26c0.06-0.13,0.11-0.26,0.16-0.4
		c0.4-0.04,0.8-0.07,1.19-0.12c0,0.12,0,0.25,0.01,0.37C70.26,34.97,67.65,35.15,64.84,35.15 M59.4,34.91
		c-1.73-0.16-3.33-0.38-4.81-0.65c0-0.1,0-0.21,0-0.31c0.5,0.08,1.02,0.16,1.55,0.22c-0.07,0.1-0.14,0.2-0.21,0.3
		c0.9,0.14,1.86,0.26,2.85,0.36c0.06-0.12,0.11-0.24,0.17-0.35c0.15,0.01,0.31,0.02,0.46,0.04C59.4,34.65,59.4,34.78,59.4,34.91
		 M76.76,34.03c-0.01-0.09-0.02-0.19-0.03-0.28c1.3-0.22,2.51-0.47,3.63-0.73c-0.02,0.07-0.05,0.13-0.07,0.2
		c1.47-0.39,2.79-0.8,3.95-1.21c0,0,0,0,0,0C82.23,32.72,79.72,33.45,76.76,34.03 M48.38,32.74c-2.64-0.82-4.46-1.62-5.45-2
		c0.89,0.34,2.48,1.03,4.73,1.77c0.02-0.03,0.05-0.07,0.07-0.1c0.21,0.06,0.43,0.12,0.65,0.19C48.38,32.65,48.38,32.7,48.38,32.74
		 M86.52,31.11L86.52,31.11c0.39-0.17,0.74-0.32,1.07-0.48C87.26,30.79,86.91,30.95,86.52,31.11"/>
	<path class="st19" d="M54.59,33.95c-2.41-0.38-4.48-0.87-6.2-1.35c0,0,0-0.01,0-0.01c1.72,0.48,3.8,0.96,6.2,1.35
		C54.59,33.94,54.59,33.95,54.59,33.95"/>
	<path class="st19" d="M54.59,34.26c-2.41-0.43-4.48-0.98-6.21-1.51c0-0.05,0-0.1,0-0.14c1.72,0.48,3.79,0.97,6.2,1.35
		C54.59,34.05,54.59,34.16,54.59,34.26"/>
	<path class="st20" d="M72.64,34.31C72.64,34.31,72.64,34.31,72.64,34.31c1.45-0.16,2.8-0.36,4.09-0.58c0,0,0,0.01,0,0.01
		C75.45,33.96,74.09,34.16,72.64,34.31"/>
	<path class="st20" d="M72.65,34.68c0-0.12,0-0.25-0.01-0.37c1.44-0.15,2.81-0.35,4.09-0.56c0.01,0.09,0.02,0.19,0.03,0.28
		C75.47,34.28,74.1,34.5,72.65,34.68"/>
	<path class="st21" d="M84.24,32C84.24,32,84.24,32,84.24,32c0.85-0.31,1.61-0.6,2.28-0.89l0,0C85.85,31.4,85.09,31.7,84.24,32"/>
	<path class="st3" d="M87.6,30.63c0,0,0.01,0,0.01-0.01C87.6,30.63,87.6,30.63,87.6,30.63"/>
	<path class="st19" d="M62.14,34.68c-0.95-0.03-1.86-0.09-2.74-0.16c0,0,0-0.01,0-0.01C60.29,34.58,61.19,34.64,62.14,34.68
		C62.14,34.67,62.14,34.67,62.14,34.68"/>
	<path class="st19" d="M62.13,35.09c-0.94-0.04-1.85-0.1-2.73-0.18c0-0.13,0-0.26,0-0.39c0.88,0.07,1.79,0.12,2.74,0.16
		C62.14,34.81,62.14,34.95,62.13,35.09"/>
	<path class="st3" d="M64.72,34.02c-1.95,0-3.77-0.06-5.47-0.17c1.37-2.78,2.91-5.49,4.33-8.26c-0.45,0.02-0.9,0.02-1.34,0.05
		c-1.87,2.69-3.8,5.33-5.71,7.99c-3.52-0.35-6.41-0.88-8.66-1.41c1.09-1.56,2.2-3.11,3.32-4.65c-4.95,1.39-8.16,2.98-8.25,3.02
		c0.16-0.08,10.23-5.06,22.34-5.06c12.22,0,22.35,5.06,22.35,5.06l0,0c0,0-2.18-1.08-5.72-2.25c-0.44,1.47-0.92,2.92-1.43,4.36
		c-2.49,0.47-5.43,0.86-8.77,1.08c0.98-2.42,1.9-4.87,2.67-7.38c-0.75-0.14-1.52-0.27-2.31-0.39c-1.04,2.52-2.18,4.99-3.48,7.38
		c-0.1,0.19-0.2,0.37-0.3,0.55C67.13,34,65.94,34.02,64.72,34.02 M42.93,30.59L42.93,30.59L42.93,30.59 M42.93,30.59L42.93,30.59
		L42.93,30.59 M42.94,30.59C42.94,30.59,42.94,30.59,42.94,30.59S42.94,30.59,42.94,30.59"/>
	<polyline class="st2" points="42.93,30.59 42.93,30.59 42.93,30.59 	"/>
	<path class="st5" d="M47.74,32.41c-2.29-0.68-3.9-1.32-4.8-1.67l0,0c0.92,0.35,2.57,0.92,4.93,1.48
		C47.83,32.29,47.78,32.35,47.74,32.41"/>
	<path class="st5" d="M47.67,32.51c-2.25-0.74-3.84-1.43-4.73-1.77l0,0l0,0l0,0c0.91,0.35,2.51,1,4.8,1.67
		C47.71,32.45,47.69,32.48,47.67,32.51"/>
	<path class="st5" d="M47.87,32.22c-2.36-0.56-4.01-1.13-4.93-1.48l0,0l0,0v-0.15l0,0l0,0l0,0l0,0h0l0,0c0,0,0,0,0,0c0,0,0,0,0,0
		c0.09-0.04,3.31-1.64,8.25-3.02C50.07,29.11,48.96,30.66,47.87,32.22"/>
	<path class="st5" d="M58.94,34.48c-0.97-0.08-1.91-0.19-2.8-0.31c0.13-0.18,0.26-0.36,0.39-0.54c0.87,0.08,1.77,0.16,2.72,0.22
		C59.15,34.06,59.04,34.27,58.94,34.48"/>
	<path class="st5" d="M58.77,34.83c-0.99-0.1-1.94-0.22-2.85-0.36c0.07-0.1,0.14-0.2,0.21-0.3c0.89,0.12,1.83,0.22,2.8,0.31
		C58.89,34.6,58.83,34.71,58.77,34.83"/>
	<path class="st5" d="M59.25,33.85c-0.95-0.06-1.85-0.13-2.72-0.22c1.91-2.66,3.84-5.3,5.71-7.99c0.44-0.03,0.9-0.03,1.34-0.05
		C62.16,28.36,60.62,31.07,59.25,33.85"/>
	<polyline class="st4" points="87.59,30.63 87.6,30.63 87.59,30.63 	"/>
	<path class="st5" d="M80.37,33.01c0.04-0.1,0.07-0.2,0.11-0.31c3.12-0.59,5.53-1.33,7.15-2.09c-0.34,0.16-0.7,0.32-1.11,0.48
		c0,0,0-0.01,0-0.01c-0.68,0.27-1.44,0.55-2.29,0.83c0,0,0,0.01,0,0.01C83.1,32.31,81.81,32.67,80.37,33.01"/>
	<path class="st5" d="M80.29,33.21c0.02-0.07,0.05-0.13,0.07-0.2c1.44-0.34,2.73-0.71,3.87-1.08c0,0.02,0,0.04,0.01,0.06
		C83.08,32.41,81.76,32.82,80.29,33.21 M86.52,31.11c0,0,0-0.01,0-0.01c0.4-0.17,0.77-0.33,1.11-0.48l0,0l0,0
		c-0.01,0-0.01,0.01-0.02,0.01c0,0-0.01,0-0.01,0.01c0,0-0.01,0-0.01,0C87.26,30.79,86.91,30.95,86.52,31.11"/>
	<path class="st22" d="M84.24,31.94C84.24,31.93,84.24,31.93,84.24,31.94c0.85-0.29,1.61-0.57,2.29-0.84c0,0,0,0.01,0,0.01
		C85.85,31.38,85.09,31.66,84.24,31.94"/>
	<path class="st22" d="M84.24,32c0-0.02,0-0.04-0.01-0.06c0.85-0.28,1.61-0.56,2.29-0.84c0,0,0,0.01,0,0.01
		C85.85,31.4,85.09,31.7,84.24,32"/>
	<path class="st5" d="M80.48,32.71c0.52-1.44,0.99-2.89,1.43-4.36c3.54,1.16,5.72,2.25,5.72,2.25v0.02l0,0l0,0
		C86.01,31.38,83.59,32.11,80.48,32.71"/>
	<path class="st5" d="M67.9,34.66c0.13-0.23,0.26-0.46,0.39-0.7c1.18-0.04,2.33-0.1,3.42-0.17c-0.09,0.21-0.17,0.42-0.26,0.64
		C70.31,34.53,69.12,34.61,67.9,34.66"/>
	<path class="st5" d="M67.65,35.08c0.08-0.14,0.16-0.28,0.24-0.43c1.23-0.05,2.41-0.13,3.55-0.23c-0.05,0.13-0.11,0.26-0.16,0.4
		C70.12,34.94,68.91,35.03,67.65,35.08"/>
	<path class="st5" d="M68.28,33.96c0.1-0.18,0.2-0.37,0.3-0.55c1.3-2.39,2.44-4.86,3.48-7.38c0.79,0.11,1.56,0.25,2.31,0.39
		c-0.78,2.51-1.69,4.96-2.67,7.38C70.61,33.87,69.47,33.92,68.28,33.96"/>
	<path class="st23" d="M65.28,27.75c-9.05,0-16.56,2.62-16.56,2.62v0.11c1.79,0.68,7.22,2.43,16.14,2.43
		c8.22,0,14.2-1.21,16.98-2.52v-0.02C81.84,30.38,74.34,27.75,65.28,27.75L65.28,27.75z"/>
	<path class="st24" d="M42.93,30.59c0,0,5.81,4.9,22.69,4.9s22-4.88,22-4.88s-7.11,4.14-22.07,4.14
		C50.61,34.76,42.93,30.59,42.93,30.59L42.93,30.59z"/>
	<path class="st24" d="M42.93,36.53v-0.06c0,0.25,0,0.4,0,0.4s12.38,3.5,22.95,3.5c10.65,0,21.75-3.5,21.75-3.5s0-0.13,0-0.34
		c0,0-11.09,3.5-21.75,3.5C55.31,40.03,42.93,36.53,42.93,36.53L42.93,36.53z"/>
	<path class="st24" d="M52.14,101.91c0,0,6.61,3.29,13.33,3.29c6.72,0,13.11-4.25,13.11-4.25s-5.56,4.8-13.11,4.8
		S52.14,101.91,52.14,101.91L52.14,101.91z"/>
</g>
</svg>
