<?xml version="1.0" encoding="utf-8"?>
<!-- Generator: Adobe Illustrator 26.0.1, SVG Export Plug-In . SVG Version: 6.00 Build 0)  -->
<svg version="1.1" id="Calque_1" xmlns="http://www.w3.org/2000/svg" xmlns:xlink="http://www.w3.org/1999/xlink" x="0px" y="0px"
	 viewBox="0 0 128 128" style="enable-background:new 0 0 128 128;" xml:space="preserve">
<style type="text/css">
	.st0{fill:#FFF484;}
	.st1{fill:#AEAEAE;}
	.st2{fill:#E5E4E4;}
	.st3{fill:#898A8A;}
	.st4{fill:#6E766B;}
	.st5{fill:#FCC247;}
	.st6{fill:#FFE397;}
	.st7{fill:#FFEDC1;}
	.st8{fill:#BCBCB6;}
	.st9{fill:#A3A8A2;}
	.st10{fill:#C7C8C5;}
	.st11{fill:#525A4F;}
	.st12{fill:#3FBEE0;}
	.st13{fill:#91999D;}
	.st14{fill:#AFDDEC;}
	.st15{fill:#FFFDF7;}
	.st16{fill:#8EC9C9;}
	.st17{fill:#848781;}
	.st18{fill:#9DCECB;}
	.st19{fill:#E8E0CB;}
	.st20{fill:#8B8B8B;}
</style>
<g>
	<rect y="0" class="st0" width="128" height="128"/>
	<g>
		<path class="st1" d="M79.08,34.71c-1.45-2.59-0.29-6.78-1.1-7.76c-1.05-1.26-6.56-3.43-13.62-3.44c-7.06,0-12.57,2.18-13.62,3.44
			c-0.81,0.97,0.35,5.17-1.1,7.76c-1.59,2.84-5.75,4.03-5.75,4.03c1.07,1.66,1.84,0.76,1.84,0.76s3.55-1.17,5.24-3.5
			c1.83-2.53,1.09-6.23,2.13-6.78c0.9-0.48,2.88-0.82,4.94-1.04c1.9-0.21,4.1-0.29,6.32-0.29c2.22-0.01,4.41,0.08,6.32,0.29
			c2.06,0.22,4.04,0.55,4.94,1.04c1.03,0.56,0.29,4.25,2.13,6.78c1.69,2.34,5.24,3.5,5.24,3.5s0.77,0.89,1.84-0.76
			C84.82,38.74,80.66,37.55,79.08,34.71"/>
		<path class="st2" d="M78.19,27.43c-0.01,0.1-0.01,0.19-0.03,0.29c-0.47,3.19-0.59,6.95,2.24,8.94c1.03,0.73,1.89,1.46,3.1,1.59
			c-1.36-0.59-3.41-1.73-4.42-3.54C77.8,32.43,78.55,28.9,78.19,27.43"/>
		<path class="st2" d="M50.94,31.45c-0.04-1.33-0.45-2.71-0.4-4.04c-0.38,1.45,0.38,5.01-0.9,7.3c-1.41,2.52-4.85,3.74-5.6,3.98
			C47.46,38.55,51.07,35.39,50.94,31.45"/>
		<path class="st2" d="M77.72,26.7c-1.51-1.28-6.75-3.18-13.36-3.19c-6.49,0-11.67,1.85-13.27,3.12c5.04-2.42,10.75-2.48,16.23-2.21
			C68.63,24.49,72.95,24.85,77.72,26.7L77.72,26.7z"/>
		<path class="st3" d="M79.58,36.77c-2.42-1.45-2.05-4.79-2.35-7.34c-0.14-1.17-0.4-1.91-1.39-2.38c-2.01-0.94-7.19-2.03-12.83-1.85
			c-3.12,0.1-6.04,0.41-9.42,1.37c-2.38,0.67-2.37,1.72-2.26,5.06c0.12,3.63-1.62,5.33-4.03,6.49l0.26,0.12
			c2.46-1.19,4.57-2.85,4.5-6.25c-0.02-1.17-0.02-2.61,0.37-3.25c0.77-1.25,8.71-1.86,12.8-1.74c0.83,0.02,6.22,0.48,6.36,0.5
			c1.14,0.15,2.85,0.33,3.7,0.72c1.17,0.53,1.3,1.45,1.52,3.41c0.24,2.18,0.54,3.73,2.05,5.34c0.52,0.55,1.08,0.98,1.66,1.37
			l0.13-0.07c0.23-0.14,0.44-0.29,0.66-0.45C80.72,37.5,80.14,37.11,79.58,36.77L79.58,36.77z"/>
		<path class="st2" d="M35.89,43.7l-2.24-3.27c-0.65-0.94-0.5-2.27,0.34-3.01l0.03-0.03c0.81-0.73,2-0.66,2.74,0.15l2.66,2.93
			C39.41,40.46,38.66,43.41,35.89,43.7"/>
		<path class="st1" d="M35.28,40.13c-0.52-1.06-0.72-2.11-0.6-3.12c-0.23,0.08-0.46,0.19-0.66,0.37l-0.03,0.03
			c-0.83,0.75-0.98,2.07-0.34,3.01l2.24,3.27c0.56-0.06,1.03-0.24,1.43-0.47C36.54,42.29,35.81,41.2,35.28,40.13"/>
		<path class="st2" d="M92.83,43.7l2.24-3.27c0.64-0.94,0.5-2.27-0.34-3.01l-0.03-0.03c-0.81-0.73-2-0.66-2.74,0.15l-2.66,2.93
			C89.31,40.46,90.06,43.41,92.83,43.7"/>
		<path class="st1" d="M94.73,37.41l-0.03-0.03l-0.11-0.07c0.06,0.52,0.06,1.04-0.09,1.59c-0.23,0.87-0.92,1.71-1.46,2.37
			c-0.57,0.69-1.18,1.3-1.84,1.84c0.45,0.29,0.98,0.51,1.63,0.58l2.24-3.27C95.71,39.48,95.56,38.16,94.73,37.41"/>
		<polyline class="st4" points="41.47,52.35 45.71,58.17 49.68,54.58 45.71,49.57 41.47,52.35 		"/>
		<path class="st5" d="M34.61,63.81c0,0-11.22-10.07,2.46-22.27c11.29-10.07,19.36,1.15,19.36,1.15S44.82,55.5,34.61,63.81"/>
		<polyline class="st4" points="87.25,52.35 83,58.17 79.03,54.58 83,49.57 87.25,52.35 		"/>
		<path class="st5" d="M94.11,63.81c0,0,11.22-10.07-2.46-22.27c-11.29-10.07-19.36,1.15-19.36,1.15S83.9,55.5,94.11,63.81"/>
		<path class="st6" d="M83.09,40.27c-0.61-0.39-0.92-1.06-0.69-1.55c0.17-0.37,0.64-0.63,1.14-0.63c0.22,0,0.45,0.05,0.66,0.16
			c0.68,0.37,1.05,1.16,0.7,1.79C84.3,40.07,83.69,40.15,83.09,40.27"/>
		<path class="st7" d="M83.97,40.54c-0.24,0-0.5-0.06-0.76-0.2c-0.04-0.02-0.08-0.05-0.12-0.07c0.6-0.12,1.2-0.19,1.81-0.23
			c0,0-0.01,0.01-0.01,0.01C84.71,40.36,84.37,40.54,83.97,40.54"/>
		<path class="st6" d="M47.19,40.66c-1.12-0.34-2.26-0.56-3.41-0.62c0.24-0.42,0.66-0.8,1.2-1.02c0.31-0.12,0.62-0.18,0.91-0.18
			c0.66,0,1.2,0.3,1.39,0.83C47.38,39.98,47.34,40.33,47.19,40.66"/>
		<path class="st7" d="M45.02,41.98c-0.65,0-1.2-0.3-1.39-0.83c-0.12-0.36-0.06-0.75,0.14-1.11c1.15,0.07,2.29,0.28,3.41,0.62
			c-0.22,0.47-0.67,0.9-1.26,1.14C45.62,41.92,45.31,41.98,45.02,41.98"/>
		<path class="st4" d="M79.16,99.08c0,0,4.11,8.54,3.34,8.92c-0.76,0.38-6.45-7.13-6.45-7.13L79.16,99.08"/>
		<path class="st8" d="M50.54,103.58l-0.05-0.02c-0.65-0.23-2.02-0.19-2.58-0.87c0.84-1.91,1.65-3.61,1.65-3.61l3.11,1.78
			C52.67,100.86,51.72,102.12,50.54,103.58"/>
		<path class="st4" d="M49.56,99.08c0,0-4.11,8.54-3.34,8.92c0.76,0.38,6.45-7.13,6.45-7.13L49.56,99.08L49.56,99.08z"/>
		<path class="st9" d="M48.07,95.81c-0.29,0.63-1.22,2.91,0.08,4.22c1.52,1.53,3.82,2.26,4.16,2.36c0.97,0.29,2.64-0.32,4.05-2.93
			C56.37,99.46,50.33,97.88,48.07,95.81L48.07,95.81z"/>
		<path class="st10" d="M54.12,98.78c-0.1,0.13-0.19,0.28-0.29,0.41c-0.83,1.01-1.58,2.15-2.71,2.76c0.6,0.26,1.06,0.41,1.2,0.45
			c0.97,0.29,2.64-0.32,4.05-2.93C56.37,99.46,55.41,99.21,54.12,98.78L54.12,98.78z"/>
		<path class="st10" d="M49.91,97.51c0.04-0.13,0.09-0.27,0.13-0.4c-0.77-0.4-1.47-0.84-1.97-1.3c-0.29,0.63-1.22,2.91,0.08,4.22
			c0.31,0.31,0.65,0.58,1,0.82C49,99.59,49.51,98.68,49.91,97.51L49.91,97.51z"/>
		<path class="st8" d="M76.05,100.86C76.05,100.86,76.05,100.86,76.05,100.86C76.05,100.86,76.05,100.86,76.05,100.86 M76.05,100.86
			C76.05,100.86,76.04,100.86,76.05,100.86L76.05,100.86C76.04,100.86,76.05,100.86,76.05,100.86 M79.16,99.08L79.16,99.08
			L79.16,99.08"/>
		<path class="st11" d="M78.46,103.93c-1.27-1.56-2.36-2.99-2.42-3.07c0,0,0,0,0,0c0,0,0,0,0,0c0,0,0,0,0,0l3.11-1.78l0,0l0,0
			c0.01,0.02,0.89,1.84,1.75,3.83C80.41,103.64,79.34,103.74,78.46,103.93"/>
		<path class="st9" d="M80.65,95.81c0.29,0.63,1.23,2.91-0.08,4.22c-1.53,1.53-3.82,2.26-4.17,2.36c-0.97,0.29-2.64-0.32-4.05-2.93
			C72.35,99.46,78.39,97.88,80.65,95.81L80.65,95.81z"/>
		<path class="st10" d="M77.37,102c-1.19-0.23-2.28-1.71-2.83-3.21c-1.26,0.42-2.2,0.66-2.2,0.66c1.41,2.61,3.08,3.22,4.05,2.93
			c0.13-0.04,0.53-0.16,1.06-0.38L77.37,102L77.37,102z"/>
		<path class="st10" d="M80.65,95.81c-0.47,0.43-1.11,0.84-1.82,1.22c0.16,0.8,0.32,1.6,0.5,2.39c0.14,0.62,0.04,1.26-0.23,1.75
			c0.51-0.31,1.02-0.69,1.47-1.13C81.87,98.72,80.94,96.44,80.65,95.81L80.65,95.81z"/>
		<path class="st12" d="M91.33,74.92c0,14.79-12.08,26.78-26.97,26.78S37.38,89.71,37.38,74.92c0-14.79,12.08-26.78,26.97-26.78
			S91.33,60.13,91.33,74.92"/>
		<path class="st13" d="M84.85,74.92c0,11.24-9.17,20.34-20.49,20.34c-11.32,0-20.49-9.11-20.49-20.34
			c0-11.24,9.17-20.34,20.49-20.34C75.67,54.58,84.85,63.69,84.85,74.92"/>
		<path class="st14" d="M64.89,95.92c11.31,0,20.49-9.11,20.49-20.34c0-5.04-1.86-9.65-4.92-13.2c2.74,3.46,4.38,7.81,4.38,12.55
			c0,11.24-9.17,20.34-20.49,20.34c-6.24,0-11.81-2.78-15.57-7.14C52.54,92.86,58.35,95.92,64.89,95.92"/>
		<path class="st15" d="M84.04,74.92c0,10.79-8.81,19.54-19.68,19.54c-10.87,0-19.68-8.75-19.68-19.54
			c0-10.79,8.81-19.54,19.68-19.54C75.23,55.38,84.04,64.13,84.04,74.92"/>
		<path class="st16" d="M64.23,54.58L64.23,54.58L64.23,54.58 M64.29,54.58C64.3,54.58,64.3,54.58,64.29,54.58
			C64.3,54.58,64.3,54.58,64.29,54.58"/>
		<path class="st17" d="M79.7,88.37c0.02-0.42,0.04-0.84,0.04-1.26c2.69-3.34,4.3-7.58,4.3-12.19c0-10.79-8.81-19.54-19.68-19.54
			c-4.76,0-9.13,1.68-12.54,4.48c-0.49,0.07-0.98,0.15-1.46,0.24c3.63-3.38,8.5-5.48,13.87-5.51h0c0.02,0,0.04,0,0.06,0c0,0,0,0,0,0
			c0.02,0,0.04,0,0.06,0c6.7,0,12.64,3.19,16.38,8.12c-0.09-0.11-0.18-0.22-0.28-0.33c2.71,3.43,4.36,7.74,4.38,12.43
			c0,0,0,0,0,0.01c0,0.02,0,0.03,0,0.05c0,0,0,0,0,0.01c0,0.02,0,0.03,0,0.05l0,0l0,0c0,0.02,0,0.04,0,0.06c0,0,0,0,0,0
			c0,0.02,0,0.04,0,0.06c0,0,0,0,0,0c0,0.02,0,0.04,0,0.06v0C84.8,80.19,82.86,84.82,79.7,88.37"/>
		<path class="st18" d="M84.84,75.1L84.84,75.1C84.84,75.1,84.84,75.1,84.84,75.1 M84.85,75.04C84.85,75.04,84.85,75.04,84.85,75.04
			C84.85,75.04,84.85,75.04,84.85,75.04 M84.85,74.98C84.85,74.98,84.85,74.98,84.85,74.98C84.85,74.98,84.85,74.98,84.85,74.98
			 M84.85,74.92L84.85,74.92L84.85,74.92L84.85,74.92 M84.85,74.92c0-0.02,0-0.03,0-0.05C84.85,74.89,84.85,74.9,84.85,74.92
			 M84.85,74.86c0-0.02,0-0.03,0-0.05C84.85,74.83,84.85,74.85,84.85,74.86 M84.85,74.81c-0.03-4.7-1.67-9-4.38-12.43
			c0.09,0.11,0.18,0.22,0.28,0.33C83.3,66.07,84.82,70.26,84.85,74.81"/>
		<path class="st19" d="M79.75,87.11c0.05-4.99-1.11-10.13-3-13.86c-2.89-5.72-7.92-10.62-13.61-12.68
			c-1.88-0.68-4.34-1.01-6.95-1.01c-1.44,0-2.91,0.1-4.36,0.3c3.4-2.8,7.77-4.48,12.54-4.48c10.87,0,19.68,8.75,19.68,19.54
			C84.04,79.53,82.43,83.77,79.75,87.11"/>
		<path class="st14" d="M42.82,74.42c0,8.44,5.17,15.67,12.54,18.75c-6.79-3.31-11.48-10.23-11.48-18.25
			c0-11.24,9.17-20.34,20.49-20.34c2.82,0,5.5,0.57,7.95,1.59c-2.72-1.33-5.77-2.09-9-2.09C51.99,54.08,42.82,63.19,42.82,74.42
			L42.82,74.42z"/>
		<path class="st20" d="M64.73,57.85h-0.45c-0.48,0-0.86,0.42-0.86,0.94v2.69c0,0.52,0.39,0.94,0.86,0.94h0.45
			c0.48,0,0.86-0.42,0.86-0.94v-2.69C65.59,58.27,65.2,57.85,64.73,57.85L64.73,57.85z"/>
		<path class="st20" d="M64.73,88.61h-0.45c-0.48,0-0.86,0.42-0.86,0.94v2.69c0,0.52,0.39,0.94,0.86,0.94h0.45
			c0.48,0,0.86-0.42,0.86-0.94v-2.69C65.59,89.03,65.2,88.61,64.73,88.61L64.73,88.61z"/>
		<path class="st20" d="M49.09,74.33h-2.48c-0.48,0-0.86,0.42-0.86,0.94v0.49c0,0.52,0.38,0.94,0.86,0.94h2.48
			c0.48,0,0.86-0.42,0.86-0.94v-0.49C49.95,74.75,49.56,74.33,49.09,74.33L49.09,74.33z"/>
		<path class="st20" d="M82.11,74.33h-2.48c-0.48,0-0.86,0.42-0.86,0.94v0.49c0,0.52,0.39,0.94,0.86,0.94h2.48
			c0.48,0,0.86-0.42,0.86-0.94v-0.49C82.97,74.75,82.58,74.33,82.11,74.33L82.11,74.33z"/>
		<path class="st20" d="M65.64,74.1c0,0,3.96-7.66,8.54-8.86c0,0-0.53,5.45-7.7,9.65L65.64,74.1L65.64,74.1z"/>
		<path class="st20" d="M72.29,63.88l3.04,3.45c0,0,1.67-3.4,1.19-5.01C76.52,62.32,74.68,62.45,72.29,63.88L72.29,63.88z"/>
		<path class="st20" d="M63.66,74.96c0,0-6.61-1.85-9.95,0.47c0,0,3.36,2.83,9.91,0.54L63.66,74.96L63.66,74.96z"/>
		<path class="st20" d="M54.05,73.39l0.16,4.02c0,0-2.88-0.87-3.5-2.13C50.7,75.28,51.85,74.14,54.05,73.39L54.05,73.39z"/>
		<path class="st20" d="M67.16,75.4c0,1.6-1.19,2.89-2.66,2.89c-1.47,0-2.66-1.29-2.66-2.89c0-1.6,1.19-2.89,2.66-2.89
			C65.97,72.51,67.16,73.8,67.16,75.4L67.16,75.4z"/>
		<path class="st2" d="M65.83,75.49c-0.27,0.73-1.1,1.07-1.83,0.74c-0.74-0.32-1.11-1.18-0.84-1.92c0.27-0.74,1.1-1.07,1.83-0.74
			C65.73,73.89,66.11,74.75,65.83,75.49L65.83,75.49z"/>
	</g>
</g>
</svg>
