<?xml version="1.0" encoding="utf-8"?>
<!-- Generator: Adobe Illustrator 26.0.1, SVG Export Plug-In . SVG Version: 6.00 Build 0)  -->
<svg version="1.1" id="Calque_1" xmlns="http://www.w3.org/2000/svg" xmlns:xlink="http://www.w3.org/1999/xlink" x="0px" y="0px"
	 viewBox="0 0 128 128" style="enable-background:new 0 0 128 128;" xml:space="preserve">
<style type="text/css">
	.st0{fill:#E97D03;}
	.st1{fill:#336E34;}
	.st2{fill:#5EB457;}
	.st3{fill:#4AA34A;}
	.st4{fill:#D1C936;}
	.st5{fill:#E2DD81;}
	.st6{fill:#E5CA72;}
	.st7{fill:#CEB36A;}
	.st8{fill:#FDD8A0;}
	.st9{fill:#586269;}
	.st10{fill:#FFE6C2;}
	.st11{fill:#EFDEA7;}
	.st12{fill:#EDE040;}
	.st13{fill:#F9E2B2;}
	.st14{fill:#E2614A;}
	.st15{fill:#FCD99D;}
	.st16{fill:#576069;}
	.st17{fill:#CEB730;}
	.st18{fill:#68B369;}
</style>
<g>
	<rect class="st0" width="128" height="128"/>
	<g>
		<path class="st1" d="M32,73.11c-0.73,8.85,1.44,17.71,4.64,25.89c1.62-1.58,3.25-3.16,4.87-4.75c0.31-0.3,0.63-0.63,0.7-1.07
			c0.07-0.46-0.15-0.9-0.36-1.3c-2.76-5.33-4.69-11.3-4.73-17.42c-0.04-6.12,1.97-12.4,6.09-16.57c0.81-0.81,1.7-1.56,2.32-2.54
			c0.63-0.98,0.96-2.29,0.5-3.39c-1.95-4.7-8.48,4.76-9.54,6.54C33.93,62.86,32.43,67.96,32,73.11L32,73.11z"/>
		<path class="st1" d="M102.4,73.11c0.73,8.85-1.44,17.71-4.63,25.89c-1.62-1.58-3.25-3.16-4.87-4.75c-0.31-0.3-0.63-0.63-0.7-1.07
			c-0.07-0.46,0.15-0.9,0.36-1.3c2.76-5.33,4.69-11.3,4.73-17.42c0.04-6.12-1.97-12.4-6.09-16.57c-0.81-0.81-1.7-1.56-2.32-2.54
			c-0.63-0.98-0.96-2.29-0.51-3.39c1.95-4.7,8.48,4.76,9.54,6.54C100.47,62.86,101.97,67.96,102.4,73.11L102.4,73.11z"/>
		<path class="st2" d="M100.33,108.22l-9.37-61.47c0,0-1.45-0.03-3.33-0.03l-40.66-0.05c-1.88,0-3.29,0.14-3.29,0.14l-9.73,61.28
			c-0.57,3.57,1.96,6.84,5.3,6.85l55.75,0.1C98.33,115.04,100.87,111.79,100.33,108.22"/>
		<path class="st3" d="M100.08,106.62c-0.74,2.23-2.71,3.87-5.08,3.87l-55.75-0.1c-2.36,0-4.31-1.63-5.06-3.85l-0.25,1.56
			c-0.57,3.57,1.96,6.84,5.3,6.85l55.75,0.1c3.34,0.01,5.87-3.24,5.33-6.82L100.08,106.62L100.08,106.62z"/>
		<path class="st1" d="M90.05,46.67l-22.64,0.02l-22.63-0.02c0,0,1.74,1.3,1.56,4.74c-0.11,2.12-0.79,11.05,2.38,17.41
			c3.18,6.36,18.69,6.36,18.69,6.36s15.51,0,18.69-6.36c3.18-6.36,2.49-15.3,2.38-17.41C88.31,47.96,90.05,46.67,90.05,46.67
			L90.05,46.67z"/>
		<path class="st3" d="M90.05,46.67l-22.64-0.02l-22.63,0.01c0,0,1.74-1.3,1.56-4.74c-0.11-2.12-0.79-11.05,2.39-17.41
			c3.18-6.36,18.69-6.36,18.69-6.36s15.51,0,18.69,6.37c3.18,6.36,2.49,15.3,2.38,17.41C88.31,45.37,90.05,46.67,90.05,46.67"/>
		<path class="st4" d="M88.97,108.77H45.29c-0.68,0-1.22-0.6-1.22-1.33V93.32c0-5.66,4.23-10.25,9.44-10.25h27.24
			c5.21,0,9.44,4.59,9.44,10.25v14.12C90.19,108.17,89.64,108.77,88.97,108.77"/>
		<path class="st5" d="M46.05,91.4c-0.15,0-0.3-0.05-0.42-0.18c-0.26-0.27-0.27-0.71-0.21-1.1c0.29-1.95,1.7-3.84,3.32-4.66
			c1.21-0.61,2.47-1.08,3.77-1.4c0.47-0.12,0.95-0.21,1.43-0.21c0.33,0,0.65,0.05,0.96,0.16c0.24,0.09,0.51,0.28,0.51,0.56
			c-0.01,0.35-0.4,0.5-0.71,0.56c-1.31,0.23-2.64,0.28-3.91,0.69c-1.27,0.41-2.5,1.25-3.02,2.58c-0.29,0.74-0.33,1.58-0.7,2.28
			C46.86,91.07,46.43,91.4,46.05,91.4"/>
		<path class="st5" d="M56.8,84.86c-0.04,0-0.09,0-0.14-0.01c-0.3-0.04-0.65-0.39-0.43-0.74c0.09-0.14,0.26-0.18,0.44-0.18
			c0.21,0,0.42,0.05,0.56,0.06c0.51,0.04,1.02,0.07,1.54,0.07c0.57,0,1.14-0.03,1.71-0.11c0.22-0.03,0.45-0.06,0.67-0.06
			c0.17,0,0.34,0.02,0.5,0.07c0.16,0.05,0.31,0.15,0.39,0.3c0.08,0.16,0.06,0.38-0.08,0.48c-0.07,0.05-0.15,0.06-0.24,0.06
			c-0.02,0-0.04,0-0.07,0c-0.93-0.03-1.86-0.12-2.79-0.12c-0.55,0-1.1,0.03-1.64,0.12C57.08,84.83,56.94,84.86,56.8,84.86"/>
		<polyline class="st6" points="65.44,87.88 77.82,76.13 79.31,77.8 67.96,88.44 65.44,87.88 		"/>
		<polygon class="st7" points="79.31,77.8 78.76,77.19 67.03,88.23 67.96,88.44 79.31,77.8 		"/>
		<path class="st8" d="M77.65,76.6c0.04,0.17,0.2,0.3,0.36,0.29c-0.07,0.07-0.14,0.16-0.18,0.26c-0.04,0.1-0.05,0.22,0,0.32
			c0.05,0.12,0.17,0.19,0.29,0.21c0.12,0.02,0.24,0,0.36-0.02c-0.06,0.04-0.07,0.14-0.04,0.21c0.03,0.07,0.1,0.12,0.16,0.14
			c0.21,0.08,0.44-0.04,0.64-0.15c0.04-0.02,0.08-0.05,0.1-0.09c0.37-0.85,0.85-1.63,1.45-2.31c-0.16-0.14-0.32-0.3-0.46-0.46
			c-0.42,0.16-0.82,0.34-1.22,0.54c-0.4,0.2-0.93,0.31-1.28,0.59c-0.03,0.02-0.07,0.07-0.13,0.18C77.65,76.4,77.63,76.5,77.65,76.6"
			/>
		<path class="st9" d="M80.32,75c0,0,1.45-0.83,1.55-0.73c0.1,0.11-1.09,1.19-1.09,1.19L80.32,75L80.32,75z"/>
		<path class="st10" d="M78.39,76.66c-0.12,0-0.24-0.06-0.28-0.18c-0.05-0.17,0.09-0.34,0.23-0.43c0.15-0.09,0.31-0.16,0.48-0.22
			c0.22-0.08,0.66-0.37,0.95-0.37c0.06,0,0.11,0.01,0.15,0.03c0.02,0.01,0.04,0.02,0.04,0.04c0.01,0.03-0.01,0.05-0.03,0.07
			c-0.18,0.21-0.4,0.39-0.64,0.53c-0.14,0.08-0.28,0.15-0.41,0.24c-0.13,0.09-0.24,0.21-0.39,0.26
			C78.47,76.65,78.43,76.66,78.39,76.66"/>
		<path class="st11" d="M72.91,81.86c-0.09,0-0.18-0.06-0.19-0.15c-0.01-0.06,0.02-0.13,0.05-0.18c0.25-0.46,0.67-0.77,1.07-1.09
			c1.07-0.83,2.1-1.73,2.92-2.85c0.06-0.08,0.13-0.18,0.22-0.22c0.02-0.01,0.04-0.01,0.07-0.01c0.19,0,0.43,0.28,0.37,0.47
			c-0.04,0.15-0.17,0.25-0.28,0.34c-1.18,0.91-2.31,1.9-3.36,2.98c-0.2,0.2-0.39,0.4-0.61,0.58c-0.07,0.06-0.16,0.11-0.25,0.12
			C72.92,81.86,72.92,81.86,72.91,81.86"/>
		<path class="st12" d="M57.29,72.21c4.84-1.22,9.29-3.49,9.29-3.49s10.86-5.54,13.74-11.8l-5.41-12.49l-24.28,12.4L57.29,72.21
			L57.29,72.21z"/>
		<polygon class="st12" points="50.63,56.83 50.99,53.66 72.58,42.36 73.02,42.7 51.64,53.81 51.32,55.98 74.47,44.07 74.91,44.43 
			51.55,57.4 50.63,56.83 		"/>
		<path class="st13" d="M73.02,42.7c0,0-0.24,0.26-0.02,0.64c0.22,0.39,1.18,0.87,1.18,0.87L51.32,55.98l0.32-2.17L73.02,42.7
			L73.02,42.7z"/>
		<path class="st14" d="M57.64,74.05c4.86,1.13,9.77,1.13,9.77,1.13s12,0,17.06-4.33V57.05H57.64V74.05L57.64,74.05z"/>
		<polygon class="st14" points="57.64,57.05 59.21,54.35 83.18,54.09 83.44,54.61 59.75,54.79 58.6,56.61 84.22,56.52 84.47,57.05 
			58.26,57.99 57.64,57.05 		"/>
		<path class="st13" d="M83.44,54.61c0,0-0.32,0.12-0.27,0.57c0.05,0.45,0.72,1.33,0.72,1.33L58.6,56.61l1.14-1.82L83.44,54.61
			L83.44,54.61z"/>
		<polygon class="st15" points="60.86,87.79 56.36,89.59 50.08,71.06 54.57,69.26 60.86,87.79 		"/>
		<polygon class="st16" points="52.68,71.21 50.68,72.01 50.58,71.73 52.59,70.93 52.68,71.21 		"/>
		<polygon class="st16" points="53.78,74.45 51.78,75.25 51.68,74.97 53.69,74.17 53.78,74.45 		"/>
		<polygon class="st16" points="54.88,77.69 52.88,78.5 52.78,78.21 54.79,77.41 54.88,77.69 		"/>
		<polygon class="st16" points="55.98,80.94 53.98,81.74 53.88,81.46 55.89,80.66 55.98,80.94 		"/>
		<polygon class="st16" points="57.08,84.18 55.08,84.98 54.98,84.7 56.99,83.9 57.08,84.18 		"/>
		<polygon class="st16" points="52.5,73.4 51.31,73.88 51.22,73.59 52.4,73.12 52.5,73.4 		"/>
		<polygon class="st16" points="53.6,76.65 52.41,77.12 52.32,76.84 53.5,76.37 53.6,76.65 		"/>
		<polygon class="st16" points="54.7,79.89 53.51,80.36 53.42,80.08 54.6,79.61 54.7,79.89 		"/>
		<polygon class="st16" points="55.8,83.13 54.61,83.61 54.52,83.33 55.7,82.85 55.8,83.13 		"/>
		<polygon class="st16" points="56.9,86.38 55.71,86.85 55.62,86.57 56.8,86.1 56.9,86.38 		"/>
		<path class="st17" d="M89.24,107.84c-1.2-0.07-2.6-0.23-3.21-1.35c-0.31-0.58-0.33-1.29-0.33-1.96c-0.02-3.2-0.03-6.4-0.05-9.59
			c-0.01-1.31-0.01-2.63-0.32-3.9c-0.3-1.27-0.94-2.49-1.95-3.2c-1.06-0.74-2.39-0.83-3.65-0.89c-8.73-0.43-17.47-0.46-26.2-0.1
			c-0.97,0.04-1.96,0.09-2.84,0.54c-2.13,1.08-2.79,3.99-2.95,6.54c-0.11,1.88-0.09,3.78,0.07,5.66c0.16,1.84,0.45,3.75-0.13,5.48
			c-0.54,1.62-1.76,2.33-3.22,2.66c-0.11,0.02-0.23,0.05-0.36,0.08c0.14,0.56,0.62,0.97,1.18,0.97h43.67c0.49,0,0.91-0.31,1.1-0.76
			C89.8,107.91,89.5,107.86,89.24,107.84L89.24,107.84z"/>
		<path class="st9" d="M82.46,90.66l0.8-1.85l0.28,0.13l-0.42,2.02L82.46,90.66L82.46,90.66z M83.14,92.39l0.98-4.33l-0.79-0.3
			c-0.02,0.03-1.28,2.75-1.82,3.93c-0.13,0.29-0.01,0.64,0.26,0.77l0.67,0.31C82.73,92.91,83.07,92.73,83.14,92.39L83.14,92.39z"/>
		<path class="st9" d="M50.38,91.33l-0.39-2l0.3-0.08l0.79,1.89L50.38,91.33L50.38,91.33z M51.89,92.27l-1.63-4.09l-0.8,0.28
			c0,0.04,0.51,3.03,0.73,4.33c0.05,0.32,0.34,0.52,0.63,0.44l0.71-0.19C51.85,92.95,52.02,92.58,51.89,92.27L51.89,92.27z"/>
		<polygon class="st2" points="85.68,104.81 47.69,104.81 47.69,100.63 85.68,100.63 85.68,104.81 		"/>
		<path class="st1" d="M88.43,107.26c-0.05,0-1.29-0.03-2.23-1.37c-0.47-0.68-0.39-3.29-0.3-6.06c0.09-2.91,0.2-6.2-0.18-9.17
			c-0.11-0.85-0.72-1.85-1.64-2.68c-1.03-0.93-2.29-1.49-3.54-1.58c-5.36-0.4-11.85-0.35-13.78-0.33
			c-1.93-0.02-8.41-0.07-13.78,0.33c-1.25,0.09-2.51,0.65-3.54,1.58c-0.92,0.83-1.53,1.83-1.64,2.68c-0.37,2.97-0.27,6.27-0.17,9.17
			c0.09,2.77,0.17,5.38-0.3,6.06c-0.93,1.34-2.17,1.37-2.23,1.37c-0.2,0-0.37,0.18-0.37,0.41c0,0.22,0.17,0.41,0.37,0.41
			c0.07,0,1.65-0.02,2.82-1.69c0.63-0.91,0.56-3.29,0.45-6.58c-0.09-2.87-0.2-6.13,0.17-9.03c0.14-1.15,1.96-3.37,4.49-3.56
			c4.84-0.36,10.61-0.35,13.07-0.33c0.03,0.01,0.06,0.02,0.1,0.02h0.01c0.01,0,0.21,0,0.55-0.01c0.35,0,0.54,0.01,0.55,0.01h0.01
			c0.03,0,0.07-0.01,0.1-0.02c2.46-0.02,8.23-0.03,13.07,0.33c2.53,0.19,4.35,2.41,4.49,3.56c0.37,2.9,0.26,6.16,0.17,9.03
			c-0.11,3.29-0.18,5.67,0.45,6.58c1.17,1.67,2.75,1.69,2.82,1.69c0.21,0,0.37-0.18,0.37-0.41
			C88.8,107.44,88.63,107.26,88.43,107.26L88.43,107.26z"/>
		<path class="st12" d="M64.91,65.3c0,0-0.34-1.57-0.36-1.69l0.29-0.04l0.79,1.26L64.91,65.3L64.91,65.3z M64.84,61.74l-1.26,0.47
			c0,0,0.5,6.6,0.52,6.76l1.94-0.28l-0.51-2.27l0.83-0.4l1.39,1.78c0,0,1.28-0.83,1.33-0.96C69.14,66.7,64.84,61.74,64.84,61.74
			L64.84,61.74z"/>
		<path class="st12" d="M73.46,65.55c-0.07,1.18-1.51,0.89-1.51,0.89l0.12-1.83C72.07,64.6,73.52,64.64,73.46,65.55L73.46,65.55z
			 M72.28,61.69c0,0,1.07,0.32,1,0.97c-0.07,0.65-1.09,0.61-1.09,0.61S72.2,61.77,72.28,61.69L72.28,61.69z M73.33,63.91
			c0,0,1.09-0.43,0.96-1.54c-0.19-1.61-2.7-1.61-2.7-1.61c-0.08-0.03-0.57,6.36-0.57,6.36s3.22,0.7,3.45-0.86
			C74.8,63.96,73.33,63.91,73.33,63.91L73.33,63.91z"/>
		<path class="st12" d="M78.84,64.27l1.15,0.56c0,0,0.81-1.59-0.79-2.24c-1.63-0.67-2.74,0.78-3.15,2.28
			c-0.34,1.23-0.16,2.45,1.11,2.92c1.27,0.46,2.68-1.32,2.68-1.32l-1.24-0.45c0,0-0.39,0.58-0.91,0.5c-0.67-0.1-0.86-0.96-0.53-1.81
			c0.31-0.81,0.94-1.27,1.44-1.11C79.1,63.77,78.84,64.27,78.84,64.27L78.84,64.27z"/>
		<path class="st18" d="M52.83,40.14c-0.94,0-1.89-0.15-2.46-0.53c-1.02-0.68-1.07-2.86-1.12-4.03c-0.16-3.47,0.2-7.23,2.28-9.87
			c1.25-1.58,3.01-2.61,4.85-3.22c1.83-0.62,3.76-0.85,5.66-1.08c1.9-0.23,3.8-0.46,5.71-0.7c0.81-0.1,1.64-0.19,2.46-0.19
			c1.24,0,2.45,0.21,3.48,0.92c0.46,0.32,0.88,0.74,1.09,1.29c0.43,1.12-0.15,2.45-1.02,3.2c-0.88,0.75-1.99,1.07-3.05,1.45
			c-1.06,0.37-2.16,0.84-2.87,1.79c-0.76,1.01-0.93,2.4-1.55,3.52c-0.74,1.34-2.04,2.2-3.37,2.81c-1.33,0.62-2.73,1.05-3.97,1.84
			c-1.29,0.81-2.4,2-3.81,2.49C54.58,40.02,53.7,40.14,52.83,40.14"/>
	</g>
</g>
</svg>
