<?xml version="1.0" encoding="utf-8"?>
<!-- Generator: Adobe Illustrator 26.0.1, SVG Export Plug-In . SVG Version: 6.00 Build 0)  -->
<svg version="1.1" id="Calque_1" xmlns="http://www.w3.org/2000/svg" xmlns:xlink="http://www.w3.org/1999/xlink" x="0px" y="0px"
	 viewBox="0 0 128 128" style="enable-background:new 0 0 128 128;" xml:space="preserve">
<style type="text/css">
	.st0{fill:url(#SVGID_1_);}
	.st1{fill:#F5D341;}
	.st2{fill:#5A5A5B;}
	.st3{fill:#808183;}
	.st4{fill:#FFFFFF;}
	.st5{opacity:0.49;}
	.st6{fill:none;}
</style>
<g>
	<linearGradient id="SVGID_1_" gradientUnits="userSpaceOnUse" x1="64" y1="128" x2="64" y2="-9.094947e-13">
		<stop  offset="0" style="stop-color:#FFFFFF"/>
		<stop  offset="0.0563" style="stop-color:#E3E3E3"/>
		<stop  offset="0.1473" style="stop-color:#BDBDBD"/>
		<stop  offset="0.2454" style="stop-color:#9D9D9D"/>
		<stop  offset="0.3504" style="stop-color:#828282"/>
		<stop  offset="0.4649" style="stop-color:#6E6E6E"/>
		<stop  offset="0.5937" style="stop-color:#5F5F5F"/>
		<stop  offset="0.7486" style="stop-color:#575757"/>
		<stop  offset="1" style="stop-color:#545454"/>
	</linearGradient>
	<rect class="st0" width="128" height="128"/>
	<g>
		<path class="st1" d="M76.39,45.39c-0.24-3.16-2.8-5.5-5.7-5.24c-2.91,0.26-5.08,3.06-4.82,6.21c0.13,1.57,0.82,2.93,1.84,3.88
			c0.8,0.73,1.41,1.68,1.77,2.74l0.56,1.67l3.45-0.31l0.28-1.65c0.19-1.14,0.67-2.2,1.37-3.08C76.02,48.48,76.51,46.99,76.39,45.39
			L76.39,45.39z"/>
		<path class="st2" d="M72.74,56.41l-1.68,0.15c-0.48,0.04-0.91-0.3-0.98-0.78l-0.29-1.86l3.81-0.37l-0.02,1.91
			C73.59,55.95,73.21,56.37,72.74,56.41L72.74,56.41z"/>
		<path class="st3" d="M73.32,54.4c-1.06,0.15-2.13,0.18-3.19,0.33c-0.09,0.01-0.08,0.16,0.02,0.16c1.07-0.06,2.13-0.23,3.2-0.29
			C73.46,54.59,73.44,54.38,73.32,54.4L73.32,54.4z"/>
		<path class="st3" d="M73.36,54.9c-1.06,0.15-2.13,0.18-3.19,0.33c-0.09,0.01-0.08,0.16,0.02,0.16c1.07-0.06,2.13-0.23,3.2-0.29
			C73.5,55.1,73.48,54.88,73.36,54.9L73.36,54.9z"/>
		<path class="st1" d="M70.89,37.2c0.03,0.37-0.05,1.71-0.27,1.73c-0.22,0.02-0.5-1.29-0.53-1.66c-0.03-0.37,0.13-0.68,0.35-0.7
			C70.66,36.55,70.87,36.83,70.89,37.2L70.89,37.2z"/>
		<path class="st1" d="M76.07,38.78c-0.24,0.26-0.97,1.35-0.81,1.52c0.16,0.17,1.15-0.64,1.39-0.9c0.24-0.26,0.3-0.61,0.14-0.78
			C76.63,38.44,76.31,38.52,76.07,38.78L76.07,38.78z"/>
		<path class="st1" d="M78.48,44.52c-0.33,0.08-1.57,0.16-1.61-0.08c-0.05-0.24,1.11-0.71,1.45-0.78c0.33-0.08,0.64,0.05,0.69,0.29
			C79.05,44.18,78.81,44.44,78.48,44.52L78.48,44.52z"/>
		<path class="st1" d="M65.65,39.28c0.28,0.2,1.21,1.1,1.09,1.3c-0.12,0.2-1.24-0.36-1.53-0.57c-0.28-0.2-0.42-0.53-0.29-0.73
			C65.04,39.08,65.37,39.08,65.65,39.28L65.65,39.28z"/>
		<path class="st1" d="M63.52,44.92c0.34,0.02,1.57-0.12,1.58-0.37c0.01-0.24-1.21-0.5-1.55-0.51c-0.34-0.02-0.62,0.17-0.63,0.41
			C62.91,44.69,63.18,44.9,63.52,44.92L63.52,44.92z"/>
		<path class="st4" d="M72.92,47.1c0-0.14,0.02-0.29,0.06-0.42c0.02-0.06,0.04-0.12,0.06-0.18c0,0,0.01-0.02,0.02-0.04
			c0,0.01,0.01,0.02,0.01,0.04c0.04,0.35,0.05,0.72-0.03,1.06c-0.01,0.04-0.02,0.08-0.03,0.12C72.95,47.5,72.92,47.3,72.92,47.1
			L72.92,47.1z M71.63,46.35c0.02,0.14,0.01,0.31,0,0.39c0,0.15-0.01,0.31-0.03,0.46C71.54,46.91,71.54,46.61,71.63,46.35
			L71.63,46.35z M73.62,48.57c-0.18-0.12-0.32-0.28-0.44-0.47c0.17-0.27,0.23-0.63,0.24-0.95c0.01-0.2,0-0.39-0.01-0.59
			c-0.01-0.19-0.05-0.35-0.2-0.45c-0.14-0.09-0.31,0.02-0.4,0.13c-0.11,0.13-0.15,0.33-0.18,0.49c-0.07,0.33-0.04,0.68,0.04,1.01
			c0.03,0.11,0.07,0.22,0.11,0.33c-0.07,0.07-0.15,0.13-0.24,0.17c-0.28,0.13-0.51-0.03-0.67-0.29c-0.03-0.04-0.05-0.09-0.07-0.13
			c0.02-0.07,0.03-0.14,0.05-0.2c0.07-0.33,0.1-0.66,0.1-1c0-0.28-0.02-0.61-0.28-0.75c-0.08-0.05-0.17,0-0.21,0.08
			c-0.32,0.57-0.24,1.28,0,1.87c-0.05,0.17-0.11,0.33-0.18,0.49c-0.08,0.18-0.23,0.45-0.44,0.43c-0.19-0.01-0.37-0.26-0.48-0.42
			c-0.08-0.11-0.14-0.23-0.2-0.36c0.02-0.07,0.04-0.14,0.05-0.22c0.06-0.29,0.08-0.59,0.08-0.88c0-0.25-0.02-0.59-0.28-0.69
			c-0.07-0.03-0.18-0.01-0.21,0.08c-0.18,0.54-0.17,1.12,0.01,1.67c0.01,0.02,0.01,0.04,0.02,0.05c-0.12,0.43-0.32,0.83-0.57,1.18
			c-0.11,0.16,0.1,0.36,0.22,0.2c0.23-0.3,0.41-0.62,0.54-0.98c0.05,0.09,0.12,0.18,0.18,0.26c0.18,0.23,0.4,0.44,0.69,0.43
			c0.27-0.01,0.47-0.28,0.6-0.5c0.06-0.11,0.12-0.23,0.16-0.35c0.15,0.22,0.36,0.38,0.62,0.4c0.24,0.01,0.47-0.09,0.65-0.25
			c0.13,0.2,0.3,0.38,0.48,0.52C73.64,49.06,73.84,48.72,73.62,48.57L73.62,48.57z"/>
		<path class="st4" d="M73.86,47.7c-0.42,1.91-0.87,3.81-1.36,5.69c-0.06,0.23,0.26,0.33,0.32,0.11c0.49-1.89,0.93-3.79,1.32-5.7
			C74.18,47.6,73.9,47.5,73.86,47.7L73.86,47.7z"/>
		<path class="st4" d="M68.76,48.05c0.59,1.85,1.15,3.71,1.67,5.59c0.06,0.22,0.38,0.13,0.32-0.1c-0.52-1.88-1.09-3.74-1.71-5.58
			C68.97,47.77,68.69,47.85,68.76,48.05L68.76,48.05z"/>
	</g>
	<g>
		<path d="M34.41,75.99c0.05,0.75,0.11,1.47,0.17,2.17c0.06,0.69,0.12,1.34,0.19,1.94c0.06,0.6,0.13,1.14,0.2,1.6
			c0.01,0.2-0.03,0.34-0.1,0.43s-0.23,0.13-0.48,0.14c-0.24,0.01-0.48,0.01-0.73-0.01c-0.25-0.02-0.48-0.05-0.7-0.1
			c-0.27-0.06-0.47-0.15-0.59-0.27c-0.12-0.12-0.21-0.33-0.25-0.61c-0.1-0.41-0.2-0.92-0.31-1.53c-0.11-0.61-0.21-1.27-0.31-1.98
			c-0.1-0.72-0.2-1.46-0.3-2.23c-0.1-0.77-0.19-1.54-0.27-2.29c-0.08-0.76-0.15-1.47-0.21-2.15c-0.06-0.68-0.11-1.27-0.14-1.8
			c0-0.38,0.07-0.64,0.21-0.78c0.14-0.13,0.39-0.22,0.74-0.26c0.55-0.06,1.01-0.09,1.4-0.09c0.39,0,0.79,0.03,1.19,0.07
			c0.26,0.03,0.46,0.08,0.63,0.15c0.16,0.07,0.3,0.17,0.41,0.28c0.11,0.11,0.2,0.24,0.27,0.39c0.07,0.15,0.15,0.32,0.24,0.51
			c0.02,0.09,0.06,0.21,0.1,0.33c0.05,0.13,0.13,0.36,0.25,0.68c0.12,0.33,0.3,0.79,0.54,1.39c0.23,0.6,0.56,1.42,0.97,2.47
			c0.07-0.42,0.15-0.89,0.25-1.41c0.1-0.51,0.21-1.04,0.32-1.58c0.11-0.54,0.23-1.08,0.36-1.62c0.13-0.54,0.25-1.06,0.38-1.54
			c0.11-0.55,0.21-1,0.3-1.36c0.09-0.36,0.21-0.64,0.34-0.86c0.14-0.21,0.31-0.36,0.53-0.44c0.22-0.08,0.5-0.12,0.87-0.11
			c0.43,0.01,0.88,0.03,1.36,0.06c0.48,0.03,0.96,0.1,1.44,0.19c0.32,0.07,0.54,0.19,0.65,0.37c0.12,0.18,0.17,0.45,0.14,0.83
			c-0.03,0.54-0.06,1.15-0.09,1.85c-0.03,0.7-0.06,1.43-0.08,2.19c-0.02,0.76-0.04,1.53-0.06,2.32c-0.02,0.78-0.03,1.53-0.05,2.24
			c-0.01,0.71-0.02,1.37-0.03,1.97c0,0.6,0,1.09,0.01,1.48c-0.02,0.21-0.07,0.37-0.14,0.48c-0.07,0.11-0.24,0.17-0.5,0.17
			c-0.24,0.01-0.48,0.01-0.73,0c-0.25-0.01-0.48-0.04-0.68-0.1c-0.25-0.05-0.43-0.15-0.54-0.29c-0.11-0.14-0.17-0.35-0.19-0.62
			c-0.04-0.33-0.07-0.75-0.1-1.28c-0.03-0.53-0.06-1.11-0.09-1.75c-0.03-0.64-0.05-1.31-0.06-2.02c-0.02-0.7-0.02-1.39,0-2.06
			c-0.16,0.63-0.33,1.31-0.51,2.05c-0.17,0.74-0.34,1.46-0.5,2.17s-0.3,1.38-0.43,2s-0.22,1.15-0.29,1.56
			c-0.02,0.13-0.04,0.23-0.06,0.31c-0.02,0.08-0.05,0.14-0.09,0.18s-0.1,0.08-0.18,0.11c-0.08,0.03-0.18,0.04-0.32,0.05
			c-0.41,0.02-0.77,0.02-1.09,0c-0.12-0.01-0.22-0.03-0.31-0.06c-0.09-0.03-0.17-0.07-0.25-0.13c-0.08-0.06-0.15-0.15-0.22-0.25
			c-0.07-0.1-0.15-0.24-0.24-0.41c-0.37-0.71-0.77-1.53-1.18-2.48c-0.41-0.94-0.82-1.92-1.21-2.94
			C34.31,74.48,34.36,75.23,34.41,75.99z"/>
		<path d="M46.37,64.76c0.48-0.27,0.99-0.53,1.52-0.8c0.53-0.26,1.09-0.51,1.66-0.76s1.14-0.46,1.72-0.64
			c0.55-0.16,0.96-0.03,1.23,0.4c0.19,0.22,0.33,0.42,0.43,0.62c0.1,0.19,0.2,0.4,0.31,0.63c0.1,0.26,0.13,0.45,0.07,0.57
			c-0.06,0.12-0.22,0.24-0.49,0.36c-0.57,0.24-1.15,0.48-1.76,0.73c-0.61,0.25-1.24,0.52-1.91,0.82c-0.03,0.52-0.05,1.05-0.06,1.6
			c-0.01,0.55-0.02,1.12-0.04,1.73c0.28-0.12,0.57-0.24,0.85-0.34s0.6-0.2,0.92-0.31c0.27-0.09,0.49-0.12,0.66-0.1
			c0.17,0.02,0.34,0.12,0.49,0.3c0.17,0.18,0.31,0.36,0.42,0.55c0.11,0.19,0.22,0.38,0.32,0.58c0.13,0.22,0.18,0.38,0.14,0.49
			c-0.04,0.1-0.19,0.22-0.45,0.36c-0.56,0.28-1.13,0.55-1.71,0.83c-0.58,0.27-1.14,0.55-1.68,0.84c0,0.36,0,0.7,0.01,1.02
			s0,0.64-0.01,0.96c0.44-0.21,0.86-0.4,1.26-0.57c0.4-0.17,0.84-0.33,1.32-0.5c0.27-0.1,0.48-0.13,0.65-0.11
			c0.16,0.02,0.32,0.11,0.48,0.27c0.17,0.18,0.3,0.35,0.41,0.52c0.11,0.17,0.22,0.34,0.34,0.5c0.1,0.2,0.13,0.34,0.1,0.44
			c-0.03,0.09-0.17,0.2-0.42,0.33c-0.59,0.3-1.19,0.61-1.8,0.92c-0.61,0.32-1.19,0.61-1.75,0.89c-0.36,0.21-0.65,0.32-0.87,0.32
			c-0.21,0-0.41-0.04-0.58-0.1c-0.19-0.07-0.38-0.15-0.56-0.23c-0.18-0.08-0.39-0.19-0.64-0.32c-0.2-0.1-0.37-0.24-0.51-0.42
			c-0.14-0.17-0.23-0.41-0.28-0.7l-1.1-10.93C45.45,65.28,45.89,65.03,46.37,64.76z"/>
		<path d="M57.5,69.57c0.05,0.75,0.11,1.47,0.17,2.17c0.06,0.69,0.12,1.34,0.19,1.94c0.06,0.6,0.13,1.14,0.2,1.6
			c0.01,0.2-0.03,0.34-0.1,0.43c-0.07,0.08-0.23,0.13-0.48,0.14c-0.24,0.01-0.48,0.01-0.73-0.01c-0.25-0.02-0.48-0.05-0.7-0.1
			c-0.27-0.06-0.47-0.15-0.59-0.27c-0.12-0.12-0.21-0.33-0.25-0.61c-0.1-0.41-0.2-0.92-0.31-1.53c-0.11-0.61-0.21-1.27-0.31-1.98
			c-0.1-0.72-0.2-1.46-0.3-2.23c-0.1-0.77-0.19-1.54-0.27-2.29c-0.08-0.76-0.15-1.47-0.21-2.15c-0.06-0.68-0.11-1.27-0.14-1.8
			c0-0.38,0.07-0.64,0.21-0.78c0.14-0.13,0.39-0.22,0.74-0.26c0.55-0.06,1.01-0.09,1.4-0.09c0.39,0,0.79,0.03,1.19,0.07
			c0.26,0.03,0.46,0.08,0.63,0.15s0.3,0.17,0.41,0.28c0.11,0.11,0.2,0.24,0.27,0.39c0.07,0.15,0.15,0.32,0.24,0.51
			c0.02,0.09,0.06,0.21,0.1,0.33c0.05,0.13,0.13,0.36,0.25,0.68s0.3,0.79,0.54,1.39c0.23,0.6,0.56,1.42,0.97,2.47
			c0.07-0.42,0.15-0.89,0.25-1.41c0.1-0.51,0.21-1.04,0.32-1.58c0.11-0.54,0.23-1.08,0.36-1.62c0.13-0.54,0.25-1.06,0.38-1.54
			c0.11-0.55,0.21-1,0.3-1.36c0.09-0.36,0.21-0.64,0.34-0.86c0.14-0.21,0.31-0.36,0.53-0.44c0.22-0.08,0.5-0.12,0.87-0.11
			c0.43,0.01,0.88,0.03,1.36,0.06c0.48,0.03,0.96,0.1,1.44,0.19c0.32,0.07,0.54,0.19,0.65,0.37c0.12,0.18,0.17,0.45,0.14,0.83
			c-0.03,0.54-0.06,1.15-0.09,1.85c-0.03,0.7-0.06,1.43-0.08,2.19c-0.02,0.76-0.04,1.53-0.06,2.32c-0.02,0.78-0.03,1.53-0.05,2.24
			c-0.01,0.71-0.02,1.37-0.03,1.97c0,0.6,0,1.09,0.01,1.48c-0.02,0.21-0.07,0.37-0.14,0.48c-0.07,0.11-0.24,0.17-0.5,0.17
			c-0.24,0.01-0.48,0.01-0.73,0c-0.25-0.01-0.48-0.04-0.68-0.1c-0.25-0.05-0.43-0.15-0.54-0.29c-0.11-0.14-0.17-0.35-0.19-0.62
			c-0.04-0.33-0.07-0.75-0.1-1.28c-0.03-0.53-0.06-1.11-0.09-1.75c-0.03-0.64-0.05-1.31-0.06-2.02c-0.02-0.7-0.02-1.39,0-2.06
			c-0.16,0.63-0.33,1.31-0.51,2.05c-0.17,0.74-0.34,1.46-0.5,2.17c-0.16,0.71-0.3,1.38-0.43,2c-0.13,0.63-0.23,1.15-0.29,1.56
			c-0.02,0.13-0.04,0.23-0.06,0.31c-0.02,0.08-0.05,0.14-0.09,0.18c-0.04,0.05-0.1,0.08-0.18,0.11c-0.08,0.03-0.18,0.04-0.32,0.05
			c-0.41,0.02-0.77,0.02-1.09,0c-0.12-0.01-0.22-0.03-0.31-0.06c-0.09-0.03-0.17-0.07-0.25-0.13c-0.08-0.06-0.15-0.15-0.22-0.25
			c-0.07-0.1-0.15-0.24-0.24-0.41c-0.37-0.71-0.77-1.53-1.18-2.48c-0.41-0.94-0.82-1.92-1.21-2.94
			C57.4,68.07,57.44,68.82,57.5,69.57z"/>
		<path d="M76.53,58.01c0.26,0.32,0.48,0.7,0.67,1.14c0.29,0.74,0.51,1.57,0.67,2.49c0.15,0.92,0.22,1.86,0.2,2.82
			c-0.02,0.96-0.13,1.89-0.34,2.79c-0.21,0.9-0.53,1.71-0.98,2.42c-0.31,0.44-0.67,0.77-1.07,1c-0.4,0.23-0.89,0.39-1.46,0.48
			c-0.38,0.06-0.78,0.1-1.19,0.12c-0.41,0.02-0.8-0.02-1.16-0.11c-0.3-0.07-0.6-0.19-0.91-0.36c-0.31-0.16-0.57-0.37-0.79-0.63
			c-0.35-0.42-0.65-0.92-0.91-1.5c-0.26-0.58-0.47-1.21-0.62-1.89c-0.15-0.68-0.24-1.39-0.27-2.13c-0.03-0.74,0.01-1.48,0.12-2.22
			c0.11-0.74,0.28-1.46,0.52-2.16c0.24-0.7,0.56-1.36,0.96-1.98c0.27-0.38,0.63-0.71,1.07-0.99c0.44-0.28,0.88-0.44,1.33-0.49
			c0.58-0.06,1.14-0.06,1.69,0c0.55,0.06,1.02,0.19,1.42,0.38C75.93,57.42,76.28,57.69,76.53,58.01z M72.88,59.9
			c-0.19,0.33-0.36,0.75-0.51,1.27s-0.27,1.07-0.36,1.68c-0.09,0.61-0.14,1.18-0.16,1.73c-0.02,0.53,0.01,1.08,0.07,1.63
			c0.07,0.55,0.16,1.05,0.29,1.51c0.13,0.45,0.29,0.83,0.48,1.12c0.19,0.3,0.41,0.45,0.65,0.46c0.22,0.02,0.42-0.09,0.61-0.32
			c0.18-0.23,0.35-0.55,0.49-0.96c0.14-0.41,0.25-0.9,0.33-1.47c0.08-0.57,0.12-1.17,0.12-1.82c0.01-0.53-0.02-1.11-0.08-1.73
			c-0.06-0.62-0.15-1.19-0.28-1.71c-0.12-0.53-0.28-0.97-0.46-1.32c-0.18-0.35-0.38-0.53-0.59-0.54
			C73.28,59.42,73.07,59.57,72.88,59.9z"/>
		<path d="M83.08,66.45c0.03,0.62,0.05,1.23,0.08,1.84c-0.01,0.18-0.05,0.31-0.12,0.39c-0.07,0.08-0.22,0.12-0.46,0.13
			c-0.28,0-0.53,0.01-0.74,0.02c-0.22,0.01-0.43-0.01-0.64-0.06c-0.21-0.06-0.37-0.17-0.48-0.32c-0.11-0.14-0.18-0.36-0.23-0.64
			c-0.03-0.23-0.08-0.56-0.15-0.99c-0.07-0.43-0.14-0.92-0.21-1.47c-0.08-0.55-0.16-1.14-0.24-1.77c-0.08-0.63-0.16-1.26-0.23-1.9
			c-0.07-0.63-0.13-1.25-0.18-1.85c-0.05-0.6-0.08-1.14-0.09-1.63c-0.01-0.49,0.01-0.9,0.05-1.23c0.05-0.33,0.12-0.55,0.23-0.66
			c0.53-0.46,1.1-0.93,1.69-1.4c0.59-0.47,1.19-0.85,1.8-1.15c0.61-0.3,1.21-0.48,1.8-0.53c0.59-0.06,1.16,0.08,1.69,0.42
			c0.44,0.31,0.85,0.65,1.23,1.04c0.39,0.38,0.74,0.89,1.05,1.51c0.29,0.67,0.38,1.27,0.26,1.79c-0.17,0.82-0.57,1.65-1.21,2.48
			c-0.64,0.83-1.44,1.66-2.41,2.49c0.29,0.21,0.6,0.44,0.94,0.67c0.34,0.23,0.69,0.46,1.04,0.69c0.36,0.23,0.7,0.45,1.05,0.65
			c0.34,0.21,0.66,0.39,0.96,0.53c0.24,0.13,0.36,0.24,0.36,0.36c0,0.11-0.05,0.25-0.17,0.4c-0.14,0.2-0.27,0.33-0.38,0.39
			c-0.12,0.06-0.26,0.13-0.43,0.21c-0.2,0.12-0.43,0.21-0.7,0.25c-0.26,0.05-0.59,0-0.99-0.12c-0.26-0.11-0.57-0.25-0.92-0.42
			c-0.35-0.17-0.72-0.37-1.1-0.59c-0.38-0.22-0.77-0.45-1.16-0.7c-0.39-0.25-0.75-0.5-1.08-0.77
			C83.03,65.18,83.05,65.83,83.08,66.45z M83.02,59.48c0,0.65-0.01,1.36-0.03,2.1c0.61-0.43,1.14-0.89,1.58-1.39
			c0.44-0.5,0.79-0.98,1.05-1.44c0.26-0.46,0.44-0.88,0.51-1.25c0.08-0.37,0.07-0.64-0.03-0.8c-0.19-0.26-0.57-0.32-1.14-0.16
			c-0.28,0.08-0.59,0.2-0.91,0.37c-0.32,0.17-0.65,0.41-0.98,0.71C83.03,58.21,83.02,58.82,83.02,59.48z"/>
		<path d="M98.8,53.59c-0.19,0.68-0.4,1.42-0.65,2.23c-0.25,0.8-0.51,1.63-0.8,2.49c-0.29,0.86-0.56,1.68-0.84,2.46
			c0,0.75,0.02,1.45,0.04,2.09s0.05,1.26,0.08,1.86c0,0.22-0.04,0.37-0.11,0.44c-0.08,0.07-0.25,0.1-0.52,0.11
			c-0.25,0-0.51-0.01-0.78-0.03s-0.53-0.05-0.77-0.08c-0.25-0.09-0.42-0.19-0.53-0.32c-0.1-0.12-0.18-0.33-0.22-0.61
			c-0.04-0.47-0.1-1.02-0.18-1.63c-0.08-0.61-0.15-1.3-0.21-2.06c-0.35-0.58-0.73-1.19-1.13-1.83c-0.4-0.64-0.8-1.29-1.2-1.94
			c-0.4-0.65-0.79-1.28-1.17-1.9s-0.73-1.2-1.04-1.75c-0.17-0.26-0.25-0.44-0.22-0.56s0.17-0.23,0.41-0.36
			c0.3-0.1,0.58-0.2,0.86-0.3c0.27-0.09,0.57-0.14,0.88-0.15c0.31-0.01,0.55,0.05,0.72,0.18c0.17,0.13,0.37,0.34,0.61,0.63
			c0.37,0.57,0.78,1.23,1.21,1.98c0.43,0.75,0.89,1.54,1.37,2.37c0.31-1.06,0.61-2.13,0.89-3.22c0.28-1.09,0.56-2.2,0.84-3.32
			c0.03-0.29,0.13-0.47,0.32-0.54c0.19-0.07,0.41-0.08,0.67-0.02c0.25,0.06,0.51,0.16,0.78,0.3c0.27,0.14,0.5,0.27,0.69,0.38
			c0.12,0.09,0.21,0.18,0.28,0.27c0.07,0.09,0.12,0.18,0.15,0.29c0.03,0.1,0.04,0.22,0.03,0.35c-0.01,0.13-0.03,0.29-0.06,0.48
			C99.11,52.34,98.99,52.91,98.8,53.59z"/>
	</g>
	<g>
		<path class="st4" d="M33.35,74.89c0.05,0.75,0.11,1.47,0.17,2.17c0.06,0.69,0.12,1.34,0.19,1.94c0.06,0.6,0.13,1.14,0.2,1.6
			c0.01,0.2-0.03,0.34-0.1,0.43c-0.07,0.08-0.23,0.13-0.48,0.14c-0.24,0.01-0.48,0.01-0.73-0.01c-0.25-0.02-0.48-0.05-0.7-0.1
			c-0.27-0.06-0.47-0.15-0.59-0.27c-0.12-0.12-0.21-0.33-0.25-0.61c-0.1-0.41-0.2-0.92-0.31-1.53c-0.11-0.61-0.21-1.27-0.31-1.98
			c-0.1-0.72-0.2-1.46-0.3-2.23c-0.1-0.77-0.19-1.54-0.27-2.29c-0.08-0.76-0.15-1.47-0.21-2.15c-0.06-0.68-0.11-1.27-0.14-1.8
			c0-0.38,0.07-0.64,0.21-0.78c0.14-0.13,0.39-0.22,0.74-0.26c0.55-0.06,1.01-0.09,1.4-0.09c0.39,0,0.79,0.03,1.19,0.07
			c0.26,0.03,0.46,0.08,0.63,0.15c0.16,0.07,0.3,0.17,0.41,0.28c0.11,0.11,0.2,0.24,0.27,0.39c0.07,0.15,0.15,0.32,0.24,0.51
			c0.02,0.09,0.06,0.21,0.1,0.33c0.05,0.13,0.13,0.36,0.25,0.68s0.3,0.79,0.54,1.39c0.23,0.6,0.56,1.42,0.97,2.47
			c0.07-0.42,0.15-0.89,0.25-1.41c0.1-0.51,0.21-1.04,0.32-1.58c0.11-0.54,0.23-1.08,0.36-1.62c0.13-0.54,0.25-1.06,0.38-1.54
			c0.11-0.55,0.21-1,0.3-1.36c0.09-0.36,0.21-0.64,0.34-0.86c0.14-0.21,0.31-0.36,0.53-0.44c0.22-0.08,0.5-0.12,0.87-0.11
			c0.43,0.01,0.88,0.03,1.36,0.06c0.48,0.03,0.96,0.1,1.44,0.19c0.32,0.07,0.54,0.19,0.65,0.37c0.12,0.18,0.17,0.45,0.14,0.83
			c-0.03,0.54-0.06,1.15-0.09,1.85c-0.03,0.7-0.06,1.43-0.08,2.19c-0.02,0.76-0.04,1.53-0.06,2.32c-0.02,0.78-0.03,1.53-0.05,2.24
			c-0.01,0.71-0.02,1.37-0.03,1.97c0,0.6,0,1.09,0.01,1.48c-0.02,0.21-0.07,0.37-0.14,0.48c-0.07,0.11-0.24,0.17-0.5,0.17
			c-0.24,0.01-0.48,0.01-0.73,0c-0.25-0.01-0.48-0.04-0.68-0.1c-0.25-0.05-0.43-0.15-0.54-0.29c-0.11-0.14-0.17-0.35-0.19-0.62
			c-0.04-0.33-0.07-0.75-0.1-1.28s-0.06-1.11-0.09-1.75c-0.03-0.64-0.05-1.31-0.06-2.02c-0.02-0.7-0.02-1.39,0-2.06
			c-0.16,0.63-0.33,1.31-0.51,2.05c-0.17,0.74-0.34,1.46-0.5,2.17c-0.16,0.71-0.3,1.38-0.43,2c-0.13,0.63-0.23,1.15-0.29,1.56
			c-0.02,0.13-0.04,0.23-0.06,0.31c-0.02,0.08-0.05,0.14-0.09,0.18c-0.04,0.05-0.1,0.08-0.18,0.11c-0.08,0.03-0.18,0.04-0.32,0.05
			c-0.41,0.02-0.77,0.02-1.09,0c-0.12-0.01-0.22-0.03-0.31-0.06c-0.09-0.03-0.17-0.07-0.25-0.13c-0.08-0.06-0.15-0.15-0.22-0.25
			c-0.07-0.1-0.15-0.24-0.24-0.41c-0.37-0.71-0.77-1.53-1.18-2.48c-0.41-0.94-0.82-1.92-1.21-2.94
			C33.25,73.39,33.29,74.14,33.35,74.89z"/>
		<path class="st4" d="M45.3,63.66c0.48-0.27,0.99-0.53,1.52-0.8c0.53-0.26,1.09-0.51,1.66-0.76s1.14-0.46,1.72-0.64
			c0.55-0.16,0.96-0.03,1.23,0.4c0.19,0.22,0.33,0.42,0.43,0.62c0.1,0.19,0.2,0.4,0.31,0.63c0.1,0.26,0.13,0.45,0.07,0.57
			c-0.06,0.12-0.22,0.24-0.49,0.36c-0.57,0.24-1.15,0.48-1.76,0.73c-0.61,0.25-1.24,0.52-1.91,0.82c-0.03,0.52-0.05,1.05-0.06,1.6
			c-0.01,0.55-0.02,1.12-0.04,1.73c0.28-0.12,0.57-0.24,0.85-0.34c0.29-0.1,0.6-0.2,0.92-0.31c0.27-0.09,0.49-0.12,0.66-0.1
			c0.17,0.02,0.34,0.12,0.49,0.3c0.17,0.18,0.31,0.36,0.42,0.55c0.11,0.19,0.22,0.38,0.32,0.58c0.13,0.22,0.18,0.38,0.14,0.49
			c-0.04,0.1-0.19,0.22-0.45,0.36c-0.56,0.28-1.13,0.55-1.71,0.83c-0.58,0.27-1.14,0.55-1.68,0.84c0,0.36,0,0.7,0.01,1.02
			c0,0.32,0,0.64-0.01,0.96c0.44-0.21,0.86-0.4,1.26-0.57c0.4-0.17,0.84-0.33,1.32-0.5c0.27-0.1,0.48-0.13,0.65-0.11
			c0.16,0.02,0.32,0.11,0.48,0.27c0.17,0.18,0.3,0.35,0.41,0.52c0.11,0.17,0.22,0.34,0.34,0.5c0.1,0.2,0.13,0.34,0.1,0.44
			c-0.03,0.09-0.17,0.2-0.42,0.33c-0.59,0.3-1.19,0.61-1.8,0.92c-0.61,0.32-1.19,0.61-1.75,0.89c-0.36,0.21-0.65,0.32-0.87,0.32
			c-0.21,0-0.41-0.04-0.58-0.1c-0.19-0.07-0.38-0.15-0.56-0.23c-0.18-0.08-0.39-0.19-0.64-0.32c-0.2-0.1-0.37-0.24-0.51-0.42
			c-0.14-0.17-0.23-0.41-0.28-0.7L44,64.41C44.39,64.18,44.82,63.93,45.3,63.66z"/>
		<path class="st4" d="M56.44,68.48c0.05,0.75,0.11,1.47,0.17,2.17c0.06,0.69,0.12,1.34,0.19,1.94c0.06,0.6,0.13,1.14,0.2,1.6
			c0.01,0.2-0.03,0.34-0.1,0.43c-0.07,0.08-0.23,0.13-0.48,0.14c-0.24,0.01-0.48,0.01-0.73-0.01c-0.25-0.02-0.48-0.05-0.7-0.1
			c-0.27-0.06-0.47-0.15-0.59-0.27c-0.12-0.12-0.21-0.33-0.25-0.61c-0.1-0.41-0.2-0.92-0.31-1.53c-0.11-0.61-0.21-1.27-0.31-1.98
			c-0.1-0.72-0.2-1.46-0.3-2.23c-0.1-0.77-0.19-1.54-0.27-2.29c-0.08-0.76-0.15-1.47-0.21-2.15c-0.06-0.68-0.11-1.27-0.14-1.8
			c0-0.38,0.07-0.64,0.21-0.78c0.14-0.13,0.39-0.22,0.74-0.26c0.55-0.06,1.01-0.09,1.4-0.09c0.39,0,0.79,0.03,1.19,0.07
			c0.26,0.03,0.46,0.08,0.63,0.15c0.16,0.07,0.3,0.17,0.41,0.28c0.11,0.11,0.2,0.24,0.27,0.39c0.07,0.15,0.15,0.32,0.24,0.51
			c0.02,0.09,0.06,0.21,0.1,0.33c0.05,0.13,0.13,0.36,0.25,0.68c0.12,0.33,0.3,0.79,0.54,1.39c0.23,0.6,0.56,1.42,0.97,2.47
			c0.07-0.42,0.15-0.89,0.25-1.41c0.1-0.51,0.21-1.04,0.32-1.58c0.11-0.54,0.23-1.08,0.36-1.62c0.13-0.54,0.25-1.06,0.38-1.54
			c0.11-0.55,0.21-1,0.3-1.36c0.09-0.36,0.21-0.64,0.34-0.86c0.14-0.21,0.31-0.36,0.53-0.44c0.22-0.08,0.5-0.12,0.87-0.11
			c0.43,0.01,0.88,0.03,1.36,0.06c0.48,0.03,0.96,0.1,1.44,0.19c0.32,0.07,0.54,0.19,0.65,0.37c0.12,0.18,0.17,0.45,0.14,0.83
			c-0.03,0.54-0.06,1.15-0.09,1.85c-0.03,0.7-0.06,1.43-0.08,2.19c-0.02,0.76-0.04,1.53-0.06,2.32c-0.02,0.78-0.03,1.53-0.05,2.24
			c-0.01,0.71-0.02,1.37-0.03,1.97c0,0.6,0,1.09,0.01,1.48c-0.02,0.21-0.07,0.37-0.14,0.48c-0.07,0.11-0.24,0.17-0.5,0.17
			c-0.24,0.01-0.48,0.01-0.73,0c-0.25-0.01-0.48-0.04-0.68-0.1c-0.25-0.05-0.43-0.15-0.54-0.29c-0.11-0.14-0.17-0.35-0.19-0.62
			c-0.04-0.33-0.07-0.75-0.1-1.28c-0.03-0.53-0.06-1.11-0.09-1.75c-0.03-0.64-0.05-1.31-0.06-2.02c-0.02-0.7-0.02-1.39,0-2.06
			c-0.16,0.63-0.33,1.31-0.51,2.05c-0.17,0.74-0.34,1.46-0.5,2.17s-0.3,1.38-0.43,2c-0.13,0.63-0.22,1.15-0.29,1.56
			c-0.02,0.13-0.04,0.23-0.06,0.31c-0.02,0.08-0.05,0.14-0.09,0.18s-0.1,0.08-0.18,0.11c-0.08,0.03-0.18,0.04-0.32,0.05
			c-0.41,0.02-0.77,0.02-1.09,0c-0.12-0.01-0.22-0.03-0.31-0.06c-0.09-0.03-0.17-0.07-0.25-0.13c-0.08-0.06-0.15-0.15-0.22-0.25
			c-0.07-0.1-0.15-0.24-0.24-0.41c-0.37-0.71-0.77-1.53-1.18-2.48c-0.41-0.94-0.82-1.92-1.21-2.94
			C56.33,66.97,56.38,67.72,56.44,68.48z"/>
		<path class="st4" d="M75.47,56.91c0.26,0.32,0.48,0.7,0.67,1.14c0.29,0.74,0.51,1.57,0.67,2.49c0.15,0.92,0.22,1.86,0.2,2.82
			c-0.02,0.96-0.13,1.89-0.34,2.79c-0.21,0.9-0.53,1.71-0.98,2.42c-0.31,0.44-0.67,0.77-1.07,1c-0.4,0.23-0.89,0.39-1.46,0.48
			c-0.38,0.06-0.78,0.1-1.19,0.12c-0.41,0.02-0.8-0.02-1.16-0.11c-0.3-0.07-0.6-0.19-0.91-0.36c-0.31-0.16-0.57-0.37-0.79-0.63
			c-0.35-0.42-0.65-0.92-0.91-1.5c-0.26-0.58-0.47-1.21-0.62-1.89c-0.15-0.68-0.24-1.39-0.27-2.13c-0.03-0.74,0.01-1.48,0.12-2.22
			c0.11-0.74,0.28-1.46,0.52-2.16c0.24-0.7,0.56-1.36,0.96-1.98c0.27-0.38,0.63-0.71,1.07-0.99c0.44-0.28,0.88-0.44,1.33-0.49
			c0.58-0.06,1.14-0.06,1.69,0c0.55,0.06,1.02,0.19,1.42,0.38C74.86,56.32,75.21,56.59,75.47,56.91z M71.82,58.81
			c-0.19,0.33-0.36,0.75-0.51,1.27c-0.15,0.51-0.27,1.07-0.36,1.68c-0.09,0.61-0.14,1.18-0.16,1.73c-0.02,0.53,0.01,1.08,0.07,1.63
			c0.07,0.55,0.16,1.05,0.29,1.51c0.13,0.45,0.29,0.83,0.48,1.12c0.19,0.3,0.41,0.45,0.65,0.46c0.22,0.02,0.42-0.09,0.61-0.32
			c0.18-0.23,0.35-0.55,0.49-0.96c0.14-0.41,0.25-0.9,0.33-1.47c0.08-0.57,0.12-1.17,0.12-1.82c0.01-0.53-0.02-1.11-0.08-1.73
			c-0.06-0.62-0.15-1.19-0.28-1.71c-0.12-0.53-0.28-0.97-0.46-1.32c-0.18-0.35-0.38-0.53-0.59-0.54
			C72.22,58.32,72.01,58.48,71.82,58.81z"/>
		<path class="st4" d="M82.02,65.36c0.03,0.62,0.05,1.23,0.08,1.84c-0.01,0.18-0.05,0.31-0.12,0.39c-0.07,0.08-0.22,0.12-0.46,0.13
			c-0.28,0-0.53,0.01-0.74,0.02c-0.22,0.01-0.43-0.01-0.64-0.06c-0.21-0.06-0.37-0.17-0.48-0.32c-0.11-0.14-0.18-0.36-0.23-0.64
			c-0.03-0.23-0.08-0.56-0.15-0.99c-0.07-0.43-0.14-0.92-0.21-1.47c-0.08-0.55-0.16-1.14-0.24-1.77c-0.08-0.63-0.16-1.26-0.23-1.9
			c-0.07-0.63-0.13-1.25-0.18-1.85s-0.08-1.14-0.09-1.63c-0.01-0.49,0.01-0.9,0.05-1.23c0.05-0.33,0.12-0.55,0.23-0.66
			c0.53-0.46,1.1-0.93,1.69-1.4c0.59-0.47,1.19-0.85,1.8-1.15c0.61-0.3,1.21-0.48,1.8-0.53c0.59-0.06,1.16,0.08,1.69,0.42
			c0.44,0.31,0.85,0.65,1.23,1.04c0.39,0.38,0.74,0.89,1.05,1.51c0.29,0.67,0.38,1.27,0.26,1.79c-0.17,0.82-0.57,1.65-1.21,2.48
			c-0.64,0.83-1.44,1.66-2.41,2.49c0.29,0.21,0.6,0.44,0.94,0.67c0.34,0.23,0.69,0.46,1.04,0.69c0.36,0.23,0.7,0.45,1.05,0.65
			c0.34,0.21,0.66,0.39,0.96,0.53c0.24,0.13,0.36,0.24,0.36,0.36c0,0.11-0.05,0.25-0.17,0.4c-0.14,0.2-0.27,0.33-0.38,0.39
			c-0.12,0.06-0.26,0.13-0.43,0.21c-0.2,0.12-0.43,0.21-0.7,0.25c-0.26,0.05-0.59,0-0.99-0.12c-0.26-0.11-0.57-0.25-0.92-0.42
			c-0.35-0.17-0.72-0.37-1.1-0.59c-0.38-0.22-0.77-0.45-1.16-0.7s-0.75-0.5-1.08-0.77C81.97,64.08,81.99,64.73,82.02,65.36z
			 M81.95,58.38c0,0.65-0.01,1.36-0.03,2.1c0.61-0.43,1.14-0.89,1.58-1.39c0.44-0.5,0.79-0.98,1.05-1.44
			c0.26-0.46,0.44-0.88,0.51-1.25c0.08-0.37,0.07-0.64-0.03-0.8c-0.19-0.26-0.57-0.32-1.14-0.16c-0.28,0.08-0.59,0.2-0.91,0.37
			c-0.32,0.17-0.65,0.41-0.98,0.71C81.97,57.11,81.96,57.73,81.95,58.38z"/>
		<path class="st4" d="M97.74,52.49c-0.19,0.68-0.4,1.42-0.65,2.23s-0.51,1.63-0.8,2.49c-0.29,0.86-0.56,1.68-0.84,2.46
			c0,0.75,0.02,1.45,0.04,2.09c0.03,0.64,0.05,1.26,0.08,1.86c0,0.22-0.04,0.37-0.11,0.44c-0.08,0.07-0.25,0.1-0.52,0.11
			c-0.25,0-0.51-0.01-0.78-0.03c-0.27-0.02-0.53-0.05-0.77-0.08c-0.25-0.09-0.42-0.19-0.53-0.32c-0.1-0.12-0.18-0.33-0.22-0.61
			c-0.04-0.47-0.1-1.02-0.18-1.63c-0.08-0.61-0.15-1.3-0.21-2.06c-0.35-0.58-0.73-1.19-1.13-1.83c-0.4-0.64-0.8-1.29-1.2-1.94
			c-0.4-0.65-0.79-1.28-1.17-1.9c-0.38-0.62-0.73-1.2-1.04-1.75c-0.17-0.26-0.25-0.44-0.22-0.56c0.03-0.12,0.17-0.23,0.41-0.36
			c0.3-0.1,0.58-0.2,0.86-0.3c0.27-0.09,0.57-0.14,0.88-0.15c0.31-0.01,0.55,0.05,0.72,0.18c0.17,0.13,0.37,0.34,0.61,0.63
			c0.37,0.57,0.78,1.23,1.21,1.98c0.43,0.75,0.89,1.54,1.37,2.37c0.31-1.06,0.61-2.13,0.89-3.22c0.28-1.09,0.56-2.2,0.84-3.32
			c0.03-0.29,0.13-0.47,0.32-0.54c0.19-0.07,0.41-0.08,0.67-0.02c0.25,0.06,0.51,0.16,0.78,0.3c0.27,0.14,0.5,0.27,0.69,0.38
			c0.12,0.09,0.21,0.18,0.28,0.27c0.07,0.09,0.12,0.18,0.15,0.29c0.03,0.1,0.04,0.22,0.03,0.35c-0.01,0.13-0.03,0.29-0.06,0.48
			C98.05,51.25,97.92,51.81,97.74,52.49z"/>
	</g>
	<g class="st5">
		<path class="st6" d="M35.73,85.77c7.6,0.51,14.7-3.4,22.09-4.66c5.94-1.02,11.69-2.97,17.51-4.68c8.62-2.53,17.31-5.91,26.05-7.27
			"/>
	</g>
</g>
</svg>
